<svg width="320" height="1657" viewBox="0 0 320 1657" fill="none" xmlns="http://www.w3.org/2000/svg">
<g clip-path="url(#clip0_2355_1659)">
<rect width="320" height="1657" fill="url(#paint0_linear_2355_1659)"/>
<ellipse cx="3.13067" cy="3.08964" rx="3.13067" ry="3.08964" transform="matrix(-0.294499 0.955652 -0.952913 -0.303243 204.613 1234.46)" fill="#CCC3E0"/>
<ellipse cx="3.13508" cy="3.08517" rx="3.13508" ry="3.08517" transform="matrix(-0.0230229 0.999735 -0.999717 -0.0237742 255.305 1178.1)" fill="#CCC3E0"/>
<ellipse cx="3.13508" cy="3.08517" rx="3.13508" ry="3.08517" transform="matrix(-0.0230229 0.999735 -0.999717 -0.0237742 150.201 1109.29)" fill="#CCC3E0"/>
<ellipse cx="2.23934" cy="2.20369" rx="2.23934" ry="2.20369" transform="matrix(-0.0230229 0.999735 -0.999717 -0.0237742 171.709 1170.73)" fill="#CCC3E0"/>
<ellipse cx="2.23934" cy="2.20369" rx="2.23934" ry="2.20369" transform="matrix(-0.0230229 0.999735 -0.999717 -0.0237742 292.639 1030.52)" fill="#CCC3E0"/>
<ellipse cx="1.13903" cy="1.1241" rx="1.13903" ry="1.1241" transform="matrix(-0.294499 0.955652 -0.952913 -0.303243 113.188 1210.8)" fill="#CCC3E0"/>
<ellipse cx="1.14063" cy="1.12247" rx="1.14063" ry="1.12247" transform="matrix(-0.0230229 0.999735 -0.999717 -0.0237742 168.352 948.193)" fill="#CCC3E0"/>
<ellipse cx="1.70893" cy="1.68575" rx="1.70893" ry="1.68575" transform="matrix(-0.269802 -0.962916 0.960598 -0.277941 105.338 1202.75)" fill="#CCC3E0"/>
<ellipse cx="1.70337" cy="1.69137" rx="1.70337" ry="1.69137" transform="matrix(-0.522933 -0.852374 0.844743 -0.535172 158.615 942.661)" fill="#CCC3E0"/>
<ellipse cx="1.70337" cy="1.69137" rx="1.70337" ry="1.69137" transform="matrix(-0.522933 -0.852374 0.844743 -0.535172 29.7812 1221.92)" fill="#CCC3E0"/>
<ellipse cx="3.13508" cy="3.08517" rx="3.13508" ry="3.08517" transform="matrix(0.0230229 -0.999735 0.999717 0.0237742 144.799 159.714)" fill="#CCC3E0"/>
<ellipse cx="3.13508" cy="3.08517" rx="3.13508" ry="3.08517" transform="matrix(0.0230229 -0.999735 0.999717 0.0237742 76.3359 336.489)" fill="#CCC3E0"/>
<ellipse cx="3.13508" cy="3.08517" rx="3.13508" ry="3.08517" transform="matrix(0.0230229 -0.999735 0.999717 0.0237742 181.438 405.294)" fill="#CCC3E0"/>
<ellipse cx="2.23934" cy="2.20369" rx="2.23934" ry="2.20369" transform="matrix(0.0230229 -0.999735 0.999717 0.0237742 159.93 343.854)" fill="#CCC3E0"/>
<ellipse cx="2.23934" cy="2.20369" rx="2.23934" ry="2.20369" transform="matrix(0.0230229 -0.999735 0.999717 0.0237742 39 484.062)" fill="#CCC3E0"/>
<ellipse cx="1.14063" cy="1.12247" rx="1.14063" ry="1.12247" transform="matrix(0.0230229 -0.999735 0.999717 0.0237742 239.098 156.767)" fill="#CCC3E0"/>
<ellipse cx="1.14063" cy="1.12247" rx="1.14063" ry="1.12247" transform="matrix(0.0230229 -0.999735 0.999717 0.0237742 163.287 566.394)" fill="#CCC3E0"/>
<ellipse cx="1.70337" cy="1.69137" rx="1.70337" ry="1.69137" transform="matrix(0.522933 0.852374 -0.844743 0.535172 248.832 162.299)" fill="#CCC3E0"/>
<ellipse cx="1.70337" cy="1.69137" rx="1.70337" ry="1.69137" transform="matrix(0.522933 0.852374 -0.844743 0.535172 173.023 571.926)" fill="#CCC3E0"/>
<ellipse cx="1.70337" cy="1.69137" rx="1.70337" ry="1.69137" transform="matrix(0.522933 0.852374 -0.844743 0.535172 301.857 292.664)" fill="#CCC3E0"/>
<ellipse cx="3.13508" cy="3.08517" rx="3.13508" ry="3.08517" transform="matrix(-0.0230229 0.999735 -0.999717 -0.0237742 186.84 870.148)" fill="#CCC3E0"/>
<ellipse cx="3.13508" cy="3.08517" rx="3.13508" ry="3.08517" transform="matrix(-0.0230229 0.999735 -0.999717 -0.0237742 255.305 693.373)" fill="#CCC3E0"/>
<ellipse cx="3.13508" cy="3.08517" rx="3.13508" ry="3.08517" transform="matrix(-0.0230229 0.999735 -0.999717 -0.0237742 150.203 624.569)" fill="#CCC3E0"/>
<ellipse cx="2.23934" cy="2.20369" rx="2.23934" ry="2.20369" transform="matrix(-0.0230229 0.999735 -0.999717 -0.0237742 171.711 686.008)" fill="#CCC3E0"/>
<ellipse cx="2.23934" cy="2.20369" rx="2.23934" ry="2.20369" transform="matrix(-0.0230229 0.999735 -0.999717 -0.0237742 292.639 545.8)" fill="#CCC3E0"/>
<ellipse cx="1.14063" cy="1.12247" rx="1.14063" ry="1.12247" transform="matrix(-0.0230229 0.999735 -0.999717 -0.0237742 92.541 873.095)" fill="#CCC3E0"/>
<ellipse cx="1.14063" cy="1.12247" rx="1.14063" ry="1.12247" transform="matrix(-0.0230229 0.999735 -0.999717 -0.0237742 168.352 463.468)" fill="#CCC3E0"/>
<ellipse cx="1.70337" cy="1.69137" rx="1.70337" ry="1.69137" transform="matrix(-0.522933 -0.852374 0.844743 -0.535172 82.8066 867.564)" fill="#CCC3E0"/>
<ellipse cx="1.70337" cy="1.69137" rx="1.70337" ry="1.69137" transform="matrix(-0.522933 -0.852374 0.844743 -0.535172 158.617 457.937)" fill="#CCC3E0"/>
<ellipse cx="1.70337" cy="1.69137" rx="1.70337" ry="1.69137" transform="matrix(-0.522933 -0.852374 0.844743 -0.535172 29.7812 737.198)" fill="#CCC3E0"/>
</g>
<defs>
<linearGradient id="paint0_linear_2355_1659" x1="160" y1="0" x2="160" y2="753.464" gradientUnits="userSpaceOnUse">
<stop stop-color="#6A50A3"/>
<stop offset="1" stop-color="#221737"/>
</linearGradient>
<clipPath id="clip0_2355_1659">
<rect width="320" height="1657" fill="white"/>
</clipPath>
</defs>
</svg>
