<svg width="190" height="237" viewBox="0 0 190 237" fill="none" xmlns="http://www.w3.org/2000/svg">
<rect x="73.6212" y="133.628" width="48.0232" height="3.54754" transform="rotate(65.2261 73.6212 133.628)" fill="#343232"/>
<rect x="100.992" y="81.8889" width="73.2638" height="3.54754" transform="rotate(4.42452 100.992 81.8889)" fill="#444242"/>
<rect x="0.22937" y="54.6023" width="68.076" height="118.594" transform="rotate(-36.475 0.22937 54.6023)" fill="url(#paint0_linear_2041_222)"/>
<path d="M22.1721 24.5371L59.1256 0L55.2825 14.1902L0 54.6912L22.1721 24.5371Z" fill="url(#paint1_linear_2041_222)"/>
<path d="M59.1256 0L113.521 76.5677L125.346 109.678L54.9868 14.1902L59.1256 0Z" fill="#F3F3F3"/>
<rect x="66.9164" y="140.05" width="96.9661" height="3.54754" transform="rotate(82.6899 66.9164 140.05)" fill="#343232"/>
<rect x="113.512" y="105.539" width="96.9661" height="3.54754" transform="rotate(38.4038 113.512 105.539)" fill="#444242"/>
<rect x="111.162" y="99.6567" width="10.6426" height="9.4601" transform="rotate(41.2603 111.162 99.6567)" fill="#444242"/>
<rect x="68.8813" y="136.876" width="9.58362" height="8.21206" transform="rotate(84.0578 68.8813 136.876)" fill="#343232"/>
<path d="M81.2977 31.041L92.5316 47.0049L96.0791 70.3596L81.2977 49.9612V31.041Z" fill="#61A2EF"/>
<path d="M92.5316 47.0049L94.601 49.9612L98.4442 73.3158L96.0792 70.3595L92.5316 47.0049Z" fill="#F74D37"/>
<path d="M81.5934 49.9612L96.0792 70.3595L41.9792 111.156L26.3109 89.5754L81.5934 49.9612Z" fill="#528ACF"/>
<path d="M96.0792 70.3596L98.4442 73.3159L43.753 113.521L41.9792 111.156L96.0792 70.3596Z" fill="#C43D2C"/>
<path d="M65.2061 129.379C64.7784 129.692 64.3454 129.821 63.9071 129.767C63.4841 129.701 63.1274 129.469 62.8371 129.072C61.9662 127.881 61.6394 126.456 61.8566 124.797C62.078 123.112 62.8618 121.074 64.2082 118.684C64.8579 117.553 65.3064 116.628 65.5537 115.908C65.7898 115.173 65.8676 114.542 65.787 114.015C65.7106 113.461 65.4714 112.91 65.0695 112.36C64.5112 111.596 63.8217 111.198 63.0009 111.165C62.169 111.117 61.2795 111.439 60.3324 112.131C58.1634 113.716 57.732 115.403 59.0383 117.19C59.3398 117.602 59.6327 117.939 59.9171 118.2C59.8019 118.331 59.6145 118.491 59.3549 118.681C58.6522 119.195 57.9037 119.437 57.1094 119.408C56.3191 119.353 55.7063 119.028 55.2708 118.432C54.6791 117.622 54.4126 116.681 54.4712 115.607C54.5298 114.533 54.9008 113.453 55.584 112.368C56.2672 111.282 57.1968 110.31 58.373 109.45C59.5797 108.568 60.7976 108.006 62.0267 107.764C63.2599 107.495 64.4133 107.566 65.4868 107.977C66.5491 108.372 67.4487 109.074 68.1855 110.082C69.0117 111.212 69.3453 112.55 69.1862 114.096C69.016 115.627 68.3602 117.407 67.2188 119.436C66.3365 121.019 65.7477 122.281 65.4522 123.224C65.1609 124.14 65.1375 124.813 65.3819 125.243L72.3473 120.152C73.111 119.594 73.8533 119.391 74.5743 119.544C75.2952 119.697 75.9683 120.201 76.5935 121.056L65.2061 129.379ZM73.1013 98.685C74.4455 97.7025 75.8114 97.1024 77.1992 96.8849C78.5758 96.6521 79.8795 96.8006 81.1105 97.3304C82.3414 97.8603 83.4147 98.7515 84.3302 100.004C84.9107 100.798 85.3324 101.744 85.5951 102.841C85.8732 103.927 85.9523 105.029 85.8326 106.147L85.0129 114.164C84.9583 114.602 84.8576 114.945 84.7107 115.193C84.575 115.457 84.3468 115.705 84.026 115.94C83.2317 116.52 82.3196 116.683 81.2896 116.428L82.0064 110.772C82.4212 110.281 82.7601 109.799 83.0233 109.326L82.7078 109.135C82.2895 109.909 81.7214 110.559 81.0035 111.083C79.8121 111.954 78.5983 112.49 77.3621 112.69C76.1301 112.864 74.9626 112.71 73.8597 112.227C72.761 111.718 71.7985 110.898 70.9723 109.768C70.0568 108.515 69.5258 107.228 69.3794 105.905C69.2482 104.571 69.5025 103.284 70.1422 102.043C70.7707 100.787 71.7571 99.6675 73.1013 98.685ZM75.0105 101.297C73.8954 102.112 73.2419 103.094 73.0499 104.242C72.8579 105.39 73.1582 106.506 73.9509 107.59C74.7548 108.69 75.7384 109.331 76.9017 109.511C78.0539 109.677 79.1875 109.352 80.3026 108.537C81.4024 107.733 82.0427 106.75 82.2235 105.586C82.4197 104.412 82.1214 103.282 81.3287 102.198C80.5471 101.129 79.5726 100.517 78.4052 100.362C77.2418 100.182 76.1103 100.493 75.0105 101.297ZM100.344 104.013C99.1522 104.884 97.8926 105.453 96.5648 105.72C95.2523 105.977 94.0231 105.914 92.8774 105.533C91.7205 105.136 90.7903 104.457 90.0869 103.495L85.6992 97.4918C84.9958 96.5294 84.6364 95.4446 84.621 94.2372C84.5944 93.0145 84.9025 91.8168 85.5451 90.644C86.203 89.46 87.1277 88.4326 88.3191 87.5618C89.5106 86.6909 90.7681 86.135 92.0918 85.894C93.4197 85.6265 94.6564 85.6833 95.8022 86.0645C96.9632 86.4346 97.8954 87.1007 98.5988 88.0631L102.987 94.0661C103.69 95.0284 104.042 96.1188 104.042 97.3374C104.057 98.5448 103.742 99.7481 103.095 100.947C102.452 102.12 101.535 103.142 100.344 104.013ZM98.3842 101.332C99.4229 100.573 100.075 99.7332 100.34 98.8131C100.593 97.8777 100.43 97.0128 99.8493 96.2185L95.5955 90.3988C95.0149 89.6045 94.2461 89.1939 93.289 89.167C92.3207 89.1248 91.3173 89.4833 90.2786 90.2425C89.2399 91.0017 88.5937 91.849 88.34 92.7844C88.0751 93.7045 88.2329 94.5617 88.8135 95.356L93.0673 101.176C93.6479 101.97 94.4223 102.388 95.3905 102.43C96.3477 102.457 97.3455 102.091 98.3842 101.332Z" fill="#797979"/>
<path d="M23.771 64.875L22.6062 65.7019L21.0948 63.5728C20.8511 63.9159 20.6131 64.2125 20.3807 64.4626C20.1534 64.709 19.9035 64.9289 19.6309 65.1224C19.1167 65.4875 18.6253 65.6506 18.157 65.6119C17.6901 65.5643 17.2924 65.3091 16.9638 64.8462L15.3484 62.5706L16.5133 61.7437L17.8932 63.6877C18.083 63.9551 18.2871 64.1119 18.5054 64.158C18.7238 64.204 18.9795 64.1231 19.2727 63.915C19.4887 63.7616 19.6882 63.5852 19.8714 63.3856C20.0545 63.186 20.2469 62.9449 20.4486 62.6625L18.6964 60.194L19.8612 59.3672L23.771 64.875ZM23.7545 58.4365C24.1453 58.159 24.5325 57.9963 24.9161 57.9483C25.3048 57.8967 25.6767 57.9575 26.0318 58.1308C26.3869 58.3042 26.7104 58.5966 27.0025 59.008L27.3967 59.5634L24.6814 61.4909C24.9216 61.8076 25.1975 61.9946 25.5089 62.052C25.8255 62.1057 26.1457 62.0176 26.4697 61.7876C26.7423 61.5941 26.9709 61.3932 27.1555 61.1848C27.3365 60.9712 27.5051 60.7239 27.6614 60.4428L28.2911 61.33C28.1584 61.5789 27.9928 61.8086 27.7942 62.0191C27.6044 62.2312 27.3476 62.4522 27.0236 62.6822C26.6019 62.9816 26.1743 63.1691 25.7407 63.2448C25.3036 63.3154 24.8793 63.2569 24.4678 63.0695C24.0563 62.8821 23.679 62.5466 23.3358 62.0632C22.9854 61.5695 22.7774 61.1023 22.712 60.6614C22.6481 60.2118 22.7068 59.7989 22.8883 59.4226C23.0698 59.0463 23.3585 58.7176 23.7545 58.4365ZM24.3426 59.2487C24.1215 59.4057 23.9875 59.6091 23.9406 59.859C23.8988 60.1052 23.9727 60.3891 24.1624 60.7108L25.7746 59.5663C25.6542 59.3966 25.5156 59.2668 25.359 59.1769C25.2075 59.0833 25.0452 59.04 24.8722 59.0468C24.6992 59.0536 24.5226 59.1209 24.3426 59.2487ZM33.3933 58.0446L32.2439 58.8605L29.8673 55.5126L28.8105 56.2628C29.1971 56.9164 29.507 57.4892 29.7402 57.9811C29.9749 58.4642 30.1324 58.8822 30.2127 59.235C30.2982 59.5843 30.3017 59.8834 30.2233 60.1324C30.1412 60.3763 29.9767 60.5859 29.7298 60.7611C29.5961 60.8561 29.468 60.9316 29.3454 60.9876C29.2228 61.0437 29.1032 61.0822 28.9865 61.1032L28.3349 60.1852C28.4061 60.1656 28.478 60.1416 28.5506 60.1132C28.6233 60.0849 28.6931 60.0469 28.7599 59.9995C28.8319 59.9484 28.8787 59.8726 28.9003 59.7723C28.927 59.6682 28.9175 59.5241 28.8718 59.34C28.8313 59.1522 28.7474 58.914 28.6199 58.6255C28.4924 58.337 28.3142 57.9879 28.0852 57.5781C27.8577 57.1596 27.5685 56.6649 27.2175 56.0942L30.4034 53.8327L33.3933 58.0446ZM35.2333 56.7384L33.9914 57.62L33.9426 55.1488C33.7547 55.1893 33.5601 55.2038 33.3585 55.1922C33.1584 55.1718 32.9614 55.1067 32.7674 54.9969C32.5734 54.8871 32.3961 54.7191 32.2355 54.4928C31.9362 54.0711 31.8674 53.6365 32.0293 53.189C32.1875 52.7364 32.5161 52.333 33.0149 51.9789L34.9743 50.588L37.9642 54.7999L36.8147 55.6159L35.7031 54.0499L35.0706 54.4989L35.2333 56.7384ZM33.3673 53.701C33.4914 53.8759 33.6594 53.9654 33.8712 53.9697C34.0795 53.9689 34.2941 53.89 34.5153 53.733L35.1555 53.2785L34.3999 52.2139L33.613 52.7725C33.4073 52.9185 33.2921 53.0776 33.2674 53.2498C33.2391 53.4169 33.2723 53.5673 33.3673 53.701ZM37.1206 51.6051C36.6789 50.9828 36.3818 50.401 36.2295 49.8594C36.0735 49.3128 36.0713 48.7923 36.2231 48.2978C36.3712 47.7983 36.6823 47.3105 37.1566 46.8346C37.3963 46.5949 37.6441 46.361 37.8999 46.133C38.1572 45.8962 38.4222 45.654 38.6949 45.4062L39.5379 46.316C39.4203 46.4227 39.2917 46.5411 39.152 46.6712C39.0087 46.7961 38.8646 46.9254 38.7198 47.0592C38.5764 47.1841 38.4401 47.308 38.3107 47.4308C38.1813 47.5536 38.0629 47.6647 37.9556 47.7641C37.7872 47.93 37.6511 48.0923 37.5473 48.2511C37.4398 48.4048 37.3719 48.5651 37.3435 48.7322C37.3151 48.8993 37.3329 49.0878 37.3968 49.2976C37.4622 49.4987 37.5803 49.7358 37.751 50.0091L37.805 49.9708C37.7974 49.8292 37.8129 49.6713 37.8515 49.4969C37.8953 49.3189 37.9757 49.138 38.0929 48.9544C38.21 48.7707 38.3739 48.604 38.5848 48.4543C38.9191 48.217 39.2589 48.0802 39.6043 48.0438C39.9498 48.0075 40.2861 48.0781 40.6133 48.2557C40.9405 48.4334 41.2483 48.7254 41.5367 49.1316C41.8762 49.6099 42.0717 50.0705 42.1231 50.5135C42.1746 50.9565 42.1045 51.3698 41.9128 51.7534C41.7174 52.1318 41.4165 52.4653 41.0102 52.7537C40.7017 52.9727 40.3812 53.1151 40.0489 53.1808C39.7166 53.2466 39.382 53.2328 39.045 53.1394C38.708 53.046 38.3757 52.872 38.048 52.6174C37.7254 52.3591 37.4163 52.0217 37.1206 51.6051ZM40.4171 51.771C40.5817 51.6541 40.6975 51.5178 40.7647 51.3618C40.837 51.2022 40.8482 51.0164 40.7982 50.8043C40.7534 50.5887 40.6324 50.342 40.4353 50.0643C40.198 49.73 39.9534 49.5053 39.7016 49.3902C39.4512 49.2663 39.1897 49.3011 38.9172 49.4945C38.7526 49.6114 38.6275 49.762 38.5419 49.9465C38.4578 50.1222 38.4034 50.2962 38.3787 50.4684C38.3504 50.6355 38.3438 50.7678 38.3589 50.8654C38.5012 51.0659 38.6554 51.2504 38.8213 51.4188C38.9836 51.582 39.1537 51.7126 39.3315 51.8107C39.5094 51.9087 39.6885 51.9594 39.8689 51.9629C40.0543 51.9627 40.2371 51.8987 40.4171 51.771ZM43.2683 47.2063C43.3304 47.2938 43.4019 47.4054 43.4829 47.5413C43.569 47.6735 43.6544 47.8101 43.739 47.9511C43.8288 48.0885 43.905 48.2122 43.9678 48.3224C44.0305 48.4326 44.0739 48.51 44.0979 48.5548L43.9446 44.2204L45.3254 43.2402L48.3153 47.4521L47.2045 48.2406L46.0107 46.559C45.9122 46.4201 45.8096 46.2647 45.7031 46.0929C45.5929 45.9159 45.4918 45.7517 45.3999 45.6004C45.3095 45.4403 45.2394 45.3199 45.1898 45.2391L45.3454 49.5603L43.9645 50.5405L40.9747 46.3286L42.0855 45.5401L43.2683 47.2063ZM47.6761 41.5715L48.8261 43.1915L50.4306 42.0525L49.2807 40.4325L50.4301 39.6166L53.4199 43.8285L52.2705 44.6444L51.0385 42.9088L49.4339 44.0478L50.666 45.7834L49.5166 46.5994L46.5267 42.3874L47.6761 41.5715ZM56.3915 41.8352C55.9749 42.1309 55.5671 42.3082 55.1681 42.3671C54.7655 42.4209 54.3738 42.3432 53.9932 42.1339C53.6126 41.9245 53.2452 41.5704 52.8911 41.0716C52.5261 40.5573 52.316 40.0761 52.2608 39.628C52.2057 39.1799 52.2777 38.7692 52.4767 38.3958C52.6809 38.0189 52.9861 37.6862 53.3924 37.3978C53.6804 37.1934 53.9499 37.0446 54.2009 36.9515C54.4571 36.8547 54.6922 36.7883 54.9064 36.7523L55.1967 37.8804C54.9656 37.9361 54.7539 37.9975 54.5616 38.0644C54.3745 38.1276 54.2038 38.214 54.0495 38.3235C53.8489 38.4659 53.7165 38.6334 53.6521 38.826C53.5841 39.0135 53.5842 39.2261 53.6525 39.4638C53.7222 39.6928 53.8574 39.9487 54.0582 40.2315C54.2553 40.5092 54.453 40.7169 54.6513 40.8546C54.8511 40.9835 55.0507 41.0468 55.2501 41.0444C55.4459 41.0369 55.6389 40.9657 55.8292 40.8306C56.0709 40.659 56.2624 40.4766 56.4038 40.2835C56.5414 40.0852 56.6575 39.8675 56.7521 39.6302L57.4475 40.6099C57.353 40.8472 57.2244 41.0583 57.0619 41.2433C56.9081 41.4298 56.6846 41.6271 56.3915 41.8352ZM58.3585 33.9886L59.6236 33.0905L59.3921 36.2944L62.7601 37.1984L61.4564 38.1238L58.2193 37.2081L59.7361 39.3449L58.5867 40.1609L55.5969 35.9489L56.7463 35.133L58.1974 37.1773L58.3585 33.9886ZM45.4669 62.6553C45.2807 62.393 45.1905 62.1516 45.1963 61.9309C45.2072 61.7066 45.3258 61.5141 45.5521 61.3535L48.0052 59.6121C48.3958 60.1624 48.3649 60.5982 47.9123 60.9194L45.4669 62.6553Z" fill="#797979"/>
<rect x="34.6699" y="83.6189" width="29.4502" height="4.61463" transform="rotate(53.7988 34.6699 83.6189)" fill="white" fill-opacity="0.36"/>
<defs>
<linearGradient id="paint0_linear_2041_222" x1="387.783" y1="-66.2912" x2="34.2674" y2="173.196" gradientUnits="userSpaceOnUse">
<stop stop-color="#646464"/>
<stop offset="1" stop-color="#CACACA"/>
</linearGradient>
<linearGradient id="paint1_linear_2041_222" x1="34" y1="-5" x2="54.5" y2="52.5" gradientUnits="userSpaceOnUse">
<stop stop-color="#BFBFBF"/>
<stop offset="1" stop-color="#838383"/>
</linearGradient>
</defs>
</svg>
