<svg width="143" height="68" viewBox="0 0 143 68" fill="none" xmlns="http://www.w3.org/2000/svg">
<path d="M73.2541 56.5423L74.0923 58.3582L73.2541 56.5423ZM141.27 2.79037C141.18 1.68945 140.215 0.869775 139.114 0.959567L121.173 2.42276C120.072 2.51255 119.253 3.47781 119.342 4.57872C119.432 5.67963 120.397 6.49931 121.498 6.40953L137.445 5.10891L138.746 21.056C138.836 22.1569 139.801 22.9765 140.902 22.8868C142.003 22.797 142.823 21.8317 142.733 20.7308L141.27 2.79037ZM38.5775 38.8892L37.7345 37.0756L38.5775 38.8892ZM74.0923 58.3582C91.2514 50.4381 107.942 36.8693 120.281 25.3709C126.466 19.6074 131.589 14.3346 135.167 10.501C136.956 8.5837 138.361 7.02516 139.32 5.94371C139.799 5.40295 140.167 4.98138 140.417 4.69377C140.541 4.54997 140.636 4.43965 140.701 4.36466C140.733 4.32717 140.757 4.2985 140.774 4.2789C140.782 4.2691 140.789 4.26157 140.793 4.25633C140.795 4.2537 140.797 4.25166 140.798 4.25019C140.799 4.24946 140.8 4.24879 140.8 4.24842C140.8 4.2479 140.801 4.24752 139.276 2.95295C137.752 1.65837 137.752 1.65828 137.752 1.65834C137.752 1.65855 137.751 1.65875 137.751 1.65917C137.75 1.66002 137.749 1.66144 137.747 1.66343C137.744 1.66741 137.739 1.67368 137.731 1.68222C137.717 1.69928 137.694 1.72538 137.665 1.76029C137.605 1.83012 137.514 1.93516 137.394 2.0736C137.154 2.35048 136.796 2.76086 136.327 3.29003C135.388 4.34842 134.007 5.88156 132.243 7.77164C128.714 11.5527 123.657 16.7573 117.554 22.4445C105.317 33.8475 88.9963 47.0734 72.416 54.7264L74.0923 58.3582ZM2.05552 66.7602C3.72564 67.8606 3.72525 67.8612 3.72489 67.8617C3.72483 67.8618 3.72451 67.8623 3.72438 67.8625C3.72411 67.8629 3.724 67.863 3.72405 67.863C3.72415 67.8628 3.72488 67.8617 3.72624 67.8597C3.72895 67.8556 3.73419 67.8478 3.74197 67.8363C3.75753 67.8133 3.78326 67.7757 3.81933 67.7239C3.89148 67.6203 4.00496 67.4602 4.16111 67.2484C4.47343 66.8247 4.95632 66.1939 5.62039 65.3934C6.94859 63.7922 9.00099 61.5126 11.8623 58.8523C17.5837 53.5329 26.5421 46.6892 39.4206 40.7028L37.7345 37.0756C24.4369 43.2568 15.1342 50.3486 9.13867 55.9228C6.14149 58.7094 3.9714 61.1161 2.54175 62.8396C1.82689 63.7013 1.29701 64.3924 0.941285 64.875C0.763415 65.1164 0.629063 65.3056 0.536874 65.4379C0.490779 65.5041 0.455222 65.5561 0.430035 65.5933C0.417442 65.6119 0.40744 65.6268 0.400009 65.6379C0.396294 65.6435 0.393221 65.6481 0.390788 65.6518C0.389572 65.6536 0.388515 65.6552 0.387619 65.6566C0.387171 65.6572 0.386617 65.6581 0.386393 65.6584C0.385881 65.6592 0.385407 65.6599 2.05552 66.7602ZM39.4206 40.7028C42.5748 39.2367 44.7154 38.7571 46.1499 38.7924C47.461 38.8247 48.193 39.2797 48.7328 39.9541C49.3601 40.7377 49.8293 41.9559 50.2028 43.6617C50.576 45.3664 50.7933 47.2291 51.1017 49.289C51.3984 51.2712 51.7759 53.3945 52.4834 55.2912C53.1966 57.2031 54.3044 59.0492 56.1666 60.3023C59.9234 62.83 65.6182 62.2697 74.0923 58.3582L72.416 54.7264C64.0204 58.6016 60.2178 58.207 58.3997 56.9836C57.4745 56.361 56.7754 55.3523 56.2312 53.8932C55.6812 52.4189 55.3507 50.6549 55.0576 48.6968C54.7761 46.8163 54.5217 44.6853 54.1102 42.8061C53.699 40.928 53.0704 38.9721 51.8556 37.4545C50.5534 35.8276 48.6991 34.854 46.2484 34.7937C43.921 34.7363 41.1243 35.4998 37.7345 37.0756L39.4206 40.7028Z" fill="white"/>
</svg>
