<svg width="1919" height="1146" viewBox="0 0 1919 1146" fill="none" xmlns="http://www.w3.org/2000/svg">
<g clip-path="url(#clip0_2066_3565)">
<path d="M725 1043.37C725 1043.37 772.126 1023.98 798.587 1006.62C832.817 984.167 863.047 932.618 874.456 937.585C885.865 942.552 982.382 954.202 1041.6 984.27C1083.46 1005.53 1138 1052.31 1138 1052.31L772.917 1061.25L725 1043.37Z" fill="url(#paint0_linear_2066_3565)"/>
<path d="M1425 1036.25L1497.5 1010.75L1563 971.25L1709.5 1018.25L1926 1056.25L1856.5 1095.75H1474L1425 1036.25Z" fill="url(#paint1_linear_2066_3565)"/>
<path d="M5622 17.4993C3846.49 17.0111 1158.5 -44.5006 1089 65.9997C1089 65.9997 1051.5 104.25 1045.5 143.75C1039.5 183.25 1064.47 231.25 1066.45 260.75C1068.44 290.25 1044.14 323.75 988.116 370.75C932.09 417.75 881.518 407.75 842.35 490.25C803.181 572.75 846.812 620.25 881.519 652.75C916.225 685.25 910.771 741.75 881.519 772.25C852.266 802.75 806.651 779.49 717.902 791.75C629.153 804.01 589.917 827.5 580 832C570.084 836.5 540.5 858.5 540.5 858.5C540.5 858.5 560.5 851.5 574 848.5C587.5 845.5 625.682 842.75 656.422 842.75C687.162 842.75 765.5 861.25 806.651 891.75C847.803 922.25 890.938 918.25 949.443 902.75C1007.95 887.25 1094.22 836.75 1137.85 830.75C1181.48 824.75 1218.67 825.98 1317.83 821.25C1416.99 816.52 1616.3 656.25 1651.5 638.25C1686.7 620.25 1728.35 609.25 1769 610.25C1809.66 611.25 2026.82 689.75 2097.72 698.25C2168.62 706.75 2228.61 683.75 2320.34 703.25C2412.06 722.75 2653.52 911.75 2806.23 930.75C2958.94 949.75 3285.67 876.334 3391.28 914.25C3496.89 952.166 3481.52 1010.25 3551.92 1038.25C3622.32 1066.25 3836.5 1141 3836.5 1141L4810.5 1139C4810.5 1139 4893.41 1117.97 4948.99 1089.75C5065.48 1030.62 5169.61 1092.76 5247.99 988.25C5303.49 914.25 5333.99 758.75 5387.49 705.25C5426.5 666.242 5503.98 600.262 5635.49 508.25C5767 416.238 5763.5 117 5755.5 67.2498C5747.5 17.4993 5700.5 17.4993 5622 17.4993Z" fill="#221737"/>
<path d="M920.667 1026.71L913.636 985.129L905.483 1024.31L902.822 1001.83L900.747 1031.42L897.606 1000.11L894.441 1034.91L887.242 1034.62L884.979 1011.36L882.967 1034.63L879.55 995.683L874.973 1038.52L873.294 1016.41L872.272 1039.15L868.706 1010.44L865.182 1040.83L859.442 1042.19L857.411 1018.39L855.276 1044.17L852.206 1017.31L849.427 1043.56L846.204 1009.45L841.951 1047.96L830.908 1049.73L829.346 1038.1L827.451 1049.88L825.623 1043.46L823.989 1049.7L823.342 1052.65L841.429 1050.44L929.213 1029.67L924.525 995.704L920.667 1026.71Z" fill="url(#paint2_linear_2066_3565)" fill-opacity="0.5"/>
<path d="M1666.5 1069.25L1653.5 1017.25L1647.5 1046.25L1645 1030.25L1644 1043.75L1642 1025.25L1637 1069.25L1631.5 1018.75L1627 1072.25L1617 1069.25L1614 1017.25L1610 1053.25L1605 1005.25L1598.5 1049.75L1597.5 1036.25L1594.5 1070.75L1590 1025.25L1584 1070.75H1575.5L1571.5 1023.75L1568 1042.75L1566 1030.25L1561 1069.25L1556.5 1015.25L1547.5 1076.75H1677.5L1671 1025.25L1666.5 1069.25Z" fill="url(#paint3_linear_2066_3565)" fill-opacity="0.5"/>
<path d="M0 962.249C0 962.249 72.952 989.249 159.976 989.249C247 989.249 328.354 962.249 336.927 962.249C345.5 962.249 632.51 1031.25 643.505 1032.25C654.5 1033.25 703 1007.75 706 1010.25C709 1012.75 813 1042.25 858.5 1037.25C904 1032.25 999.5 968.249 999.5 968.249C999.5 968.249 1133 996.749 1160 998.249C1187 999.749 1302 970.749 1328.5 972.749C1355 974.749 1552.5 1029.75 1615.5 1041.25C1678.5 1052.75 1865.5 1055.25 1901.5 1052.75C1937.5 1050.25 2217.5 967.249 2247.5 967.749C2277.5 968.249 2480.5 1054.75 2543.5 1063.75C2606.5 1072.75 3130 1092.75 3130 1092.75L3824.5 1074.75C3824.5 1074.75 3947 1056.75 4031 1035.25C4115 1013.75 4235 952.25 4296 952.249C4357 952.249 4750.5 1072.75 4770.5 1072.75C4790.5 1072.75 4830 1048.25 4849 1049.75C4868 1051.25 4896.5 1084.75 4919.5 1084.75C4942.5 1084.75 5175.5 978.249 5175.5 978.249C5175.5 978.249 5253 1040.25 5358 1024.75C5463 1009.25 5561 925.749 5597 929.249C5633 932.749 5760 962.249 5760 962.249V1137.25H0V962.249Z" fill="url(#paint4_linear_2066_3565)"/>
<path d="M510.501 1080.25L517.901 1029.25L527.001 1089.25L532.501 1062.25L536.143 1090.62L538.406 1067.36L540.418 1090.63L549.5 1044.75L551.5 1092.25L556.5 1039.25L564.5 1085.75L568.5 1045.75L575.5 1099.84L577.181 1065.45L581.434 1103.96L561.5 1099.25L541.5 1093.75L500 1081.25L504.001 1055.25L510.501 1080.25Z" fill="url(#paint5_linear_2066_3565)" fill-opacity="0.5"/>
<path d="M690.377 1121.95L693.498 1095.66L698.5 1127.92L707.321 1074.45L713.5 1127.48H718L728.725 1035.25L738.5 1127.48H741.21L747.452 1084.13L755.479 1128.41L757.262 1113.65L758.6 1128.41L763.059 1126.1L772.423 1062.92L776.882 1098.43L784.016 1052.31L792.934 1112.73L800.961 1061.54L809.5 1130.25L677 1127.48L684.58 1078.6L690.377 1121.95Z" fill="url(#paint6_linear_2066_3565)"/>
<path d="M1120 1067.75L1130.5 997.75L1140.5 1058.75L1144.5 1026.75L1149.5 1067.75L1155 1020.75L1159.5 1070.75L1169.5 1067.75L1174.5 1030.75L1175.5 1066.25L1181.5 1003.75L1188 1069.25L1190.5 1035.25L1192 1069.25L1196.5 1023.75L1202.5 1069.25H1211L1215 1032.75L1217.5 1070.75L1220.5 1028.75L1225.5 1067.75L1230 1013.75L1239 1075.25H1109L1116.5 1017.25L1120 1067.75Z" fill="url(#paint7_linear_2066_3565)"/>
<path d="M1753.76 1063.23L1763 998.75L1775.65 1058.54L1779 1023.75L1782.66 1069.17L1786.5 1020.75L1791.85 1074.12L1802.25 1073.2L1805 1037.25L1808.42 1072.94L1812.5 1012.75L1820.06 1078.39L1822 1044.25L1823.98 1079.2L1828.5 1034.75L1834.27 1081.31L1842.59 1083.03L1845 1046.25L1848.66 1085.8L1852.5 1044.25L1857.1 1084.48L1861 1031.75L1868 1090.75L1884 1092.75L1886 1074.75L1889 1092.75L1891.5 1082.75L1894 1092.25L1895 1096.75L1868.81 1094.54L1741.47 1068.36L1747.5 1015.75L1753.76 1063.23Z" fill="url(#paint8_linear_2066_3565)"/>
<path d="M1906.1 1087.92C1838.52 1100.96 1689.5 1026.25 1689.5 1026.25C1689.5 1026.25 1637.4 1058.49 1612 1059.75C1586.6 1061.01 1371.5 1036.26 1273.71 1038.58C1175.92 1040.9 860.5 1136.26 722.233 1123.8C583.967 1111.34 523 1088.76 433.34 1057.02C343.68 1025.28 284.5 992.732 244.219 985.257C203.938 977.782 0 992.732 0 992.732V1147L5760 1146V992.25C5760 992.25 5671.5 988.53 5615 992.25C5481.8 1001.02 5281.5 1067.25 5281.5 1067.25C5281.5 1067.25 5034.91 1151.93 4885 1109.75C4776.78 1079.3 4675 965.25 4639 960.25C4603 955.25 4566.23 986.8 4522.5 973.25C4487.51 962.406 4446.5 918.25 4446.5 918.25C4446.5 918.25 4305 1076.75 4289.5 1075.25C4274 1073.75 4237 1058.25 4217.5 1058.25C4198 1058.25 4064 1102.75 4014 1098.75C3964 1094.75 3840 988.757 3840 988.757C3840 988.757 3712 1030.75 3682.15 1032.26C3652.3 1033.76 3611.67 1017.76 3611.67 1017.76C3611.67 1017.76 3468.26 1053.1 3374.4 1059.26C3236.26 1068.32 3021.47 1026.26 3021.47 1026.26L2840.29 1073.76C2840.29 1073.76 2502.56 1120.39 2464.53 1118.76C2426.5 1117.13 2418 1118.01 2302 1067.25C2186 1016.5 2022.5 974.75 2022.5 974.75C2022.5 974.75 1921 1085.04 1906.1 1087.92Z" fill="url(#paint9_linear_2066_3565)"/>
<path d="M413.913 916.743L503.05 865.885L512.593 882.077L421.793 931.127L413.913 916.743Z" fill="url(#paint10_linear_2066_3565)"/>
<rect x="520.032" y="852.032" width="26.6145" height="23.0009" transform="rotate(58.8042 520.032 852.032)" fill="url(#paint11_linear_2066_3565)"/>
<rect x="415.019" y="917.516" width="14.4664" height="12.7499" transform="rotate(60.9879 415.019 917.516)" fill="url(#paint12_linear_2066_3565)"/>
<rect x="406.35" y="927.804" width="7.18387" height="38.817" transform="rotate(60.9879 406.35 927.804)" fill="url(#paint13_linear_2066_3565)"/>
<circle cx="455.917" cy="917.774" r="7.5" fill="#221737"/>
<circle cx="455.917" cy="917.774" r="4.5" fill="url(#paint14_linear_2066_3565)"/>
<line x1="555.502" y1="1099.68" x2="485.502" y2="940.677" stroke="url(#paint15_linear_2066_3565)" stroke-width="2"/>
<line x1="469.419" y1="1105.21" x2="479.419" y2="943.213" stroke="url(#paint16_linear_2066_3565)" stroke-width="2"/>
<line x1="411.523" y1="1068.83" x2="474.523" y2="942.827" stroke="url(#paint17_linear_2066_3565)" stroke-width="2"/>
<rect x="464.417" y="933.274" width="27" height="10" fill="#221737"/>
<rect x="458.663" y="923.912" width="5" height="17.0002" transform="rotate(-38.5742 458.663 923.912)" fill="#221737"/>
<rect x="481.417" y="936.274" width="7" height="3" fill="#D9D9D9"/>
<path d="M432 1056.5L507.5 1082.98L561 1098C561 1098 514.566 1101.96 490 1111.48C470.53 1119.03 443 1134.73 443 1134.73L324.5 1124.98C324.5 1124.98 352.68 1098.28 373.5 1084.98C394.699 1071.45 432 1056.5 432 1056.5Z" fill="url(#paint18_linear_2066_3565)"/>
<path d="M327 1054L429 1072C429 1072 396.066 1086.48 371.5 1096C352.03 1103.55 324.5 1121.5 324.5 1121.5L185 1094.48C185 1094.48 238.124 1072.32 262 1065.98C286.5 1059.48 327 1054 327 1054Z" fill="url(#paint19_linear_2066_3565)"/>
<path d="M292.098 1059.8L301.456 1043.98L305.274 1052.79C305.274 1052.79 295.96 1066.54 295.084 1066.57C294.208 1066.6 283.818 1066.91 283.224 1065.68C282.63 1064.45 287.684 1063.67 287.684 1063.67L284.853 1063.13C284.853 1063.13 277.028 1065.87 274.775 1065.94C272.522 1066 272.507 1065.38 272.507 1065.38C272.507 1065.38 279.691 1059.55 281.928 1058.86C284.166 1058.16 292.098 1059.8 292.098 1059.8Z" fill="#FF8C8C"/>
<path d="M341.495 951.486C342.194 949.958 340.146 943.384 343.813 941.295C345.551 940.304 347.591 940.533 349.363 939.62C351.188 938.68 351.308 936.862 353.297 936.555C357.535 935.902 355.508 938.692 357.233 939.227C357.982 939.459 359.836 935.932 362.58 935.944C366.149 935.96 368.91 939.07 369.242 943.113C369.539 946.721 367.21 946.991 367.932 949.871C368.53 952.255 370.758 949.436 370.658 954.368C370.559 959.301 362.688 959.694 362.688 959.694C362.688 959.694 341.184 974.517 340.994 964.676C340.956 962.672 342.5 961.479 341.8 959.635C341.174 957.984 339.676 958.482 339.275 956.746C338.36 952.789 340.674 953.28 341.495 951.486Z" fill="#221737"/>
<path d="M347.568 950.807C347.568 950.807 354.16 944.779 357.65 944.711C361.14 944.643 368.007 954.473 366.779 962.228C365.552 969.982 357.223 969.753 357.223 969.753L355.686 976.799L361.593 982.124C361.593 982.124 357.232 985.254 352.013 985.243C345.626 985.228 341.871 978.382 341.871 978.382C341.871 978.382 346.64 975.57 347.198 967.162C347.756 958.754 347.198 960.706 347.198 960.706C347.198 960.706 344.027 961.188 344.772 954.264C344.929 952.798 347.849 953.033 347.849 953.033L347.568 950.807Z" fill="#FF8C8C"/>
<path d="M401.23 1062.23L416 1062.23C416 1062.23 424.084 1066.8 427.777 1067.98C431.47 1069.16 430.8 1073.54 430.8 1073.54L401.406 1074.07L401.23 1062.23Z" fill="url(#paint20_linear_2066_3565)"/>
<path d="M319.847 989.343C323.933 985.141 342.222 977.772 342.222 977.772C342.222 977.772 347.624 984.199 352.151 984.416C355.99 984.601 361.305 980.42 361.305 980.42C361.305 980.42 377.805 992.949 381.896 1005.6C385.987 1018.24 383.445 1026.88 383.445 1026.88L364.138 1047.93C364.138 1047.93 320.182 1047.19 319.111 1045.48C318.039 1043.77 318.754 1039.22 318.754 1039.22C318.754 1039.22 316.188 1048.48 310.934 1053.89C305.68 1059.29 300.072 1043.48 300.072 1043.48C300.072 1043.48 304.435 1036.24 306.639 1030.26C308.842 1024.29 315.76 993.545 319.847 989.343Z" fill="#2C1973"/>
<path d="M328.551 998.58C328.551 998.58 326.928 1013.97 323.74 1025.07C320.552 1036.18 318.132 1041.07 318.132 1041.07" stroke="#8680E5"/>
<path d="M322.894 994.041C322.894 994.041 323.575 994.402 324.73 996.253C325.884 998.103 326.476 999.963 326.476 999.963" stroke="#8680E5"/>
<path d="M372.782 991.495C372.782 991.495 370.989 994.543 370.741 1002.02C370.493 1009.5 372.079 1012.68 372.079 1012.68" stroke="#8680E5"/>
<path d="M390.175 1076.77L401.949 1071.19C401.949 1071.19 404.862 1074.34 407.388 1075.68C411.011 1077.6 416.787 1072.9 419.933 1076.99C423.079 1081.07 394.321 1089.44 394.321 1089.44L390.175 1076.77Z" fill="url(#paint21_linear_2066_3565)"/>
<path d="M324.348 1046.16L337.88 1046.53C337.88 1046.53 368.349 1011.05 375.064 1007.81C381.778 1004.57 382.37 1006.43 384.642 1007.64C386.914 1008.84 390.978 1016.88 390.978 1016.88C390.978 1016.88 411.564 998.956 415.689 998.343C419.813 997.729 422.45 997.719 426.269 1002.51C430.088 1007.31 416.444 1061.95 416.444 1061.95L407.993 1062.1L410.329 1067.67L387.941 1078.06L381.438 1057.59C381.438 1057.59 364.12 1067.89 351.208 1071.24C338.296 1074.59 329.198 1069.15 326.289 1062.96C323.379 1056.78 324.348 1046.16 324.348 1046.16Z" fill="url(#paint22_linear_2066_3565)"/>
<path d="M391.532 1016.24L409.726 1067.46" stroke="#221737"/>
<path d="M375.249 1020.8C375.249 1020.8 374.375 1032.38 375.528 1039.61C376.732 1047.16 381.438 1058.11 381.438 1058.11" stroke="#221737"/>
<path d="M363.637 1065.65C363.637 1065.65 368.328 1061.21 370.733 1057.79C373.781 1053.45 376.862 1045.45 376.862 1045.45" stroke="#221737"/>
<path d="M331.944 1057.51L339.532 1044.01" stroke="#221737"/>
<path d="M412.279 1011.72C412.279 1011.72 407.833 1020.55 405.775 1026.59C403.483 1033.31 401.492 1044.35 401.492 1044.35" stroke="#221737"/>
<path d="M351.647 965.074C351.647 965.074 352.809 967.14 353.795 968.231C354.781 969.322 357 970.217 357 970.217" stroke="#D15B5B"/>
<path d="M362 953.616C362 953.616 362.031 954.565 362.703 955.917C363.375 957.269 365.28 958.814 365.28 958.814" stroke="#D15B5B"/>
<path d="M353.174 957.053C353.174 957.053 354.097 957.27 355.578 956.975C357.06 956.68 359.05 955.248 359.05 955.248" stroke="#D15B5B"/>
<path d="M363.576 953.389C363.576 953.389 363.44 953.594 363.078 953.802C362.717 954.011 361.999 954.1 361.999 954.1" stroke="#D15B5B"/>
<line y1="-0.5" x2="6.33732" y2="-0.5" transform="matrix(0.192411 0.980719 -0.973 0.233835 406.171 1015.35)" stroke="#221737"/>
<path d="M346.947 947.169L349.788 943.737C349.788 943.737 353.793 945.169 353.473 947.474C353.234 949.203 352.168 950.49 350.633 950.906C349.488 951.215 348.648 950.997 347.843 950.181C347.038 949.365 346.947 947.169 346.947 947.169Z" fill="#221737"/>
<circle cx="1816.5" cy="418.75" r="3.5" fill="#CCC3E0"/>
<circle cx="1536.09" cy="548.342" r="4.39923" transform="rotate(146.718 1536.09 548.342)" fill="#CCC3E0"/>
<circle cx="1729.5" cy="399.75" r="7.5" fill="#CCC3E0"/>
<circle cx="1237.09" cy="744.342" r="4.39923" transform="rotate(146.718 1237.09 744.342)" fill="#CCC3E0"/>
<circle cx="1889.5" cy="91.75" r="6.5" fill="#CCC3E0"/>
<circle cx="1718.5" cy="168.75" r="3.5" fill="#CCC3E0"/>
<circle cx="1916.5" cy="119.75" r="3.5" fill="#CCC3E0"/>
<circle cx="1644.5" cy="289.75" r="3.5" fill="#CCC3E0"/>
<circle cx="1518.5" cy="675.75" r="3.5" fill="#CCC3E0"/>
<circle cx="1242.67" cy="418.263" r="3.5" transform="rotate(146.718 1242.67 418.263)" fill="#CCC3E0"/>
<circle cx="1711.5" cy="262.75" r="2.5" fill="#CCC3E0"/>
<circle cx="1324.67" cy="256.671" r="1.18427" transform="rotate(48.7815 1324.67 256.671)" fill="#CCC3E0"/>
<circle cx="1614.67" cy="374.671" r="1.18427" transform="rotate(48.7815 1614.67 374.671)" fill="#CCC3E0"/>
<circle cx="1261.67" cy="457.671" r="1.18427" transform="rotate(48.7815 1261.67 457.671)" fill="#CCC3E0"/>
<circle cx="1147.67" cy="115.671" r="1.18427" transform="rotate(48.7815 1147.67 115.671)" fill="#CCC3E0"/>
<circle cx="1294.67" cy="180.671" r="1.18427" transform="rotate(48.7815 1294.67 180.671)" fill="#CCC3E0"/>
<circle cx="985.671" cy="521.671" r="1.18427" transform="rotate(48.7815 985.671 521.671)" fill="#CCC3E0"/>
<circle cx="1172.67" cy="569.671" r="1.18427" transform="rotate(48.7815 1172.67 569.671)" fill="#CCC3E0"/>
<circle cx="1441.67" cy="627.671" r="1.18427" transform="rotate(48.7815 1441.67 627.671)" fill="#CCC3E0"/>
<circle cx="1044.67" cy="768.671" r="1.18427" transform="rotate(48.7815 1044.67 768.671)" fill="#CCC3E0"/>
<circle cx="925.671" cy="866.671" r="1.18427" transform="rotate(48.7815 925.671 866.671)" fill="#CCC3E0"/>
<circle cx="958.671" cy="781.671" r="1.18427" transform="rotate(48.7815 958.671 781.671)" fill="#CCC3E0"/>
<circle cx="1664.67" cy="76.6712" r="1.18427" transform="rotate(48.7815 1664.67 76.6712)" fill="#CCC3E0"/>
<circle cx="1895.67" cy="231.671" r="1.18427" transform="rotate(48.7815 1895.67 231.671)" fill="#CCC3E0"/>
<circle cx="1623.43" cy="434.477" r="3.14779" transform="rotate(-83.6442 1623.43 434.477)" fill="#CCC3E0"/>
<circle cx="1679.24" cy="595.031" r="3.14779" transform="rotate(-83.6442 1679.24 595.031)" fill="#CCC3E0"/>
<circle cx="1715.95" cy="461.454" r="1.62226" transform="rotate(-83.6442 1715.95 461.454)" fill="#CCC3E0"/>
<circle cx="1574.79" cy="459.579" r="1.62226" transform="rotate(-83.6442 1574.79 459.579)" fill="#CCC3E0"/>
<circle cx="1613.93" cy="451.642" r="1.62226" transform="rotate(-83.6442 1613.93 451.642)" fill="#CCC3E0"/>
<circle cx="1698.05" cy="586.32" r="1.62226" transform="rotate(-83.6442 1698.05 586.32)" fill="#CCC3E0"/>
<circle cx="1824.67" cy="343.671" r="1.18427" transform="rotate(48.7815 1824.67 343.671)" fill="#CCC3E0"/>
<circle cx="1080.5" cy="791.75" r="2.5" fill="#CCC3E0"/>
<circle cx="1685" cy="471.25" r="3" fill="#CCC3E0"/>
<circle cx="1368" cy="260.25" r="2" fill="#CCC3E0"/>
<circle cx="1139.46" cy="101.712" r="2.5" transform="rotate(146.718 1139.46 101.712)" fill="#CCC3E0"/>
<circle cx="1017" cy="536.25" r="3" fill="#CCC3E0"/>
<circle cx="1042.5" cy="398.75" r="1.5" fill="#CCC3E0"/>
<circle cx="1109.21" cy="288.756" r="3" transform="rotate(146.718 1109.21 288.756)" fill="#CCC3E0"/>
<circle cx="1440" cy="179.25" r="3" fill="#CCC3E0"/>
<circle cx="1352.56" cy="274.96" r="3" transform="rotate(146.718 1352.56 274.96)" fill="#CCC3E0"/>
</g>
<defs>
<linearGradient id="paint0_linear_2066_3565" x1="931.5" y1="881.961" x2="931.5" y2="1061.25" gradientUnits="userSpaceOnUse">
<stop stop-color="#8680E5" stop-opacity="0.41"/>
<stop offset="0.789681" stop-color="#FFBAE3"/>
</linearGradient>
<linearGradient id="paint1_linear_2066_3565" x1="1675.5" y1="971.25" x2="1675.5" y2="1095.75" gradientUnits="userSpaceOnUse">
<stop stop-color="#8680E5" stop-opacity="0.41"/>
<stop offset="0.575" stop-color="#FFBAE3"/>
</linearGradient>
<linearGradient id="paint2_linear_2066_3565" x1="874.204" y1="1002.12" x2="884.634" y2="1046.21" gradientUnits="userSpaceOnUse">
<stop stop-color="#2C1973"/>
<stop offset="0.795" stop-color="#6747B2"/>
</linearGradient>
<linearGradient id="paint3_linear_2066_3565" x1="1610" y1="1014.75" x2="1610" y2="1084.75" gradientUnits="userSpaceOnUse">
<stop stop-color="#2C1973"/>
<stop offset="0.795" stop-color="#6747B2"/>
</linearGradient>
<linearGradient id="paint4_linear_2066_3565" x1="2880" y1="848.749" x2="2880" y2="1493.75" gradientUnits="userSpaceOnUse">
<stop offset="0.24" stop-color="#8680E5"/>
<stop offset="0.605" stop-color="#E3ADE4"/>
<stop offset="0.65" stop-color="#FFA87C"/>
</linearGradient>
<linearGradient id="paint5_linear_2066_3565" x1="549.181" y1="1058.12" x2="538.75" y2="1102.21" gradientUnits="userSpaceOnUse">
<stop stop-color="#2C1973"/>
<stop offset="0.795" stop-color="#6747B2"/>
</linearGradient>
<linearGradient id="paint6_linear_2066_3565" x1="747.898" y1="1073.99" x2="747.898" y2="1138.55" gradientUnits="userSpaceOnUse">
<stop stop-color="#2C1973"/>
<stop offset="0.795" stop-color="#6747B2"/>
</linearGradient>
<linearGradient id="paint7_linear_2066_3565" x1="1177" y1="1014.25" x2="1177" y2="1084.25" gradientUnits="userSpaceOnUse">
<stop stop-color="#2C1973"/>
<stop offset="0.795" stop-color="#6747B2"/>
</linearGradient>
<linearGradient id="paint8_linear_2066_3565" x1="1820.37" y1="1022.3" x2="1806.27" y2="1090.87" gradientUnits="userSpaceOnUse">
<stop stop-color="#2C1973"/>
<stop offset="0.795" stop-color="#6747B2"/>
</linearGradient>
<linearGradient id="paint9_linear_2066_3565" x1="3033.5" y1="845.75" x2="3038.5" y2="1665.75" gradientUnits="userSpaceOnUse">
<stop offset="0.205" stop-color="#4B3EAA"/>
<stop offset="1" stop-color="#FFA87C"/>
</linearGradient>
<linearGradient id="paint10_linear_2066_3565" x1="466.567" y1="891.322" x2="472.971" y2="903.619" gradientUnits="userSpaceOnUse">
<stop stop-color="#E1E1E1"/>
<stop offset="1" stop-color="#978E9E"/>
</linearGradient>
<linearGradient id="paint11_linear_2066_3565" x1="520.032" y1="863.533" x2="546.264" y2="863.579" gradientUnits="userSpaceOnUse">
<stop stop-color="#8680E5"/>
<stop offset="0.44" stop-color="#4B3EAA"/>
</linearGradient>
<linearGradient id="paint12_linear_2066_3565" x1="415.019" y1="923.891" x2="429.485" y2="923.891" gradientUnits="userSpaceOnUse">
<stop stop-color="#61429D"/>
<stop offset="1" stop-color="#221737"/>
</linearGradient>
<linearGradient id="paint13_linear_2066_3565" x1="406.35" y1="947.212" x2="413.533" y2="947.212" gradientUnits="userSpaceOnUse">
<stop stop-color="#61429D"/>
<stop offset="1" stop-color="#221737"/>
</linearGradient>
<linearGradient id="paint14_linear_2066_3565" x1="455.917" y1="913.274" x2="458.417" y2="921.774" gradientUnits="userSpaceOnUse">
<stop stop-color="#978E9E"/>
<stop offset="1" stop-color="#E1E1E1"/>
</linearGradient>
<linearGradient id="paint15_linear_2066_3565" x1="486.875" y1="940.073" x2="556.875" y2="1099.07" gradientUnits="userSpaceOnUse">
<stop stop-color="#61429D"/>
<stop offset="1" stop-color="#221737"/>
</linearGradient>
<linearGradient id="paint16_linear_2066_3565" x1="480.916" y1="943.305" x2="470.916" y2="1105.31" gradientUnits="userSpaceOnUse">
<stop stop-color="#61429D"/>
<stop offset="1" stop-color="#221737"/>
</linearGradient>
<linearGradient id="paint17_linear_2066_3565" x1="475.864" y1="943.498" x2="412.864" y2="1069.5" gradientUnits="userSpaceOnUse">
<stop stop-color="#61429D"/>
<stop offset="1" stop-color="#221737"/>
</linearGradient>
<linearGradient id="paint18_linear_2066_3565" x1="464.5" y1="1020.98" x2="428" y2="1136.98" gradientUnits="userSpaceOnUse">
<stop stop-color="#221737"/>
<stop offset="1" stop-color="#4B3EAA" stop-opacity="0"/>
</linearGradient>
<linearGradient id="paint19_linear_2066_3565" x1="346" y1="1005.5" x2="309.5" y2="1121.5" gradientUnits="userSpaceOnUse">
<stop stop-color="#221737"/>
<stop offset="1" stop-color="#4B3EAA" stop-opacity="0"/>
</linearGradient>
<linearGradient id="paint20_linear_2066_3565" x1="415.957" y1="1061.96" x2="416.173" y2="1073.8" gradientUnits="userSpaceOnUse">
<stop stop-color="#8680E5"/>
<stop offset="1" stop-color="#4B3EAA"/>
</linearGradient>
<linearGradient id="paint21_linear_2066_3565" x1="404.686" y1="1070.93" x2="406.343" y2="1088.3" gradientUnits="userSpaceOnUse">
<stop stop-color="#8680E5"/>
<stop offset="1" stop-color="#4B3EAA"/>
</linearGradient>
<linearGradient id="paint22_linear_2066_3565" x1="376.308" y1="884.748" x2="376.954" y2="1078.27" gradientUnits="userSpaceOnUse">
<stop stop-color="#FFA87C"/>
<stop offset="0.84" stop-color="#3B2F99"/>
<stop offset="1" stop-color="#2C1973"/>
</linearGradient>
<clipPath id="clip0_2066_3565">
<rect width="1919" height="1146" fill="white"/>
</clipPath>
</defs>
</svg>
