<svg width="1919" height="1146" viewBox="0 0 1919 1146" fill="none" xmlns="http://www.w3.org/2000/svg">
<g clip-path="url(#clip0_2066_3566)">
<path d="M-494 1036.25L-421.5 1010.75L-356 971.25L-209.5 1018.25L7 1056.25L-62.5 1095.75H-445L-494 1036.25Z" fill="url(#paint0_linear_2066_3566)"/>
<path d="M656 1083.29C656 1083.29 701.354 1074.76 728.5 1066.17C755.517 1057.61 766.881 1048.05 794 1039.64C925.581 998.839 1162 1071.88 1162 1071.88L1157 1096.72L1087.5 1123.25H705L656 1083.29Z" fill="url(#paint1_linear_2066_3566)"/>
<path d="M3703 17.4993C1927.49 17.0111 -760.5 -44.5006 -830.001 65.9997C-830.001 65.9997 -867.5 104.25 -873.5 143.75C-879.5 183.25 -854.53 231.25 -852.546 260.75C-850.563 290.25 -874.858 323.75 -930.884 370.75C-986.91 417.75 -1037.48 407.75 -1076.65 490.25C-1115.82 572.75 -1072.19 620.25 -1037.48 652.75C-1002.77 685.25 -1008.23 741.75 -1037.48 772.25C-1066.73 802.75 -1112.35 779.49 -1201.1 791.75C-1289.85 804.01 -1329.08 827.5 -1339 832C-1348.92 836.5 -1378.5 858.5 -1378.5 858.5C-1378.5 858.5 -1358.5 851.5 -1345 848.5C-1331.5 845.5 -1293.32 842.75 -1262.58 842.75C-1231.84 842.75 -1153.5 861.25 -1112.35 891.75C-1071.2 922.25 -1028.06 918.25 -969.557 902.75C-911.052 887.25 -824.781 836.75 -781.15 830.75C-737.519 824.75 -700.333 825.98 -601.172 821.25C-502.011 816.52 -302.702 656.25 -267.5 638.25C-232.298 620.25 -190.653 609.25 -149.997 610.25C-109.341 611.25 107.822 689.75 178.722 698.25C249.622 706.75 309.615 683.75 401.339 703.25C493.063 722.75 734.523 911.75 887.231 930.75C1039.94 949.75 1366.67 876.334 1472.28 914.25C1577.89 952.166 1562.52 1010.25 1632.92 1038.25C1703.32 1066.25 1917.5 1141 1917.5 1141L2891.5 1139C2891.5 1139 2974.41 1117.97 3029.99 1089.75C3146.48 1030.62 3250.61 1092.76 3328.99 988.25C3384.49 914.25 3414.99 758.75 3468.49 705.25C3507.5 666.242 3584.98 600.262 3716.49 508.25C3848 416.238 3844.5 117 3836.5 67.2498C3828.5 17.4993 3781.5 17.4993 3703 17.4993Z" fill="#221737"/>
<path d="M738.385 1090.75L727.654 1020.25L724.192 1081.75L721.423 1046.75L717.962 1090.75L713.115 1040.25L711.038 1093.75L704.115 1090.75L700.654 1053.75L699.962 1089.25L695.808 1026.75L691.308 1092.25L689.577 1058.25L688.538 1092.25L685.423 1046.75L681.269 1092.25H675.385L672.615 1055.75L670.885 1093.75L668.808 1051.75L665.346 1090.75L662.231 1036.75L656 1098.25H746L743.577 1041.75L738.385 1090.75Z" fill="url(#paint2_linear_2066_3566)" fill-opacity="0.5"/>
<path d="M-1919 962.249C-1919 962.249 -1846.05 989.249 -1759.02 989.249C-1672 989.249 -1590.65 962.249 -1582.07 962.249C-1573.5 962.249 -1286.49 1031.25 -1275.5 1032.25C-1264.5 1033.25 -1216 1007.75 -1213 1010.25C-1210 1012.75 -1106 1042.25 -1060.5 1037.25C-1015 1032.25 -919.5 968.249 -919.5 968.249C-919.5 968.249 -786 996.749 -759 998.249C-732 999.749 -617 970.749 -590.5 972.749C-564 974.749 -366.5 1029.75 -303.5 1041.25C-240.5 1052.75 -53.5 1055.25 -17.5 1052.75C18.5 1050.25 298.5 967.249 328.5 967.749C358.5 968.249 561.5 1054.75 624.5 1063.75C687.5 1072.75 1211 1092.75 1211 1092.75L1905.5 1074.75C1905.5 1074.75 2028 1056.75 2112 1035.25C2196 1013.75 2316 952.25 2377 952.249C2438 952.249 2831.5 1072.75 2851.5 1072.75C2871.5 1072.75 2911 1048.25 2930 1049.75C2949 1051.25 2977.5 1084.75 3000.5 1084.75C3023.5 1084.75 3256.5 978.249 3256.5 978.249C3256.5 978.249 3334 1040.25 3439 1024.75C3544 1009.25 3642 925.749 3678 929.249C3714 932.749 3841 962.249 3841 962.249V1137.25H-1919V962.249Z" fill="url(#paint3_linear_2066_3566)"/>
<path d="M1525.7 1058.75L1514.28 988.25L1510.59 1049.75L1507.64 1014.75L1503.96 1058.75L1498.8 1008.25L1496.59 1061.75L1489.22 1058.75L1485.53 1021.75L1484.8 1057.25L1480.38 994.75L1475.59 1060.25L1472.64 1031.75L1472.64 1060.25L1469 1019.75L1464.9 1060.25H1458.64L1455.5 1029.25L1453.84 1061.75L1451.5 1021.75L1447.95 1058.75L1443 1011.25L1437.5 1065.75H1419L1417 1046.25L1415 1065.75L1413 1054.25L1412 1066.25H1404.5L1402.5 1051.25L1401 1067.25L1537 1066.25L1531.23 1009.75L1525.7 1058.75Z" fill="url(#paint4_linear_2066_3566)"/>
<path d="M1875.7 1011.75L1864.28 941.25L1860.59 1002.75L1857.64 967.75L1853.96 1011.75L1848.8 961.25L1846.59 1014.75L1842 1020.75L1839.5 1018.25L1836 983.25L1834.5 1012.75L1830.5 967.75L1826 1022.75L1822.64 984.75L1822 1024.75L1817 997.75L1811.5 1027.25L1808.5 1026.25L1805 1005.25L1803.5 1022.75L1800.5 991.25L1796.5 1031.75L1792 995.25L1786.5 1031.75L1774 1038.75L1771.5 1011.25L1770 1036.25L1768.5 1037.75L1767 1020.75L1765 1040.25L1767 1037.75L1769 1041.75L1776 1040.25L1887 1019.25L1881.23 962.75L1875.7 1011.75Z" fill="url(#paint5_linear_2066_3566)"/>
<path d="M-12.8989 1087.92C-80.481 1100.96 -229.5 1026.25 -229.5 1026.25C-229.5 1026.25 -281.599 1058.49 -307 1059.75C-332.401 1061.01 -547.5 1036.26 -645.288 1038.58C-743.075 1040.9 -1058.5 1136.26 -1196.77 1123.8C-1335.03 1111.34 -1396 1088.76 -1485.66 1057.02C-1575.32 1025.28 -1634.5 992.732 -1674.78 985.257C-1715.06 977.782 -1919 992.732 -1919 992.732V1147L3841 1146V992.25C3841 992.25 3752.5 988.53 3696 992.25C3562.8 1001.02 3362.5 1067.25 3362.5 1067.25C3362.5 1067.25 3115.91 1151.93 2966 1109.75C2857.78 1079.3 2756 965.25 2720 960.25C2684 955.25 2647.23 986.8 2603.5 973.25C2568.51 962.406 2527.5 918.25 2527.5 918.25C2527.5 918.25 2386 1076.75 2370.5 1075.25C2355 1073.75 2318 1058.25 2298.5 1058.25C2279 1058.25 2145 1102.75 2095 1098.75C2045 1094.75 1921 988.757 1921 988.757C1921 988.757 1793 1030.75 1763.15 1032.26C1733.3 1033.76 1692.67 1017.76 1692.67 1017.76C1692.67 1017.76 1549.26 1053.1 1455.4 1059.26C1317.26 1068.32 1102.47 1026.26 1102.47 1026.26L921.29 1073.76C921.29 1073.76 583.559 1120.39 545.529 1118.76C507.5 1117.13 499 1118.01 383 1067.25C267 1016.5 103.5 974.75 103.5 974.75C103.5 974.75 2 1085.04 -12.8989 1087.92Z" fill="url(#paint6_linear_2066_3566)"/>
<circle cx="251.571" cy="598.821" r="7.5" transform="rotate(49.6916 251.571 598.821)" fill="#CCC3E0"/>
<circle cx="735.5" cy="149.033" r="7.5" fill="#CCC3E0"/>
<circle cx="518.961" cy="119.638" r="7.5" transform="rotate(48.7815 518.961 119.638)" fill="#CCC3E0"/>
<circle cx="1635.58" cy="672.833" r="7.5" transform="rotate(48.7815 1635.58 672.833)" fill="#CCC3E0"/>
<circle cx="807.955" cy="136.342" r="4.39923" transform="rotate(146.718 807.955 136.342)" fill="#CCC3E0"/>
<circle cx="310.68" cy="206.999" r="2.88831" transform="rotate(146.718 310.68 206.999)" fill="#CCC3E0"/>
<circle cx="576.251" cy="165.777" r="4.39923" transform="rotate(-164.5 576.251 165.777)" fill="#CCC3E0"/>
<circle cx="10.5" cy="552.5" r="3.5" fill="#CCC3E0"/>
<circle cx="158.555" cy="226.325" r="2.88831" transform="rotate(-164.5 158.555 226.325)" fill="#CCC3E0"/>
<circle cx="198.415" cy="500.415" r="4.39923" transform="rotate(-164.5 198.415 500.415)" fill="#CCC3E0"/>
<circle cx="140.5" cy="229.75" r="3.5" fill="#CCC3E0"/>
<circle cx="-2.5" cy="119.75" r="3.5" fill="#CCC3E0"/>
<circle cx="159.933" cy="452.183" r="3.5" transform="rotate(49.6916 159.933 452.183)" fill="#CCC3E0"/>
<circle cx="134.243" cy="345.243" r="2.29792" transform="rotate(48.7815 134.243 345.243)" fill="#CCC3E0"/>
<circle cx="20.2427" cy="296.243" r="2.29792" transform="rotate(48.7815 20.2427 296.243)" fill="#CCC3E0"/>
<circle cx="74.1386" cy="381.814" r="1.18427" transform="rotate(48.7815 74.1386 381.814)" fill="#CCC3E0"/>
<circle cx="144.671" cy="306.671" r="1.18427" transform="rotate(48.7815 144.671 306.671)" fill="#CCC3E0"/>
<circle cx="129.671" cy="331.671" r="1.18427" transform="rotate(48.7815 129.671 331.671)" fill="#CCC3E0"/>
<circle cx="45.6708" cy="464.671" r="1.18427" transform="rotate(48.7815 45.6708 464.671)" fill="#CCC3E0"/>
<circle cx="292.671" cy="492.671" r="1.18427" transform="rotate(48.7815 292.671 492.671)" fill="#CCC3E0"/>
<circle cx="458.671" cy="571.671" r="1.18427" transform="rotate(48.7815 458.671 571.671)" fill="#CCC3E0"/>
<circle cx="524.671" cy="187.671" r="1.18427" transform="rotate(48.7815 524.671 187.671)" fill="#CCC3E0"/>
<circle cx="448.671" cy="101.671" r="1.18427" transform="rotate(48.7815 448.671 101.671)" fill="#CCC3E0"/>
<circle cx="368.671" cy="234.671" r="1.18427" transform="rotate(48.7815 368.671 234.671)" fill="#CCC3E0"/>
<circle cx="816.671" cy="158.671" r="1.18427" transform="rotate(48.7815 816.671 158.671)" fill="#CCC3E0"/>
<circle cx="603.671" cy="702.671" r="1.18427" transform="rotate(48.7815 603.671 702.671)" fill="#CCC3E0"/>
<circle cx="390.671" cy="476.671" r="1.18427" transform="rotate(48.7815 390.671 476.671)" fill="#CCC3E0"/>
<circle cx="799.671" cy="719.671" r="1.18427" transform="rotate(48.7815 799.671 719.671)" fill="#CCC3E0"/>
<circle cx="362.671" cy="655.671" r="1.18427" transform="rotate(48.7815 362.671 655.671)" fill="#CCC3E0"/>
<circle cx="64.6708" cy="610.671" r="1.18427" transform="rotate(48.7815 64.6708 610.671)" fill="#CCC3E0"/>
<circle cx="55.0297" cy="598.357" r="1.66096" transform="rotate(48.7815 55.0297 598.357)" fill="#CCC3E0"/>
<circle cx="1490.67" cy="405.671" r="1.18427" transform="rotate(48.7815 1490.67 405.671)" fill="#CCC3E0"/>
<circle cx="1192.06" cy="422.518" r="1.37504" transform="rotate(48.7815 1192.06 422.518)" fill="#CCC3E0"/>
<circle cx="1023.67" cy="146.671" r="1.18427" transform="rotate(48.7815 1023.67 146.671)" fill="#CCC3E0"/>
<circle cx="1170.67" cy="211.671" r="1.18427" transform="rotate(48.7815 1170.67 211.671)" fill="#CCC3E0"/>
<circle cx="861.671" cy="552.671" r="1.18427" transform="rotate(48.7815 861.671 552.671)" fill="#CCC3E0"/>
<circle cx="1048.67" cy="600.671" r="1.18427" transform="rotate(48.7815 1048.67 600.671)" fill="#CCC3E0"/>
<circle cx="1401.06" cy="619.903" r="1.37504" transform="rotate(48.7815 1401.06 619.903)" fill="#CCC3E0"/>
<circle cx="940.109" cy="783.616" r="1.37504" transform="rotate(48.7815 940.109 783.616)" fill="#CCC3E0"/>
<circle cx="1325.48" cy="725.233" r="3" transform="rotate(48.7815 1325.48 725.233)" fill="#CCC3E0"/>
<circle cx="834.671" cy="812.671" r="1.18427" transform="rotate(48.7815 834.671 812.671)" fill="#CCC3E0"/>
<circle cx="1540.67" cy="107.671" r="1.18427" transform="rotate(48.7815 1540.67 107.671)" fill="#CCC3E0"/>
<circle cx="15.6708" cy="310.671" r="1.18427" transform="rotate(48.7815 15.6708 310.671)" fill="#CCC3E0"/>
<circle cx="603.671" cy="702.671" r="1.18427" transform="rotate(48.7815 603.671 702.671)" fill="#CCC3E0"/>
<circle cx="524.671" cy="187.671" r="1.18427" transform="rotate(48.7815 524.671 187.671)" fill="#CCC3E0"/>
<circle cx="766.205" cy="656.837" r="3.5" transform="rotate(48.7815 766.205 656.837)" fill="#CCC3E0"/>
<circle cx="283.269" cy="548.73" r="2.29792" transform="rotate(48.7815 283.269 548.73)" fill="#CCC3E0"/>
<circle cx="1426.39" cy="192.644" r="3.5" transform="rotate(-162.422 1426.39 192.644)" fill="#CCC3E0"/>
<circle cx="992.369" cy="515.882" r="3.5" transform="rotate(48.7815 992.369 515.882)" fill="#CCC3E0"/>
<circle cx="431.757" cy="456.186" r="2.29792" transform="rotate(48.7815 431.757 456.186)" fill="#CCC3E0"/>
<circle cx="550.243" cy="410.243" r="2.29792" transform="rotate(48.7815 550.243 410.243)" fill="#CCC3E0"/>
<circle cx="630.922" cy="298.307" r="3.5" transform="rotate(-164.5 630.922 298.307)" fill="#CCC3E0"/>
<circle cx="1857.08" cy="673.378" r="3.5" transform="rotate(7.35263 1857.08 673.378)" fill="#CCC3E0"/>
<circle cx="1442.11" cy="749.41" r="3.5" transform="rotate(154.071 1442.11 749.41)" fill="#CCC3E0"/>
<circle cx="394.695" cy="455.829" r="2.5" transform="rotate(48.7815 394.695 455.829)" fill="#CCC3E0"/>
<circle cx="940.735" cy="289.245" r="3" transform="rotate(48.7815 940.735 289.245)" fill="#CCC3E0"/>
<circle cx="232.228" cy="289.228" r="3" transform="rotate(49.6916 232.228 289.228)" fill="#CCC3E0"/>
<circle cx="811.122" cy="286.536" r="3" transform="rotate(-164.5 811.122 286.536)" fill="#CCC3E0"/>
<circle cx="397.857" cy="307.388" r="1.96965" transform="rotate(48.7815 397.857 307.388)" fill="#CCC3E0"/>
<circle cx="1666.36" cy="686.609" r="3" transform="rotate(7.35263 1666.36 686.609)" fill="#CCC3E0"/>
<circle cx="862.894" cy="331.542" r="1.46309" transform="rotate(48.7815 862.894 331.542)" fill="#CCC3E0"/>
<circle cx="938.333" cy="302.289" r="1.46309" transform="rotate(48.7815 938.333 302.289)" fill="#CCC3E0"/>
<circle cx="989.702" cy="231.021" r="2.22845" transform="rotate(-164.5 989.702 231.021)" fill="#CCC3E0"/>
<circle cx="1770.4" cy="469.827" r="2.22845" transform="rotate(7.35263 1770.4 469.827)" fill="#CCC3E0"/>
<circle cx="1902.73" cy="681.557" r="2.22845" transform="rotate(7.35263 1902.73 681.557)" fill="#CCC3E0"/>
<circle cx="711.8" cy="240.591" r="1.46309" transform="rotate(-164.5 711.8 240.591)" fill="#CCC3E0"/>
<circle cx="1506.18" cy="518.238" r="2.22845" transform="rotate(154.071 1506.18 518.238)" fill="#CCC3E0"/>
<circle cx="839.296" cy="331.314" r="1.59175" transform="rotate(48.7815 839.296 331.314)" fill="#CCC3E0"/>
<circle cx="1186.96" cy="225.25" r="1.9101" transform="rotate(48.7815 1186.96 225.25)" fill="#CCC3E0"/>
<circle cx="735.853" cy="225.24" r="1.9101" transform="rotate(49.6916 735.853 225.24)" fill="#CCC3E0"/>
<circle cx="1104.44" cy="223.525" r="1.9101" transform="rotate(-164.5 1104.44 223.525)" fill="#CCC3E0"/>
<circle cx="1230.88" cy="333.688" r="3.32217" transform="rotate(48.7815 1230.88 333.688)" fill="#CCC3E0"/>
<circle cx="1648.96" cy="478.252" r="1.9101" transform="rotate(7.35263 1648.96 478.252)" fill="#CCC3E0"/>
<circle cx="312.759" cy="305.609" r="1.96965" transform="rotate(-164.5 312.759 305.609)" fill="#CCC3E0"/>
<circle cx="1569.43" cy="621.348" r="3" transform="rotate(154.071 1569.43 621.348)" fill="#CCC3E0"/>
<circle cx="197.243" cy="99.2427" r="2.29792" transform="rotate(48.7815 197.243 99.2427)" fill="#CCC3E0"/>
<circle cx="1650.24" cy="823.243" r="2.29792" transform="rotate(48.7815 1650.24 823.243)" fill="#CCC3E0"/>
</g>
<defs>
<linearGradient id="paint0_linear_2066_3566" x1="-243.5" y1="971.25" x2="-243.5" y2="1095.75" gradientUnits="userSpaceOnUse">
<stop stop-color="#8680E5" stop-opacity="0.41"/>
<stop offset="0.575" stop-color="#FFBAE3"/>
</linearGradient>
<linearGradient id="paint1_linear_2066_3566" x1="909" y1="1027.25" x2="909" y2="1123.25" gradientUnits="userSpaceOnUse">
<stop stop-color="#8680E5" stop-opacity="0.41"/>
<stop offset="0.575" stop-color="#FFBAE3"/>
</linearGradient>
<linearGradient id="paint2_linear_2066_3566" x1="698.923" y1="1037.25" x2="698.923" y2="1107.25" gradientUnits="userSpaceOnUse">
<stop stop-color="#2C1973"/>
<stop offset="0.795" stop-color="#6747B2"/>
</linearGradient>
<linearGradient id="paint3_linear_2066_3566" x1="961" y1="848.749" x2="961" y2="1493.75" gradientUnits="userSpaceOnUse">
<stop offset="0.24" stop-color="#8680E5"/>
<stop offset="0.605" stop-color="#E3ADE4"/>
<stop offset="0.65" stop-color="#FFA87C"/>
</linearGradient>
<linearGradient id="paint4_linear_2066_3566" x1="1483.69" y1="1005.25" x2="1483.69" y2="1075.25" gradientUnits="userSpaceOnUse">
<stop stop-color="#2C1973"/>
<stop offset="0.795" stop-color="#6747B2"/>
</linearGradient>
<linearGradient id="paint5_linear_2066_3566" x1="1833.69" y1="958.25" x2="1833.69" y2="1028.25" gradientUnits="userSpaceOnUse">
<stop stop-color="#2C1973"/>
<stop offset="0.795" stop-color="#6747B2"/>
</linearGradient>
<linearGradient id="paint6_linear_2066_3566" x1="1114.5" y1="845.75" x2="1119.5" y2="1665.75" gradientUnits="userSpaceOnUse">
<stop offset="0.205" stop-color="#4B3EAA"/>
<stop offset="1" stop-color="#FFA87C"/>
</linearGradient>
<clipPath id="clip0_2066_3566">
<rect width="1919" height="1146" fill="white"/>
</clipPath>
</defs>
</svg>
