<svg width="1919" height="1146" viewBox="0 0 1919 1146" fill="none" xmlns="http://www.w3.org/2000/svg">
<g clip-path="url(#clip0_2066_3794)">
<path d="M1781 17.5081C5.48535 17.0199 -2682.5 -44.4918 -2752 66.0084C-2752 66.0084 -2789.5 104.259 -2795.5 143.759C-2801.5 183.259 -2776.53 231.259 -2774.55 260.759C-2772.56 290.259 -2796.86 323.759 -2852.88 370.759C-2908.91 417.759 -2959.48 407.759 -2998.65 490.259C-3037.82 572.759 -2994.19 620.259 -2959.48 652.759C-2924.77 685.259 -2930.23 741.759 -2959.48 772.259C-2988.73 802.759 -3034.35 779.499 -3123.1 791.759C-3211.85 804.019 -3251.08 827.508 -3261 832.008C-3270.92 836.508 -3300.5 858.508 -3300.5 858.508C-3300.5 858.508 -3280.5 851.508 -3267 848.508C-3253.5 845.508 -3215.32 842.759 -3184.58 842.759C-3153.84 842.759 -3075.5 861.259 -3034.35 891.759C-2993.2 922.259 -2950.06 918.259 -2891.56 902.759C-2833.05 887.259 -2746.78 836.759 -2703.15 830.759C-2659.52 824.759 -2622.33 825.989 -2523.17 821.259C-2424.01 816.529 -2224.7 656.259 -2189.5 638.259C-2154.3 620.259 -2112.65 609.259 -2072 610.259C-2031.34 611.259 -1814.18 689.759 -1743.28 698.259C-1672.38 706.759 -1612.39 683.759 -1520.66 703.259C-1428.94 722.759 -1187.48 911.759 -1034.77 930.759C-882.061 949.759 -555.326 876.343 -449.719 914.259C-344.113 952.175 -359.485 1010.26 -289.08 1038.26C-218.676 1066.26 -4.50183 1141.01 -4.50183 1141.01L969.498 1139.01C969.498 1139.01 1052.41 1117.97 1107.99 1089.76C1224.48 1030.63 1328.61 1092.77 1406.99 988.259C1462.49 914.259 1492.99 758.759 1546.49 705.259C1585.5 666.251 1662.98 600.271 1794.49 508.259C1926 416.247 1922.5 117.009 1914.5 67.2586C1906.5 17.5081 1859.5 17.5081 1781 17.5081Z" fill="#221737"/>
<path d="M1659.67 990.716L1652.64 949.137L1644.48 988.322L1641.82 965.838L1639.75 995.428L1636.61 964.113L1633.44 998.915L1626.24 998.623L1623.98 975.371L1621.97 998.637L1618.55 959.691L1613.97 1002.52L1612.29 980.419L1611.27 1003.16L1607.71 974.445L1604.18 1004.84L1598.44 1006.2L1596.41 982.398L1594.28 1008.18L1591.21 981.322L1588.43 1007.57L1585.2 973.461L1580.95 1011.96L1569.91 1013.74L1568.35 1002.11L1566.45 1013.88L1564.62 1007.47L1562.99 1013.71L1562.34 1016.66L1580.43 1014.45L1668.21 993.682L1663.52 959.712L1659.67 990.716Z" fill="url(#paint0_linear_2066_3794)" fill-opacity="0.5"/>
<path d="M1098.5 1093.76H1088L1084 1065.76L1080.5 1091.26L1078.5 1074.26L1075 1093.76L1073 1056.76L1068 1089.76L1065 1062.76L1059.5 1083.76L1048.5 1076.26L1045.5 1024.26L1041.5 1060.26L1036.5 1012.26L1030 1056.76L1029 1043.26L1026 1077.76L1021.5 1032.26L1015.5 1077.76H1007L1003 1030.76L999.5 1049.76L997.5 1037.26L992.5 1076.26L989.5 1022.76L980 1077.76L1107.5 1101.26L1102 1070.76L1098.5 1093.76Z" fill="url(#paint1_linear_2066_3794)" fill-opacity="0.5"/>
<path d="M-3841 962.258C-3841 962.258 -3768.05 989.258 -3681.02 989.258C-3594 989.258 -3512.65 962.258 -3504.07 962.258C-3495.5 962.258 -3208.49 1031.26 -3197.5 1032.26C-3186.5 1033.26 -3138 1007.76 -3135 1010.26C-3132 1012.76 -3028 1042.26 -2982.5 1037.26C-2937 1032.26 -2841.5 968.258 -2841.5 968.258C-2841.5 968.258 -2708 996.758 -2681 998.258C-2654 999.758 -2539 970.758 -2512.5 972.758C-2486 974.758 -2288.5 1029.76 -2225.5 1041.26C-2162.5 1052.76 -1975.5 1055.26 -1939.5 1052.76C-1903.5 1050.26 -1623.5 967.258 -1593.5 967.758C-1563.5 968.258 -1360.5 1054.76 -1297.5 1063.76C-1234.5 1072.76 -711 1092.76 -711 1092.76L-16.5 1074.76C-16.5 1074.76 106 1056.76 190 1035.26C274 1013.76 394 952.258 455 952.258C516 952.258 909.5 1072.76 929.5 1072.76C949.5 1072.76 989 1048.26 1008 1049.76C1027 1051.26 1055.5 1084.76 1078.5 1084.76C1101.5 1084.76 1334.5 978.258 1334.5 978.258C1334.5 978.258 1412 1040.26 1517 1024.76C1622 1009.26 1720 925.758 1756 929.258C1792 932.758 1919 962.258 1919 962.258V1137.26H-3841V962.258Z" fill="url(#paint2_linear_2066_3794)"/>
<path d="M1163.38 1119.96L1166.5 1093.67L1171.5 1125.93L1180.32 1072.46L1186.5 1125.49H1191L1201.72 1033.26L1211.5 1125.49H1214.21L1220.45 1082.14L1228.48 1126.41L1230.26 1111.66L1231.6 1126.41L1236.06 1124.11L1245.42 1060.93L1249.88 1096.44L1257.02 1050.32L1265.93 1110.73L1273.96 1059.55L1282.5 1128.26L1150 1125.49L1157.58 1076.61L1163.38 1119.96Z" fill="url(#paint3_linear_2066_3794)"/>
<path d="M220 1097.26L230.5 1027.26L240.5 1088.26L244.5 1056.26L249.5 1097.26L255 1050.26L259.5 1100.26L269.5 1097.26L274.5 1060.26L275.5 1095.76L281.5 1033.26L288 1098.76L290.5 1064.76L292 1098.76L296.5 1053.26L302.5 1098.76H311L315 1062.26L317.5 1100.26L320.5 1058.26L325.5 1097.26L330 1043.26L339 1104.76H209L216.5 1046.76L220 1097.26Z" fill="url(#paint4_linear_2066_3794)"/>
<path d="M-1934.9 1087.93C-2002.48 1100.97 -2151.5 1026.26 -2151.5 1026.26C-2151.5 1026.26 -2203.6 1058.5 -2229 1059.76C-2254.4 1061.02 -2469.5 1036.27 -2567.29 1038.59C-2665.08 1040.91 -2980.5 1136.27 -3118.77 1123.81C-3257.03 1111.35 -3318 1088.77 -3407.66 1057.03C-3497.32 1025.29 -3556.5 992.741 -3596.78 985.266C-3637.06 977.79 -3841 992.741 -3841 992.741V1147.01L1919 1146.01V992.259C1919 992.259 1830.5 988.539 1774 992.259C1640.8 1001.03 1440.5 1067.26 1440.5 1067.26C1440.5 1067.26 1193.91 1151.94 1044 1109.76C935.784 1079.31 834 965.259 798 960.259C762 955.259 725.227 986.809 681.5 973.259C646.505 962.414 605.5 918.259 605.5 918.259C605.5 918.259 464 1076.76 448.5 1075.26C433 1073.76 396 1058.26 376.5 1058.26C357 1058.26 223 1102.76 173 1098.76C123 1094.76 -1 988.766 -1 988.766C-1 988.766 -129 1030.76 -158.849 1032.27C-188.698 1033.77 -229.335 1017.77 -229.335 1017.77C-229.335 1017.77 -372.74 1053.11 -466.605 1059.27C-604.736 1068.33 -819.531 1026.27 -819.531 1026.27L-1000.71 1073.77C-1000.71 1073.77 -1338.44 1120.4 -1376.47 1118.77C-1414.5 1117.14 -1423 1118.01 -1539 1067.26C-1655 1016.5 -1818.5 974.759 -1818.5 974.759C-1818.5 974.759 -1920 1085.05 -1934.9 1087.93Z" fill="url(#paint5_linear_2066_3794)"/>
<circle cx="682.415" cy="599.674" r="7.5" transform="rotate(-162.422 682.415 599.674)" fill="#CCC3E0"/>
<circle cx="1615.76" cy="500.076" r="5.21792" transform="rotate(-166.924 1615.76 500.076)" fill="#CCC3E0"/>
<circle cx="1612.42" cy="222.674" r="7.5" transform="rotate(-162.422 1612.42 222.674)" fill="url(#paint6_linear_2066_3794)"/>
<circle cx="1347.39" cy="377.139" r="4.39923" transform="rotate(-15.7031 1347.39 377.139)" fill="#CCC3E0"/>
<circle cx="1802.43" cy="128.685" r="4.39923" transform="rotate(-15.7031 1802.43 128.685)" fill="#CCC3E0"/>
<circle cx="883.426" cy="278.685" r="4.39923" transform="rotate(-15.7031 883.426 278.685)" fill="#CCC3E0"/>
<circle cx="437.885" cy="287.139" r="4.39923" transform="rotate(51.3725 437.885 287.139)" fill="#CCC3E0"/>
<circle cx="696.706" cy="512.541" r="3.5" transform="rotate(-162.422 696.706 512.541)" fill="#CCC3E0"/>
<circle cx="1220.39" cy="87.6523" r="3.5" transform="rotate(-162.422 1220.39 87.6523)" fill="#CCC3E0"/>
<circle cx="1625.9" cy="410.384" r="3.5" transform="rotate(-166.924 1625.9 410.384)" fill="#CCC3E0"/>
<circle cx="528.357" cy="802.224" r="6.5" transform="rotate(-162.422 528.357 802.224)" fill="#CCC3E0"/>
<circle cx="34.1592" cy="294.655" r="6.5" transform="rotate(-162.422 34.1592 294.655)" fill="#CCC3E0"/>
<circle cx="942.136" cy="449.729" r="3.5" transform="rotate(-162.422 942.136 449.729)" fill="#CCC3E0"/>
<circle cx="1865.65" cy="328.501" r="3.5" transform="rotate(-166.924 1865.65 328.501)" fill="#CCC3E0"/>
<circle cx="436.18" cy="221.606" r="3.5" transform="rotate(-95.346 436.18 221.606)" fill="#CCC3E0"/>
<circle cx="714.628" cy="780.464" r="3.5" transform="rotate(-162.422 714.628 780.464)" fill="#CCC3E0"/>
<circle cx="220.429" cy="272.893" r="3.5" transform="rotate(-162.422 220.429 272.893)" fill="#CCC3E0"/>
<circle cx="407.973" cy="619.326" r="3.5" transform="rotate(-162.422 407.973 619.326)" fill="#CCC3E0"/>
<circle cx="511.075" cy="767.378" r="3.5" transform="rotate(-162.422 511.075 767.378)" fill="#CCC3E0"/>
<circle cx="821.716" cy="687.463" r="3.5" transform="rotate(-162.422 821.716 687.463)" fill="#CCC3E0"/>
<circle cx="142.919" cy="1005.93" r="3.5" transform="rotate(7.35263 142.919 1005.93)" fill="#CCC3E0"/>
<circle cx="1058.41" cy="357.54" r="3.5" transform="rotate(-162.422 1058.41 357.54)" fill="#CCC3E0"/>
<circle cx="1243.59" cy="686.307" r="3.5" transform="rotate(-15.7031 1243.59 686.307)" fill="#CCC3E0"/>
<circle cx="749.69" cy="692.967" r="2.5" transform="rotate(-162.422 749.69 692.967)" fill="#CCC3E0"/>
<circle cx="255.492" cy="185.397" r="2.5" transform="rotate(-162.422 255.492 185.397)" fill="#CCC3E0"/>
<circle cx="837.921" cy="502.207" r="3" transform="rotate(-162.422 837.921 502.207)" fill="#CCC3E0"/>
<circle cx="1765.87" cy="388.997" r="3" transform="rotate(-166.924 1765.87 388.997)" fill="#CCC3E0"/>
<circle cx="1364.04" cy="429.19" r="2.5" transform="rotate(-162.422 1364.04 429.19)" fill="#CCC3E0"/>
<circle cx="347.254" cy="146.062" r="3" transform="rotate(-95.346 347.254 146.062)" fill="#CCC3E0"/>
<circle cx="1076.39" cy="799.091" r="2" transform="rotate(-162.422 1076.39 799.091)" fill="#CCC3E0"/>
<circle cx="337.385" cy="524.844" r="3" transform="rotate(-112.73 337.385 524.844)" fill="#CCC3E0"/>
<circle cx="1286.7" cy="884.959" r="3" transform="rotate(-15.7031 1286.7 884.959)" fill="#CCC3E0"/>
<circle cx="983.294" cy="854.563" r="3" transform="rotate(-162.422 983.294 854.563)" fill="#CCC3E0"/>
<circle cx="1095.56" cy="789.732" r="3" transform="rotate(-15.7031 1095.56 789.732)" fill="#CCC3E0"/>
<circle cx="563.621" cy="268.737" r="2.22845" transform="rotate(-162.422 563.621 268.737)" fill="#CCC3E0"/>
<circle cx="681.528" cy="478.063" r="2.22845" transform="rotate(-15.7031 681.528 478.063)" fill="#CCC3E0"/>
<circle cx="367.059" cy="482.304" r="1.59175" transform="rotate(-162.422 367.059 482.304)" fill="#CCC3E0"/>
<circle cx="52.4028" cy="159.134" r="1.59175" transform="rotate(-162.422 52.4028 159.134)" fill="#CCC3E0"/>
<circle cx="423.236" cy="360.846" r="1.9101" transform="rotate(-162.422 423.236 360.846)" fill="#CCC3E0"/>
<circle cx="1014.06" cy="288.765" r="1.9101" transform="rotate(-166.924 1014.06 288.765)" fill="#CCC3E0"/>
<circle cx="758.217" cy="314.356" r="1.59175" transform="rotate(-162.422 758.217 314.356)" fill="#CCC3E0"/>
<circle cx="110.829" cy="134.088" r="1.9101" transform="rotate(-95.346 110.829 134.088)" fill="#CCC3E0"/>
<circle cx="575.073" cy="549.872" r="1.2734" transform="rotate(-162.422 575.073 549.872)" fill="#CCC3E0"/>
<circle cx="104.545" cy="375.259" r="1.9101" transform="rotate(-112.73 104.545 375.259)" fill="#CCC3E0"/>
<circle cx="708.973" cy="604.544" r="1.9101" transform="rotate(-15.7031 708.973 604.544)" fill="#CCC3E0"/>
<circle cx="515.795" cy="585.192" r="1.9101" transform="rotate(-162.422 515.795 585.192)" fill="#CCC3E0"/>
<circle cx="587.276" cy="543.914" r="1.9101" transform="rotate(-15.7031 587.276 543.914)" fill="#CCC3E0"/>
<circle cx="1574" cy="204.259" r="22" fill="url(#paint7_linear_2066_3794)"/>
</g>
<defs>
<linearGradient id="paint0_linear_2066_3794" x1="1613.2" y1="966.126" x2="1623.63" y2="1010.21" gradientUnits="userSpaceOnUse">
<stop stop-color="#2C1973"/>
<stop offset="0.795" stop-color="#6747B2"/>
</linearGradient>
<linearGradient id="paint1_linear_2066_3794" x1="1041.5" y1="1018.76" x2="1041.5" y2="1088.76" gradientUnits="userSpaceOnUse">
<stop stop-color="#2C1973"/>
<stop offset="0.795" stop-color="#6747B2"/>
</linearGradient>
<linearGradient id="paint2_linear_2066_3794" x1="-961" y1="848.758" x2="-961" y2="1493.76" gradientUnits="userSpaceOnUse">
<stop offset="0.24" stop-color="#8680E5"/>
<stop offset="0.605" stop-color="#E3ADE4"/>
<stop offset="0.65" stop-color="#FFA87C"/>
</linearGradient>
<linearGradient id="paint3_linear_2066_3794" x1="1220.9" y1="1072" x2="1220.9" y2="1136.56" gradientUnits="userSpaceOnUse">
<stop stop-color="#2C1973"/>
<stop offset="0.795" stop-color="#6747B2"/>
</linearGradient>
<linearGradient id="paint4_linear_2066_3794" x1="277" y1="1043.76" x2="277" y2="1113.76" gradientUnits="userSpaceOnUse">
<stop stop-color="#2C1973"/>
<stop offset="0.795" stop-color="#6747B2"/>
</linearGradient>
<linearGradient id="paint5_linear_2066_3794" x1="-807.5" y1="845.759" x2="-802.5" y2="1665.76" gradientUnits="userSpaceOnUse">
<stop offset="0.205" stop-color="#4B3EAA"/>
<stop offset="1" stop-color="#FFA87C"/>
</linearGradient>
<linearGradient id="paint6_linear_2066_3794" x1="1599.51" y1="221.953" x2="1620.01" y2="225.422" gradientUnits="userSpaceOnUse">
<stop offset="0.55" stop-color="#87CDFF"/>
<stop offset="1" stop-color="#F5BF84"/>
</linearGradient>
<linearGradient id="paint7_linear_2066_3794" x1="1574" y1="182.259" x2="1592.5" y2="216.759" gradientUnits="userSpaceOnUse">
<stop offset="0.415" stop-color="#FFE485"/>
<stop offset="1" stop-color="#E99649"/>
</linearGradient>
<clipPath id="clip0_2066_3794">
<rect width="1919" height="1146" fill="white"/>
</clipPath>
</defs>
</svg>
