<svg width="480" height="932" viewBox="0 0 480 932" fill="none" xmlns="http://www.w3.org/2000/svg">
<g clip-path="url(#clip0_2314_4152)">
<path d="M-48 829.372C-48 829.372 -0.874009 809.976 25.587 792.62C59.8167 770.168 90.047 718.619 101.456 723.586C112.865 728.552 209.382 740.203 268.595 770.271C310.46 791.529 365 838.311 365 838.311L-0.0828753 847.251L-48 829.372Z" fill="url(#paint0_linear_2314_4152)"/>
<path d="M4849 -196.5C3073.49 -196.988 385.5 -258.5 315.999 -147.999C315.999 -147.999 278.5 -109.749 272.5 -70.2492C266.5 -30.7492 291.47 17.2511 293.454 46.7511C295.437 76.2511 271.142 109.751 215.116 156.751C159.09 203.751 108.518 193.751 69.3496 276.251C30.181 358.751 73.8122 406.251 108.519 438.751C143.225 471.251 137.771 527.751 108.519 558.251C79.266 588.751 33.6516 565.491 -55.0977 577.751C-143.847 590.011 -183.083 613.501 -193 618.001C-202.916 622.501 -232.5 644.501 -232.5 644.501C-232.5 644.501 -212.5 637.501 -199 634.501C-185.5 631.501 -147.318 628.751 -116.578 628.751C-85.8382 628.751 -7.5005 647.251 33.6514 677.751C74.8032 708.251 117.938 704.251 176.443 688.751C234.948 673.251 321.219 622.751 364.85 616.751C408.481 610.751 445.667 611.981 544.828 607.251C643.989 602.521 843.298 442.251 878.5 424.251C913.702 406.251 955.347 395.251 996.003 396.251C1036.66 397.251 1253.82 475.751 1324.72 484.251C1395.62 492.751 1455.62 469.751 1547.34 489.251C1639.06 508.751 1880.52 697.751 2033.23 716.751C2185.94 735.751 2512.67 662.335 2618.28 700.251C2723.89 738.167 2708.52 796.251 2778.92 824.251C2849.32 852.251 3063.5 927.001 3063.5 927.001L4037.5 925.001C4037.5 925.001 4120.41 903.966 4175.99 875.752C4292.48 816.621 4396.61 878.76 4474.99 774.251C4530.49 700.251 4560.99 544.751 4614.49 491.251C4653.5 452.243 4730.98 386.263 4862.49 294.251C4994 202.239 4990.5 -96.9988 4982.5 -146.749C4974.5 -196.5 4927.5 -196.5 4849 -196.5Z" fill="#221737"/>
<path d="M147.667 812.709L140.636 771.13L132.483 810.315L129.822 787.831L127.747 817.422L124.606 786.106L121.441 820.909L114.242 820.617L111.979 797.365L109.967 820.63L106.55 781.684L101.973 824.517L100.294 802.412L99.2721 825.156L95.7055 796.438L92.1818 826.833L86.4421 828.191L84.4113 804.392L82.2765 830.174L79.2057 803.316L76.4274 829.563L73.2041 795.454L68.9513 833.958L57.9082 835.73L56.3463 824.106L54.4511 835.878L52.623 829.461L50.9889 835.702L50.3423 838.652L68.4289 836.443L156.213 815.675L151.525 781.705L147.667 812.709Z" fill="url(#paint1_linear_2314_4152)" fill-opacity="0.5"/>
<path d="M-773 748.25C-773 748.25 -700.048 775.25 -613.024 775.25C-526 775.25 -444.646 748.25 -436.073 748.25C-427.5 748.25 -140.49 817.25 -129.495 818.25C-118.5 819.25 -70 793.75 -67 796.25C-64 798.75 40 828.25 85.5 823.25C131 818.25 226.5 754.25 226.5 754.25C226.5 754.25 360 782.75 387 784.25C414 785.75 529 756.75 555.5 758.75C582 760.75 779.5 815.75 842.5 827.25C905.5 838.75 1092.5 841.25 1128.5 838.75C1164.5 836.25 1444.5 753.25 1474.5 753.75C1504.5 754.25 1707.5 840.75 1770.5 849.75C1833.5 858.75 2357 878.75 2357 878.75L3051.5 860.75C3051.5 860.75 3174 842.751 3258 821.25C3342 799.75 3462 738.251 3523 738.25C3584 738.25 3977.5 858.751 3997.5 858.75C4017.5 858.75 4057 834.25 4076 835.75C4095 837.251 4123.5 870.75 4146.5 870.75C4169.5 870.75 4402.5 764.25 4402.5 764.25C4402.5 764.25 4480 826.25 4585 810.75C4690 795.25 4788 711.75 4824 715.25C4860 718.75 4987 748.25 4987 748.25V923.25H-773V748.25Z" fill="url(#paint2_linear_2314_4152)"/>
<path d="M-82.623 907.95L-79.5016 881.664L-74.5 913.921L-65.6787 860.45L-59.5 913.484H-55L-44.2754 821.251L-34.5 913.484H-31.7902L-25.5475 870.134L-17.5213 914.406L-15.7377 899.649L-14.4 914.406L-9.94099 912.1L-0.577049 848.921L3.88197 884.431L11.0164 838.314L19.9344 898.727L27.9607 847.537L36.5 916.251L-96 913.484L-88.4197 864.6L-82.623 907.95Z" fill="url(#paint3_linear_2314_4152)"/>
<path d="M347 853.751L357.5 783.751L367.5 844.751L371.5 812.751L376.5 853.751L382 806.751L386.5 856.751L396.5 853.751L401.5 816.751L402.5 852.251L408.5 789.751L415 855.251L417.5 821.251L419 855.251L423.5 809.751L429.5 855.251H438L442 818.751L444.5 856.751L447.5 814.751L452.5 853.751L457 799.751L466 861.251H336L343.5 803.251L347 853.751Z" fill="url(#paint4_linear_2314_4152)"/>
<path d="M1133.1 873.918C1065.52 886.959 916.5 812.251 916.5 812.251C916.5 812.251 864.401 844.489 839 845.751C813.599 847.013 598.5 822.258 500.712 824.581C402.925 826.905 87.4998 922.258 -50.7666 909.799C-189.033 897.34 -250 874.758 -339.66 843.02C-429.32 811.283 -488.5 778.733 -528.781 771.258C-569.062 763.783 -773 778.733 -773 778.733V933.001L4987 932.001V778.251C4987 778.251 4898.5 774.531 4842 778.251C4708.8 787.02 4508.5 853.251 4508.5 853.251C4508.5 853.251 4261.91 937.931 4112 895.751C4003.78 865.302 3902 751.251 3866 746.251C3830 741.251 3793.23 772.801 3749.5 759.251C3714.51 748.407 3673.5 704.251 3673.5 704.251C3673.5 704.251 3532 862.751 3516.5 861.251C3501 859.751 3464 844.251 3444.5 844.251C3425 844.251 3291 888.751 3241 884.751C3191 880.751 3067 774.758 3067 774.758C3067 774.758 2939 816.755 2909.15 818.258C2879.3 819.761 2838.67 803.758 2838.67 803.758C2838.67 803.758 2695.26 839.099 2601.4 845.258C2463.26 854.321 2248.47 812.258 2248.47 812.258L2067.29 859.758C2067.29 859.758 1729.56 906.388 1691.53 904.758C1653.5 903.127 1645 904.006 1529 853.251C1413 802.496 1249.5 760.751 1249.5 760.751C1249.5 760.751 1148 871.043 1133.1 873.918Z" fill="url(#paint5_linear_2314_4152)"/>
<circle cx="464.092" cy="530.343" r="4.39923" transform="rotate(146.718 464.092 530.343)" fill="#CCC3E0"/>
<circle cx="469.671" cy="204.264" r="3.5" transform="rotate(146.718 469.671 204.264)" fill="#CCC3E0"/>
<circle cx="212.671" cy="307.672" r="1.18427" transform="rotate(48.7815 212.671 307.672)" fill="#CCC3E0"/>
<circle cx="399.671" cy="355.672" r="1.18427" transform="rotate(48.7815 399.671 355.672)" fill="#CCC3E0"/>
<circle cx="271.671" cy="554.672" r="1.18427" transform="rotate(48.7815 271.671 554.672)" fill="#CCC3E0"/>
<circle cx="152.671" cy="652.672" r="1.18427" transform="rotate(48.7815 152.671 652.672)" fill="#CCC3E0"/>
<circle cx="185.671" cy="567.672" r="1.18427" transform="rotate(48.7815 185.671 567.672)" fill="#CCC3E0"/>
<circle cx="307.5" cy="577.751" r="2.5" fill="#CCC3E0"/>
<circle cx="244" cy="322.251" r="3" fill="#CCC3E0"/>
<circle cx="269.5" cy="184.751" r="1.5" fill="#CCC3E0"/>
<circle cx="336.215" cy="74.7574" r="3" transform="rotate(146.718 336.215 74.7574)" fill="#CCC3E0"/>
</g>
<defs>
<linearGradient id="paint0_linear_2314_4152" x1="158.5" y1="667.962" x2="158.5" y2="847.251" gradientUnits="userSpaceOnUse">
<stop stop-color="#8680E5" stop-opacity="0.41"/>
<stop offset="0.789681" stop-color="#FFBAE3"/>
</linearGradient>
<linearGradient id="paint1_linear_2314_4152" x1="101.204" y1="788.119" x2="111.634" y2="832.207" gradientUnits="userSpaceOnUse">
<stop stop-color="#2C1973"/>
<stop offset="0.795" stop-color="#6747B2"/>
</linearGradient>
<linearGradient id="paint2_linear_2314_4152" x1="2107" y1="634.75" x2="2107" y2="1279.75" gradientUnits="userSpaceOnUse">
<stop offset="0.24" stop-color="#8680E5"/>
<stop offset="0.605" stop-color="#E3ADE4"/>
<stop offset="0.65" stop-color="#FFA87C"/>
</linearGradient>
<linearGradient id="paint3_linear_2314_4152" x1="-25.1017" y1="859.989" x2="-25.1017" y2="924.552" gradientUnits="userSpaceOnUse">
<stop stop-color="#2C1973"/>
<stop offset="0.795" stop-color="#6747B2"/>
</linearGradient>
<linearGradient id="paint4_linear_2314_4152" x1="404" y1="800.251" x2="404" y2="870.251" gradientUnits="userSpaceOnUse">
<stop stop-color="#2C1973"/>
<stop offset="0.795" stop-color="#6747B2"/>
</linearGradient>
<linearGradient id="paint5_linear_2314_4152" x1="2260.5" y1="631.751" x2="2265.5" y2="1451.75" gradientUnits="userSpaceOnUse">
<stop offset="0.205" stop-color="#4B3EAA"/>
<stop offset="1" stop-color="#FFA87C"/>
</linearGradient>
<clipPath id="clip0_2314_4152">
<rect width="480" height="932" fill="white"/>
</clipPath>
</defs>
</svg>
