<svg width="480" height="932" viewBox="0 0 480 932" fill="none" xmlns="http://www.w3.org/2000/svg">
<g clip-path="url(#clip0_2314_3924)">
<path d="M432 829.372C432 829.372 479.126 809.976 505.587 792.62C539.817 770.168 570.047 718.619 581.456 723.586C592.865 728.552 689.382 740.203 748.595 770.271C790.46 791.529 845 838.311 845 838.311L479.917 847.251L432 829.372Z" fill="url(#paint0_linear_2314_3924)"/>
<path d="M5329 -196.5C3553.49 -196.988 865.5 -258.5 795.999 -147.999C795.999 -147.999 758.5 -109.749 752.5 -70.2492C746.5 -30.7492 771.47 17.2511 773.454 46.7511C775.437 76.2511 751.142 109.751 695.116 156.751C639.09 203.751 588.518 193.751 549.35 276.251C510.181 358.751 553.812 406.251 588.519 438.751C623.225 471.251 617.771 527.751 588.519 558.251C559.266 588.751 513.652 565.491 424.902 577.751C336.153 590.011 296.917 613.501 287 618.001C277.084 622.501 247.5 644.501 247.5 644.501C247.5 644.501 267.5 637.501 281 634.501C294.5 631.501 332.682 628.751 363.422 628.751C394.162 628.751 472.499 647.251 513.651 677.751C554.803 708.251 597.938 704.251 656.443 688.751C714.948 673.251 801.219 622.751 844.85 616.751C888.481 610.751 925.667 611.981 1024.83 607.251C1123.99 602.521 1323.3 442.251 1358.5 424.251C1393.7 406.251 1435.35 395.251 1476 396.251C1516.66 397.251 1733.82 475.751 1804.72 484.251C1875.62 492.751 1935.62 469.751 2027.34 489.251C2119.06 508.751 2360.52 697.751 2513.23 716.751C2665.94 735.751 2992.67 662.335 3098.28 700.251C3203.89 738.167 3188.52 796.251 3258.92 824.251C3329.32 852.251 3543.5 927.001 3543.5 927.001L4517.5 925.001C4517.5 925.001 4600.41 903.966 4655.99 875.752C4772.48 816.621 4876.61 878.76 4954.99 774.251C5010.49 700.251 5040.99 544.751 5094.49 491.251C5133.5 452.243 5210.98 386.263 5342.49 294.251C5474 202.239 5470.5 -96.9988 5462.5 -146.749C5454.5 -196.5 5407.5 -196.5 5329 -196.5Z" fill="#221737"/>
<path d="M-293 748.25C-293 748.25 -220.048 775.25 -133.024 775.25C-46 775.25 35.3539 748.25 43.927 748.25C52.5 748.25 339.51 817.25 350.505 818.25C361.5 819.25 410 793.75 413 796.25C416 798.75 520 828.25 565.5 823.25C611 818.25 706.5 754.25 706.5 754.25C706.5 754.25 840 782.75 867 784.25C894 785.75 1009 756.75 1035.5 758.75C1062 760.75 1259.5 815.75 1322.5 827.25C1385.5 838.75 1572.5 841.25 1608.5 838.75C1644.5 836.25 1924.5 753.25 1954.5 753.75C1984.5 754.25 2187.5 840.75 2250.5 849.75C2313.5 858.75 2837 878.75 2837 878.75L3531.5 860.75C3531.5 860.75 3654 842.751 3738 821.25C3822 799.75 3942 738.251 4003 738.25C4064 738.25 4457.5 858.751 4477.5 858.75C4497.5 858.75 4537 834.25 4556 835.75C4575 837.251 4603.5 870.75 4626.5 870.75C4649.5 870.75 4882.5 764.25 4882.5 764.25C4882.5 764.25 4960 826.25 5065 810.75C5170 795.25 5268 711.75 5304 715.25C5340 718.75 5467 748.25 5467 748.25V923.25H-293V748.25Z" fill="url(#paint1_linear_2314_3924)"/>
<path d="M217.501 866.251L224.901 815.251L234.001 875.251L239.501 848.251L243.143 876.617L245.406 853.365L247.418 876.63L256.5 830.751L258.5 878.251L263.5 825.251L271.5 871.751L275.5 831.751L282.5 885.841L284.181 851.454L288.434 889.958L268.5 885.251L248.5 879.751L207 867.251L211.001 841.251L217.501 866.251Z" fill="url(#paint2_linear_2314_3924)" fill-opacity="0.5"/>
<path d="M397.377 907.95L400.498 881.664L405.5 913.921L414.321 860.45L420.5 913.484H425L435.725 821.251L445.5 913.484H448.21L454.452 870.134L462.479 914.406L464.262 899.649L465.6 914.406L470.059 912.1L479.423 848.921L483.882 884.431L491.016 838.314L499.934 898.727L507.961 847.537L516.5 916.251L384 913.484L391.58 864.6L397.377 907.95Z" fill="url(#paint3_linear_2314_3924)"/>
<path d="M1613.1 873.918C1545.52 886.959 1396.5 812.251 1396.5 812.251C1396.5 812.251 1344.4 844.489 1319 845.751C1293.6 847.013 1078.5 822.258 980.712 824.581C882.925 826.905 567.5 922.258 429.233 909.799C290.967 897.34 230 874.758 140.34 843.02C50.6799 811.283 -8.5 778.733 -48.7808 771.258C-89.0615 763.783 -293 778.733 -293 778.733V933.001L5467 932.001V778.251C5467 778.251 5378.5 774.531 5322 778.251C5188.8 787.02 4988.5 853.251 4988.5 853.251C4988.5 853.251 4741.91 937.931 4592 895.751C4483.78 865.302 4382 751.251 4346 746.251C4310 741.251 4273.23 772.801 4229.5 759.251C4194.51 748.407 4153.5 704.251 4153.5 704.251C4153.5 704.251 4012 862.751 3996.5 861.251C3981 859.751 3944 844.251 3924.5 844.251C3905 844.251 3771 888.751 3721 884.751C3671 880.751 3547 774.758 3547 774.758C3547 774.758 3419 816.755 3389.15 818.258C3359.3 819.761 3318.67 803.758 3318.67 803.758C3318.67 803.758 3175.26 839.099 3081.4 845.258C2943.26 854.321 2728.47 812.258 2728.47 812.258L2547.29 859.758C2547.29 859.758 2209.56 906.388 2171.53 904.758C2133.5 903.127 2125 904.006 2009 853.251C1893 802.496 1729.5 760.751 1729.5 760.751C1729.5 760.751 1628 871.043 1613.1 873.918Z" fill="url(#paint4_linear_2314_3924)"/>
<path d="M120.913 702.744L210.05 651.886L219.593 668.078L128.793 717.128L120.913 702.744Z" fill="url(#paint5_linear_2314_3924)"/>
<rect x="227.032" y="638.033" width="26.6145" height="23.0009" transform="rotate(58.8042 227.032 638.033)" fill="url(#paint6_linear_2314_3924)"/>
<rect x="122.019" y="703.517" width="14.4664" height="12.7499" transform="rotate(60.9879 122.019 703.517)" fill="url(#paint7_linear_2314_3924)"/>
<rect x="113.35" y="713.805" width="7.18387" height="38.817" transform="rotate(60.9879 113.35 713.805)" fill="url(#paint8_linear_2314_3924)"/>
<circle cx="162.917" cy="703.775" r="7.5" fill="#221737"/>
<circle cx="162.917" cy="703.775" r="4.5" fill="url(#paint9_linear_2314_3924)"/>
<line x1="262.502" y1="885.678" x2="192.502" y2="726.678" stroke="url(#paint10_linear_2314_3924)" stroke-width="2"/>
<line x1="176.419" y1="891.214" x2="186.419" y2="729.214" stroke="url(#paint11_linear_2314_3924)" stroke-width="2"/>
<line x1="118.523" y1="854.828" x2="181.523" y2="728.828" stroke="url(#paint12_linear_2314_3924)" stroke-width="2"/>
<rect x="171.417" y="719.275" width="27" height="10" fill="#221737"/>
<rect x="165.663" y="709.913" width="5" height="17.0002" transform="rotate(-38.5742 165.663 709.913)" fill="#221737"/>
<rect x="188.417" y="722.275" width="7" height="3" fill="#D9D9D9"/>
<path d="M139 842.501L214.5 868.983L268 884.001C268 884.001 221.566 887.958 197 897.483C177.53 905.031 150 920.733 150 920.733L31.5 910.983C31.5 910.983 59.6801 884.276 80.5 870.983C101.699 857.447 139 842.501 139 842.501Z" fill="url(#paint13_linear_2314_3924)"/>
<path d="M34 840.001L136 858.001C136 858.001 103.066 872.477 78.5 882.001C59.0299 889.549 31.5 907.501 31.5 907.501L-108 880.483C-108 880.483 -54.876 858.317 -31 851.983C-6.5 845.483 34 840.001 34 840.001Z" fill="url(#paint14_linear_2314_3924)"/>
<path d="M-0.901932 845.797L8.45579 829.981L12.2744 838.793C12.2744 838.793 2.9596 852.543 2.08386 852.57C1.20812 852.596 -9.18162 852.911 -9.7757 851.681C-10.3698 850.451 -5.31571 849.674 -5.31571 849.674L-8.14748 849.136C-8.14748 849.136 -15.9717 851.868 -18.2248 851.936C-20.4779 852.005 -20.4933 851.381 -20.4933 851.381C-20.4933 851.381 -13.3094 845.549 -11.0717 844.857C-8.83397 844.166 -0.901932 845.797 -0.901932 845.797Z" fill="#FF8C8C"/>
<path d="M48.4948 737.487C49.1937 735.959 47.1461 729.385 50.8129 727.296C52.5513 726.305 54.591 726.533 56.3625 725.621C58.1875 724.681 58.308 722.863 60.2971 722.556C64.5348 721.903 62.5082 724.693 64.233 725.228C64.9822 725.46 66.836 721.933 69.5804 721.945C73.1488 721.961 75.91 725.071 76.2421 729.114C76.5386 732.722 74.2099 732.992 74.9323 735.872C75.5303 738.256 77.7578 735.436 77.6583 740.369C77.5588 745.302 69.6881 745.695 69.6881 745.695C69.6881 745.695 48.1845 760.518 47.9944 750.677C47.9557 748.673 49.5002 747.48 48.8002 745.636C48.1741 743.985 46.6765 744.483 46.2749 742.747C45.36 738.79 47.6741 739.281 48.4948 737.487Z" fill="#221737"/>
<path d="M54.5685 736.808C54.5685 736.808 61.1599 730.78 64.65 730.712C68.1402 730.644 75.0073 740.474 73.7794 748.228C72.5516 755.983 64.2231 755.754 64.2231 755.754L62.6858 762.8L68.5927 768.125C68.5927 768.125 64.2317 771.255 59.0135 771.244C52.6263 771.229 48.8708 764.383 48.8708 764.383C48.8708 764.383 53.6398 761.571 54.1979 753.163C54.756 744.755 54.1979 746.707 54.1979 746.707C54.1979 746.707 51.0269 747.189 51.7717 740.265C51.9295 738.799 54.8486 739.034 54.8486 739.034L54.5685 736.808Z" fill="#FF8C8C"/>
<path d="M108.23 848.227L123 848.227C123 848.227 131.084 852.801 134.777 853.981C138.47 855.162 137.8 859.54 137.8 859.54L108.406 860.074L108.23 848.227Z" fill="url(#paint15_linear_2314_3924)"/>
<path d="M26.8467 775.344C30.9333 771.142 49.2216 763.773 49.2216 763.773C49.2216 763.773 54.6236 770.2 59.1506 770.417C62.99 770.602 68.3051 766.421 68.3051 766.421C68.3051 766.421 84.8051 778.95 88.896 791.597C92.987 804.245 90.4449 812.879 90.4449 812.879L71.1382 833.936C71.1382 833.936 27.1815 833.188 26.1105 831.48C25.0395 829.772 25.7543 825.225 25.7543 825.225C25.7543 825.225 23.1885 834.486 17.9343 839.889C12.6801 845.292 7.07202 829.483 7.07202 829.483C7.07202 829.483 11.4351 822.239 13.6386 816.265C15.8421 810.291 22.7601 779.546 26.8467 775.344Z" fill="#2C1973"/>
<path d="M35.551 784.581C35.551 784.581 33.9277 799.969 30.7397 811.073C27.5517 822.176 25.1324 827.07 25.1324 827.07" stroke="#8680E5"/>
<path d="M29.8936 780.042C29.8936 780.042 30.5752 780.403 31.7298 782.254C32.8843 784.104 33.4755 785.964 33.4755 785.964" stroke="#8680E5"/>
<path d="M79.7822 777.496C79.7822 777.496 77.9894 780.544 77.7411 788.022C77.4928 795.501 79.0787 798.686 79.0787 798.686" stroke="#8680E5"/>
<path d="M97.1748 862.773L108.949 857.191C108.949 857.191 111.862 860.341 114.388 861.679C118.011 863.598 123.787 858.905 126.933 862.987C130.079 867.068 101.321 875.445 101.321 875.445L97.1748 862.773Z" fill="url(#paint16_linear_2314_3924)"/>
<path d="M31.3482 832.142L44.88 832.519C44.88 832.519 75.3494 797.036 82.0638 793.796C88.7781 790.555 89.3699 792.415 91.6417 793.622C93.9136 794.828 97.978 802.862 97.978 802.862C97.978 802.862 118.564 784.942 122.689 784.328C126.813 783.714 129.45 783.704 133.269 788.499C137.088 793.293 123.444 847.932 123.444 847.932L114.993 848.085L117.329 853.656L94.9412 864.043L88.4383 843.578C88.4383 843.578 71.1203 853.873 58.2082 857.226C45.296 860.58 36.1982 855.132 33.2886 848.947C30.379 842.763 31.3482 832.142 31.3482 832.142Z" fill="url(#paint17_linear_2314_3924)"/>
<path d="M98.5322 802.229L116.726 853.445" stroke="#221737"/>
<path d="M82.249 806.788C82.249 806.788 81.3746 818.363 82.5282 825.598C83.7317 833.145 88.4384 844.099 88.4384 844.099" stroke="#221737"/>
<path d="M70.6367 851.636C70.6367 851.636 75.3275 847.2 77.7335 843.773C80.7811 839.431 83.8624 831.436 83.8624 831.436" stroke="#221737"/>
<path d="M38.9437 843.496L46.5321 829.994" stroke="#221737"/>
<path d="M119.279 797.709C119.279 797.709 114.833 806.539 112.775 812.573C110.483 819.291 108.492 830.339 108.492 830.339" stroke="#221737"/>
<path d="M58.6475 751.059C58.6475 751.059 59.8089 753.125 60.7949 754.216C61.7809 755.308 64 756.203 64 756.203" stroke="#D15B5B"/>
<path d="M69 739.602C69 739.602 69.0314 740.55 69.7033 741.902C70.3751 743.255 72.2805 744.799 72.2805 744.799" stroke="#D15B5B"/>
<path d="M60.1743 743.038C60.1743 743.038 61.0974 743.255 62.5784 742.96C64.0595 742.666 66.0497 741.233 66.0497 741.233" stroke="#D15B5B"/>
<path d="M70.5758 739.375C70.5758 739.375 70.4398 739.579 70.0782 739.788C69.7165 739.997 68.9994 740.085 68.9994 740.085" stroke="#D15B5B"/>
<line y1="-0.5" x2="6.33732" y2="-0.5" transform="matrix(0.192411 0.980719 -0.973 0.233835 113.171 801.339)" stroke="#221737"/>
<path d="M53.9469 733.154L56.7876 729.722C56.7876 729.722 60.7931 731.154 60.4735 733.459C60.2337 735.188 59.168 736.476 57.6328 736.891C56.4885 737.201 55.6476 736.982 54.8429 736.166C54.0383 735.351 53.9469 733.154 53.9469 733.154Z" fill="#221737"/>
</g>
<defs>
<linearGradient id="paint0_linear_2314_3924" x1="638.5" y1="667.962" x2="638.5" y2="847.251" gradientUnits="userSpaceOnUse">
<stop stop-color="#8680E5" stop-opacity="0.41"/>
<stop offset="0.789681" stop-color="#FFBAE3"/>
</linearGradient>
<linearGradient id="paint1_linear_2314_3924" x1="2587" y1="634.75" x2="2587" y2="1279.75" gradientUnits="userSpaceOnUse">
<stop offset="0.24" stop-color="#8680E5"/>
<stop offset="0.605" stop-color="#E3ADE4"/>
<stop offset="0.65" stop-color="#FFA87C"/>
</linearGradient>
<linearGradient id="paint2_linear_2314_3924" x1="256.181" y1="844.119" x2="245.75" y2="888.207" gradientUnits="userSpaceOnUse">
<stop stop-color="#2C1973"/>
<stop offset="0.795" stop-color="#6747B2"/>
</linearGradient>
<linearGradient id="paint3_linear_2314_3924" x1="454.898" y1="859.989" x2="454.898" y2="924.552" gradientUnits="userSpaceOnUse">
<stop stop-color="#2C1973"/>
<stop offset="0.795" stop-color="#6747B2"/>
</linearGradient>
<linearGradient id="paint4_linear_2314_3924" x1="2740.5" y1="631.751" x2="2745.5" y2="1451.75" gradientUnits="userSpaceOnUse">
<stop offset="0.205" stop-color="#4B3EAA"/>
<stop offset="1" stop-color="#FFA87C"/>
</linearGradient>
<linearGradient id="paint5_linear_2314_3924" x1="173.567" y1="677.322" x2="179.971" y2="689.62" gradientUnits="userSpaceOnUse">
<stop stop-color="#E1E1E1"/>
<stop offset="1" stop-color="#978E9E"/>
</linearGradient>
<linearGradient id="paint6_linear_2314_3924" x1="227.032" y1="649.534" x2="253.264" y2="649.58" gradientUnits="userSpaceOnUse">
<stop stop-color="#8680E5"/>
<stop offset="0.44" stop-color="#4B3EAA"/>
</linearGradient>
<linearGradient id="paint7_linear_2314_3924" x1="122.019" y1="709.892" x2="136.485" y2="709.892" gradientUnits="userSpaceOnUse">
<stop stop-color="#61429D"/>
<stop offset="1" stop-color="#221737"/>
</linearGradient>
<linearGradient id="paint8_linear_2314_3924" x1="113.35" y1="733.213" x2="120.533" y2="733.213" gradientUnits="userSpaceOnUse">
<stop stop-color="#61429D"/>
<stop offset="1" stop-color="#221737"/>
</linearGradient>
<linearGradient id="paint9_linear_2314_3924" x1="162.917" y1="699.275" x2="165.417" y2="707.775" gradientUnits="userSpaceOnUse">
<stop stop-color="#978E9E"/>
<stop offset="1" stop-color="#E1E1E1"/>
</linearGradient>
<linearGradient id="paint10_linear_2314_3924" x1="193.875" y1="726.074" x2="263.875" y2="885.074" gradientUnits="userSpaceOnUse">
<stop stop-color="#61429D"/>
<stop offset="1" stop-color="#221737"/>
</linearGradient>
<linearGradient id="paint11_linear_2314_3924" x1="187.916" y1="729.306" x2="177.916" y2="891.306" gradientUnits="userSpaceOnUse">
<stop stop-color="#61429D"/>
<stop offset="1" stop-color="#221737"/>
</linearGradient>
<linearGradient id="paint12_linear_2314_3924" x1="182.864" y1="729.499" x2="119.864" y2="855.499" gradientUnits="userSpaceOnUse">
<stop stop-color="#61429D"/>
<stop offset="1" stop-color="#221737"/>
</linearGradient>
<linearGradient id="paint13_linear_2314_3924" x1="171.5" y1="806.983" x2="135" y2="922.983" gradientUnits="userSpaceOnUse">
<stop stop-color="#221737"/>
<stop offset="1" stop-color="#4B3EAA" stop-opacity="0"/>
</linearGradient>
<linearGradient id="paint14_linear_2314_3924" x1="53.0001" y1="791.501" x2="16.5" y2="907.501" gradientUnits="userSpaceOnUse">
<stop stop-color="#221737"/>
<stop offset="1" stop-color="#4B3EAA" stop-opacity="0"/>
</linearGradient>
<linearGradient id="paint15_linear_2314_3924" x1="122.957" y1="847.959" x2="123.173" y2="859.806" gradientUnits="userSpaceOnUse">
<stop stop-color="#8680E5"/>
<stop offset="1" stop-color="#4B3EAA"/>
</linearGradient>
<linearGradient id="paint16_linear_2314_3924" x1="111.686" y1="856.929" x2="113.343" y2="874.298" gradientUnits="userSpaceOnUse">
<stop stop-color="#8680E5"/>
<stop offset="1" stop-color="#4B3EAA"/>
</linearGradient>
<linearGradient id="paint17_linear_2314_3924" x1="83.3081" y1="670.733" x2="83.954" y2="864.252" gradientUnits="userSpaceOnUse">
<stop stop-color="#FFA87C"/>
<stop offset="0.84" stop-color="#3B2F99"/>
<stop offset="1" stop-color="#2C1973"/>
</linearGradient>
<clipPath id="clip0_2314_3924">
<rect width="480" height="932" fill="white"/>
</clipPath>
</defs>
</svg>
