<svg width="480" height="932" viewBox="0 0 480 932" fill="none" xmlns="http://www.w3.org/2000/svg">
<g clip-path="url(#clip0_2314_4380)">
<path d="M172 822.257L244.5 796.757L310 757.257L456.5 804.257L673 842.257L603.5 881.757H221L172 822.257Z" fill="url(#paint0_linear_2314_4380)"/>
<path d="M-163.999 -147.991C-94.4984 -258.491 -452.013 -204.488 1323.5 -203.999C1515 -215.999 1352 311.26 1388.5 489.26C1425 667.26 1294.21 687.501 1141.5 668.501C988.793 649.501 1159.07 508.76 1067.34 489.26C975.619 469.76 541.4 -4.5 470.5 -13C399.6 -21.5 470.5 236 470.5 287C470.5 338 433.706 406.26 398.504 424.26C363.302 442.26 163.992 602.53 64.8307 607.26C-34.3304 611.99 -71.5177 610.76 -115.149 616.76C-158.779 622.76 -245.05 673.26 -303.555 688.76C-362.06 704.26 -405.196 708.26 -446.347 677.76C-487.499 647.26 -565.838 628.76 -596.578 628.76C-627.318 628.76 -665.499 631.51 -678.999 634.51C-692.499 637.51 -712.499 644.51 -712.499 644.51C-712.499 644.51 -682.915 622.51 -672.999 618.01C-663.083 613.51 -623.847 590.02 -535.097 577.76C-446.348 565.5 -400.732 588.76 -371.48 558.26C-342.227 527.76 -336.773 471.26 -371.48 438.76C-406.186 406.26 -449.818 358.76 -410.649 276.26C-371.481 193.76 -320.908 203.76 -264.882 156.76C-208.856 109.76 -184.561 76.2599 -186.545 46.7599C-188.528 17.2599 -213.498 -30.7399 -207.498 -70.2399C-201.498 -109.74 -163.999 -147.991 -163.999 -147.991Z" fill="#221737"/>
<path d="M413.5 855.257L400.5 803.257L394.5 832.257L392 816.257L391 829.757L389 811.257L384 855.257L378.5 804.757L374 858.257L364 855.257L361 803.257L357 839.257L352 791.257L345.5 835.757L344.5 822.257L341.5 856.757L337 811.257L331 856.757H322.5L318.5 809.757L315 828.757L313 816.257L308 855.257L303.5 801.257L294.5 862.757H424.5L418 811.257L413.5 855.257Z" fill="url(#paint1_linear_2314_4380)" fill-opacity="0.5"/>
<path d="M-1255 744.001C-1255 744.001 -1182.05 771.001 -1095.02 771.001C-1008 771.001 -926.646 744.001 -918.073 744.001C-909.5 744.001 -622.49 813.001 -611.495 814.001C-600.5 815.001 -552 789.501 -549 792.001C-546 794.501 -442 824.001 -396.5 819.001C-351 814.001 -255.5 750.001 -255.5 750.001C-255.5 750.001 -120.5 789 -93.5 790.5C-66.5 792 47 752.501 73.5 754.501C100 756.501 297.5 811.501 360.5 823.001C423.5 834.501 450 760 486 757.5C522 755 962.5 749.001 992.5 749.501C1022.5 750.001 1225.5 836.501 1288.5 845.501C1351.5 854.501 1428.5 769.504 1428.5 769.504L2359.5 857.502C2359.5 857.502 2479 800.002 2589 745.502C2699 691.002 2980 734.002 3041 734.001C3102 734.001 3495.5 854.502 3515.5 854.501C3535.5 854.501 3575 830.001 3594 831.501C3613 833.002 3641.5 866.501 3664.5 866.501C3687.5 866.501 3920.5 760.001 3920.5 760.001C3920.5 760.001 3998 822.001 4103 806.501C4208 791.001 4306 707.501 4342 711.001C4378 714.501 4505 744.001 4505 744.001V919.001H-1255V744.001Z" fill="url(#paint2_linear_2314_4380)"/>
<path d="M538 769.5C470.418 782.541 437 811.997 437 811.997C437 811.997 384.901 844.235 359.5 845.497C334.099 846.759 119 822.004 21.2124 824.327C-76.5752 826.651 -392 922.004 -530.267 909.545C-668.533 897.086 -729.5 874.504 -819.16 842.766C-908.82 811.029 -968 778.479 -1008.28 771.004C-1048.56 763.529 -1252.5 778.479 -1252.5 778.479V932.747L4507.5 931.747V777.997C4507.5 777.997 4419 774.278 4362.5 777.997C4229.3 786.766 4029 852.997 4029 852.997C4029 852.997 3782.41 937.677 3632.5 895.497C3524.28 865.048 3422.5 750.997 3386.5 745.997C3350.5 740.997 3313.73 772.547 3270 758.997C3235.01 748.153 3194 703.997 3194 703.997C3194 703.997 3052.5 862.497 3037 860.997C3021.5 859.497 2984.5 843.997 2965 843.997C2945.5 843.997 2640.5 782.737 2590.5 778.737C2540.5 774.737 2529 780.737 2529 780.737C2529 780.737 2459.5 816.501 2429.65 818.004C2399.8 819.507 2359.17 803.504 2359.17 803.504C2359.17 803.504 2215.76 838.845 2121.9 845.004C1983.76 854.067 1768.97 812.004 1768.97 812.004L1371.5 762.501C1371.5 762.501 1250.06 906.134 1212.03 904.504C1174 902.873 1138 891.752 1022 840.997C906 790.242 770 760.497 770 760.497C770 760.497 552.899 766.625 538 769.5Z" fill="url(#paint3_linear_2314_4380)"/>
<circle cx="283.092" cy="334.352" r="4.39923" transform="rotate(146.718 283.092 334.352)" fill="#CCC3E0"/>
<circle cx="402.5" cy="169.5" r="7.5" fill="#CCC3E0"/>
<circle cx="391.5" cy="75.7598" r="3.5" fill="#CCC3E0"/>
<circle cx="265.5" cy="461.76" r="3.5" fill="#CCC3E0"/>
<circle cx="458.5" cy="48.7598" r="2.5" fill="#CCC3E0"/>
<circle cx="71.6708" cy="42.6809" r="1.18427" transform="rotate(48.7815 71.6708 42.6809)" fill="#CCC3E0"/>
<circle cx="361.671" cy="160.681" r="1.18427" transform="rotate(48.7815 361.671 160.681)" fill="#CCC3E0"/>
<circle cx="8.67079" cy="243.681" r="1.18427" transform="rotate(48.7815 8.67079 243.681)" fill="#CCC3E0"/>
<circle cx="188.671" cy="413.681" r="1.18427" transform="rotate(48.7815 188.671 413.681)" fill="#CCC3E0"/>
<circle cx="370.431" cy="220.487" r="3.14779" transform="rotate(-83.6442 370.431 220.487)" fill="#CCC3E0"/>
<circle cx="426.236" cy="381.04" r="3.14779" transform="rotate(-83.6442 426.236 381.04)" fill="#CCC3E0"/>
<circle cx="462.954" cy="247.464" r="1.62226" transform="rotate(-83.6442 462.954 247.464)" fill="#CCC3E0"/>
<circle cx="321.792" cy="245.589" r="1.62226" transform="rotate(-83.6442 321.792 245.589)" fill="#CCC3E0"/>
<circle cx="360.932" cy="237.651" r="1.62226" transform="rotate(-83.6442 360.932 237.651)" fill="#CCC3E0"/>
<circle cx="445.051" cy="372.33" r="1.62226" transform="rotate(-83.6442 445.051 372.33)" fill="#CCC3E0"/>
<circle cx="432" cy="257.26" r="3" fill="#CCC3E0"/>
<circle cx="115" cy="46.2598" r="2" fill="#CCC3E0"/>
<circle cx="99.5557" cy="60.9694" r="3" transform="rotate(146.718 99.5557 60.9694)" fill="#CCC3E0"/>
<path d="M479.098 845.925L488 830L492.275 838.921C492.275 838.921 483.376 852.473 482.5 852.5C481.624 852.526 470.818 853.038 470.224 851.809C469.63 850.579 474.684 849.802 474.684 849.802L471.853 849.264C471.853 849.264 464.028 851.996 461.775 852.064C459.522 852.132 459.507 851.509 459.507 851.509C459.507 851.509 466.691 845.677 468.928 844.985C471.166 844.293 479.098 845.925 479.098 845.925Z" fill="#FF8C8C"/>
</g>
<defs>
<linearGradient id="paint0_linear_2314_4380" x1="422.5" y1="757.257" x2="422.5" y2="881.757" gradientUnits="userSpaceOnUse">
<stop stop-color="#8680E5" stop-opacity="0.41"/>
<stop offset="0.575" stop-color="#FFBAE3"/>
</linearGradient>
<linearGradient id="paint1_linear_2314_4380" x1="357" y1="800.757" x2="357" y2="870.757" gradientUnits="userSpaceOnUse">
<stop stop-color="#2C1973"/>
<stop offset="0.795" stop-color="#6747B2"/>
</linearGradient>
<linearGradient id="paint2_linear_2314_4380" x1="1627" y1="634.783" x2="1627" y2="1279.78" gradientUnits="userSpaceOnUse">
<stop offset="0.24" stop-color="#8680E5"/>
<stop offset="0.605" stop-color="#E3ADE4"/>
<stop offset="0.65" stop-color="#FFA87C"/>
</linearGradient>
<linearGradient id="paint3_linear_2314_4380" x1="1781" y1="631.497" x2="1786" y2="1451.5" gradientUnits="userSpaceOnUse">
<stop offset="0.205" stop-color="#4B3EAA"/>
<stop offset="1" stop-color="#FFA87C"/>
</linearGradient>
<clipPath id="clip0_2314_4380">
<rect width="480" height="932" fill="white"/>
</clipPath>
</defs>
</svg>
