<svg width="320" height="932" viewBox="0 0 320 932" fill="none" xmlns="http://www.w3.org/2000/svg">
<g clip-path="url(#clip0_2353_512)">
<path d="M112 829.371C112 829.371 159.126 809.975 185.587 792.619C219.817 770.167 250.047 718.618 261.456 723.585C272.865 728.552 369.382 740.202 428.595 770.27C470.46 791.528 525 838.31 525 838.31L159.917 847.25L112 829.371Z" fill="url(#paint0_linear_2353_512)"/>
<path d="M5009 -196.5C3233.49 -196.988 545.5 -258.5 475.999 -147.999C475.999 -147.999 438.5 -109.749 432.5 -70.2492C426.5 -30.7492 451.47 17.2511 453.454 46.7511C455.437 76.2511 362.026 10 306 57C249.974 104 144.071 49 104.902 131.5C65.7337 214 79.3438 263.5 43.4219 306.5C7.5 349.5 34.5 376.5 43.4219 426C52.3438 475.5 193.652 565.491 104.902 577.751C16.1531 590.011 -23.0834 613.501 -32.9995 618.001C-42.9156 622.501 -72.4995 644.501 -72.4995 644.501C-72.4995 644.501 -52.4995 637.501 -38.9995 634.501C-25.4995 631.501 12.6819 628.751 43.4219 628.751C74.1618 628.751 152.499 647.251 193.651 677.751C234.803 708.251 277.938 704.251 336.443 688.751C394.948 673.251 481.219 622.751 524.85 616.751C568.481 610.751 605.667 611.981 704.828 607.251C803.989 602.521 1003.3 442.251 1038.5 424.251C1073.7 406.251 1115.35 395.251 1156 396.251C1196.66 397.251 1413.82 475.751 1484.72 484.251C1555.62 492.751 1615.62 469.751 1707.34 489.251C1799.06 508.751 2040.52 697.751 2193.23 716.751C2345.94 735.751 2672.67 662.335 2778.28 700.251C2883.89 738.167 2868.52 796.251 2938.92 824.251C3009.32 852.251 3223.5 927.001 3223.5 927.001L4197.5 925.001C4197.5 925.001 4280.41 903.966 4335.99 875.752C4452.48 816.621 4556.61 878.76 4634.99 774.251C4690.49 700.251 4720.99 544.751 4774.49 491.251C4813.5 452.243 4890.98 386.263 5022.49 294.251C5154 202.239 5150.5 -96.9988 5142.5 -146.749C5134.5 -196.5 5087.5 -196.5 5009 -196.5Z" fill="#221737"/>
<path d="M307.667 812.71L300.636 771.131L292.483 810.316L289.822 787.832L287.747 817.423L284.606 786.107L281.441 820.91L274.242 820.618L271.979 797.365L269.967 820.631L266.55 781.685L261.973 824.518L260.294 802.413L259.272 825.157L255.706 796.439L252.182 826.834L246.442 828.192L244.411 804.393L242.276 830.175L239.206 803.317L236.427 829.564L233.204 795.455L228.951 833.959L217.908 835.731L216.346 824.107L214.451 835.879L212.623 829.462L210.989 835.703L210.342 838.653L228.429 836.444L316.213 815.676L311.525 781.706L307.667 812.71Z" fill="url(#paint1_linear_2353_512)" fill-opacity="0.5"/>
<path d="M-613 748.251C-613 748.251 -540.048 775.251 -453.024 775.251C-366 775.251 -284.646 748.251 -276.073 748.251C-267.5 748.251 19.5095 817.251 30.5048 818.251C41.5 819.251 90 793.751 93 796.251C96 798.751 200 828.251 245.5 823.251C291 818.251 386.5 754.251 386.5 754.251C386.5 754.251 520 782.751 547 784.251C574 785.751 689 756.751 715.5 758.751C742 760.751 939.5 815.751 1002.5 827.251C1065.5 838.751 1252.5 841.251 1288.5 838.751C1324.5 836.251 1604.5 753.251 1634.5 753.751C1664.5 754.251 1867.5 840.751 1930.5 849.751C1993.5 858.751 2517 878.751 2517 878.751L3211.5 860.751C3211.5 860.751 3334 842.752 3418 821.251C3502 799.751 3622 738.252 3683 738.251C3744 738.251 4137.5 858.752 4157.5 858.751C4177.5 858.751 4217 834.251 4236 835.751C4255 837.252 4283.5 870.751 4306.5 870.751C4329.5 870.751 4562.5 764.251 4562.5 764.251C4562.5 764.251 4640 826.251 4745 810.751C4850 795.251 4948 711.751 4984 715.251C5020 718.751 5147 748.251 5147 748.251V923.251H-613V748.251Z" fill="url(#paint2_linear_2353_512)"/>
<path d="M77.377 907.949L80.4984 881.663L85.5 913.92L94.3213 860.449L100.5 913.483H105L115.725 821.25L125.5 913.483H128.21L134.452 870.133L142.479 914.405L144.262 899.648L145.6 914.405L150.059 912.1L159.423 848.92L163.882 884.43L171.016 838.313L179.934 898.726L187.961 847.536L196.5 916.25L64 913.483L71.5803 864.6L77.377 907.949Z" fill="url(#paint3_linear_2353_512)"/>
<path d="M1293.1 873.917C1225.52 886.958 1076.5 812.25 1076.5 812.25C1076.5 812.25 1024.4 844.488 999 845.75C973.599 847.012 758.5 822.257 660.712 824.58C562.925 826.904 247.5 922.257 109.233 909.798C-29.033 897.339 -90.0002 874.757 -179.66 843.019C-269.32 811.282 -328.5 778.732 -368.781 771.257C-409.062 763.782 -613 778.732 -613 778.732V933L5147 932V778.25C5147 778.25 5058.5 774.53 5002 778.25C4868.8 787.019 4668.5 853.25 4668.5 853.25C4668.5 853.25 4421.91 937.93 4272 895.75C4163.78 865.301 4062 751.25 4026 746.25C3990 741.25 3953.23 772.8 3909.5 759.25C3874.51 748.406 3833.5 704.25 3833.5 704.25C3833.5 704.25 3692 862.75 3676.5 861.25C3661 859.75 3624 844.25 3604.5 844.25C3585 844.25 3451 888.75 3401 884.75C3351 880.75 3227 774.757 3227 774.757C3227 774.757 3099 816.754 3069.15 818.257C3039.3 819.76 2998.67 803.757 2998.67 803.757C2998.67 803.757 2855.26 839.098 2761.4 845.257C2623.26 854.32 2408.47 812.257 2408.47 812.257L2227.29 859.757C2227.29 859.757 1889.56 906.387 1851.53 904.757C1813.5 903.126 1805 904.005 1689 853.25C1573 802.495 1409.5 760.75 1409.5 760.75C1409.5 760.75 1308 871.042 1293.1 873.917Z" fill="url(#paint4_linear_2353_512)"/>
<circle cx="318.092" cy="530.342" r="4.39923" transform="rotate(146.718 318.092 530.342)" fill="#CCC3E0"/>
<circle cx="323.671" cy="204.264" r="3.5" transform="rotate(146.718 323.671 204.264)" fill="#CCC3E0"/>
<circle cx="66.6708" cy="307.671" r="1.18427" transform="rotate(48.7815 66.6708 307.671)" fill="#CCC3E0"/>
<circle cx="253.671" cy="355.671" r="1.18427" transform="rotate(48.7815 253.671 355.671)" fill="#CCC3E0"/>
<circle cx="125.671" cy="554.671" r="1.18427" transform="rotate(48.7815 125.671 554.671)" fill="#CCC3E0"/>
<circle cx="6.67079" cy="652.671" r="1.18427" transform="rotate(48.7815 6.67079 652.671)" fill="#CCC3E0"/>
<circle cx="39.6708" cy="567.671" r="1.18427" transform="rotate(48.7815 39.6708 567.671)" fill="#CCC3E0"/>
<circle cx="161.5" cy="577.75" r="2.5" fill="#CCC3E0"/>
<circle cx="98" cy="322.25" r="3" fill="#CCC3E0"/>
<circle cx="123.5" cy="184.75" r="1.5" fill="#CCC3E0"/>
<circle cx="190.215" cy="74.7555" r="3" transform="rotate(146.718 190.215 74.7555)" fill="#CCC3E0"/>
</g>
<defs>
<linearGradient id="paint0_linear_2353_512" x1="318.5" y1="667.961" x2="318.5" y2="847.25" gradientUnits="userSpaceOnUse">
<stop stop-color="#8680E5" stop-opacity="0.41"/>
<stop offset="0.789681" stop-color="#FFBAE3"/>
</linearGradient>
<linearGradient id="paint1_linear_2353_512" x1="261.204" y1="788.12" x2="271.634" y2="832.208" gradientUnits="userSpaceOnUse">
<stop stop-color="#2C1973"/>
<stop offset="0.795" stop-color="#6747B2"/>
</linearGradient>
<linearGradient id="paint2_linear_2353_512" x1="2267" y1="634.751" x2="2267" y2="1279.75" gradientUnits="userSpaceOnUse">
<stop offset="0.24" stop-color="#8680E5"/>
<stop offset="0.605" stop-color="#E3ADE4"/>
<stop offset="0.65" stop-color="#FFA87C"/>
</linearGradient>
<linearGradient id="paint3_linear_2353_512" x1="134.898" y1="859.988" x2="134.898" y2="924.551" gradientUnits="userSpaceOnUse">
<stop stop-color="#2C1973"/>
<stop offset="0.795" stop-color="#6747B2"/>
</linearGradient>
<linearGradient id="paint4_linear_2353_512" x1="2420.5" y1="631.75" x2="2425.5" y2="1451.75" gradientUnits="userSpaceOnUse">
<stop offset="0.205" stop-color="#4B3EAA"/>
<stop offset="1" stop-color="#FFA87C"/>
</linearGradient>
<clipPath id="clip0_2353_512">
<rect width="320" height="932" fill="white"/>
</clipPath>
</defs>
</svg>
