<svg width="320" height="932" viewBox="0 0 320 932" fill="none" xmlns="http://www.w3.org/2000/svg">
<g clip-path="url(#clip0_2353_969)">
<path d="M5329 -196.5C3553.49 -196.988 865.5 -258.5 795.999 -147.999C795.999 -147.999 758.5 -109.749 752.5 -70.2492C746.5 -30.7492 771.47 17.2511 773.454 46.7511C775.437 76.2511 751.142 109.751 695.116 156.751C639.09 203.751 588.518 193.751 549.35 276.251C510.181 358.751 553.812 406.251 588.519 438.751C623.225 471.251 617.771 527.751 588.519 558.251C559.266 588.751 513.652 565.491 424.902 577.751C336.153 590.011 296.917 613.501 287 618.001C277.084 622.501 247.5 644.501 247.5 644.501C247.5 644.501 267.5 637.501 281 634.501C294.5 631.501 332.682 628.751 363.422 628.751C394.162 628.751 472.499 647.251 513.651 677.751C554.803 708.251 597.938 704.251 656.443 688.751C714.948 673.251 801.219 622.751 844.85 616.751C888.481 610.751 925.667 611.981 1024.83 607.251C1123.99 602.521 1323.3 442.251 1358.5 424.251C1393.7 406.251 1435.35 395.251 1476 396.251C1516.66 397.251 1733.82 475.751 1804.72 484.251C1875.62 492.751 1935.62 469.751 2027.34 489.251C2119.06 508.751 2360.52 697.751 2513.23 716.751C2665.94 735.751 2992.67 662.335 3098.28 700.251C3203.89 738.167 3188.52 796.251 3258.92 824.251C3329.32 852.251 3543.5 927.001 3543.5 927.001L4517.5 925.001C4517.5 925.001 4600.41 903.966 4655.99 875.752C4772.48 816.621 4876.61 878.76 4954.99 774.251C5010.49 700.251 5040.99 544.751 5094.49 491.251C5133.5 452.243 5210.98 386.263 5342.49 294.251C5474 202.239 5470.5 -96.9988 5462.5 -146.749C5454.5 -196.5 5407.5 -196.5 5329 -196.5Z" fill="#221737"/>
<path d="M-293 748.251C-293 748.251 -220.048 775.251 -133.024 775.251C-46 775.251 35.3539 748.251 43.927 748.251C52.5 748.251 339.51 817.251 350.505 818.251C361.5 819.251 410 793.751 413 796.251C416 798.751 520 828.251 565.5 823.251C611 818.251 706.5 754.251 706.5 754.251C706.5 754.251 840 782.751 867 784.251C894 785.751 1009 756.751 1035.5 758.751C1062 760.751 1259.5 815.751 1322.5 827.251C1385.5 838.751 1572.5 841.251 1608.5 838.751C1644.5 836.251 1924.5 753.251 1954.5 753.751C1984.5 754.251 2187.5 840.751 2250.5 849.751C2313.5 858.751 2837 878.751 2837 878.751L3531.5 860.751C3531.5 860.751 3654 842.752 3738 821.251C3822 799.751 3942 738.252 4003 738.251C4064 738.251 4457.5 858.752 4477.5 858.751C4497.5 858.751 4537 834.251 4556 835.751C4575 837.252 4603.5 870.751 4626.5 870.751C4649.5 870.751 4882.5 764.251 4882.5 764.251C4882.5 764.251 4960 826.251 5065 810.751C5170 795.251 5268 711.751 5304 715.251C5340 718.751 5467 748.251 5467 748.251V923.251H-293V748.251Z" fill="url(#paint0_linear_2353_969)"/>
<path d="M217.501 866.252L224.901 815.252L234.001 875.252L239.501 848.252L243.143 876.618L245.406 853.366L247.418 876.631L256.5 830.752L258.5 878.252L263.5 825.252L271.5 871.752L275.5 831.752L282.5 885.842L284.181 851.455L288.434 889.959L268.5 885.252L248.5 879.752L207 867.252L211.001 841.252L217.501 866.252Z" fill="url(#paint1_linear_2353_969)" fill-opacity="0.5"/>
<path d="M1613.1 873.917C1545.52 886.958 1396.5 812.25 1396.5 812.25C1396.5 812.25 1344.4 844.488 1319 845.75C1293.6 847.012 1078.5 822.257 980.712 824.58C882.925 826.904 567.5 922.257 429.233 909.798C290.967 897.339 230 874.757 140.34 843.019C50.6799 811.282 -22.7192 832.975 -63 825.5C-103.281 818.025 -293 778.732 -293 778.732V933L5467 932V778.25C5467 778.25 5378.5 774.53 5322 778.25C5188.8 787.019 4988.5 853.25 4988.5 853.25C4988.5 853.25 4741.91 937.93 4592 895.75C4483.78 865.301 4382 751.25 4346 746.25C4310 741.25 4273.23 772.8 4229.5 759.25C4194.51 748.406 4153.5 704.25 4153.5 704.25C4153.5 704.25 4012 862.75 3996.5 861.25C3981 859.75 3944 844.25 3924.5 844.25C3905 844.25 3771 888.75 3721 884.75C3671 880.75 3547 774.757 3547 774.757C3547 774.757 3419 816.754 3389.15 818.257C3359.3 819.76 3318.67 803.757 3318.67 803.757C3318.67 803.757 3175.26 839.098 3081.4 845.257C2943.26 854.32 2728.47 812.257 2728.47 812.257L2547.29 859.757C2547.29 859.757 2209.56 906.387 2171.53 904.757C2133.5 903.126 2125 904.005 2009 853.25C1893 802.495 1729.5 760.75 1729.5 760.75C1729.5 760.75 1628 871.042 1613.1 873.917Z" fill="url(#paint2_linear_2353_969)"/>
<path d="M120.913 702.743L210.05 651.885L219.593 668.077L128.793 717.127L120.913 702.743Z" fill="url(#paint3_linear_2353_969)"/>
<rect x="227.032" y="638.033" width="26.6145" height="23.0009" transform="rotate(58.8042 227.032 638.033)" fill="url(#paint4_linear_2353_969)"/>
<rect x="122.019" y="703.516" width="14.4664" height="12.7499" transform="rotate(60.9879 122.019 703.516)" fill="url(#paint5_linear_2353_969)"/>
<rect x="113.35" y="713.805" width="7.18387" height="38.817" transform="rotate(60.9879 113.35 713.805)" fill="url(#paint6_linear_2353_969)"/>
<circle cx="162.917" cy="703.775" r="7.5" fill="#221737"/>
<circle cx="162.917" cy="703.775" r="4.5" fill="url(#paint7_linear_2353_969)"/>
<line x1="262.502" y1="885.678" x2="192.502" y2="726.678" stroke="url(#paint8_linear_2353_969)" stroke-width="2"/>
<line x1="176.419" y1="891.214" x2="186.419" y2="729.214" stroke="url(#paint9_linear_2353_969)" stroke-width="2"/>
<line x1="118.523" y1="854.828" x2="181.523" y2="728.828" stroke="url(#paint10_linear_2353_969)" stroke-width="2"/>
<rect x="171.417" y="719.275" width="27" height="10" fill="#221737"/>
<rect x="165.663" y="709.914" width="5" height="17.0002" transform="rotate(-38.5742 165.663 709.914)" fill="#221737"/>
<rect x="188.417" y="722.275" width="7" height="3" fill="#D9D9D9"/>
<path d="M139 842.5L214.5 868.982L268 884C268 884 221.566 887.957 197 897.482C177.53 905.03 150 920.732 150 920.732L31.5 910.982C31.5 910.982 59.6801 884.275 80.5 870.982C101.699 857.446 139 842.5 139 842.5Z" fill="url(#paint11_linear_2353_969)"/>
<path d="M34 840.002L136 858.002C136 858.002 103.066 872.478 78.5 882.002C59.0299 889.55 31.5 907.502 31.5 907.502L-108 880.484C-108 880.484 -54.876 858.318 -31 851.984C-6.5 845.484 34 840.002 34 840.002Z" fill="url(#paint12_linear_2353_969)"/>
<path d="M-0.901932 845.798L8.45579 829.982L12.2744 838.794C12.2744 838.794 2.9596 852.544 2.08386 852.571C1.20812 852.597 -9.18162 852.911 -9.7757 851.682C-10.3698 850.452 -5.31571 849.675 -5.31571 849.675L-8.14748 849.137C-8.14748 849.137 -15.9717 851.869 -18.2248 851.937C-20.4779 852.006 -20.4933 851.382 -20.4933 851.382C-20.4933 851.382 -13.3094 845.55 -11.0717 844.858C-8.83397 844.167 -0.901932 845.798 -0.901932 845.798Z" fill="#FF8C8C"/>
<path d="M48.4948 737.488C49.1937 735.96 47.1461 729.386 50.8129 727.297C52.5513 726.306 54.591 726.534 56.3625 725.622C58.1875 724.682 58.308 722.864 60.2971 722.557C64.5348 721.904 62.5082 724.694 64.233 725.229C64.9822 725.461 66.836 721.934 69.5804 721.946C73.1488 721.962 75.91 725.072 76.2421 729.115C76.5386 732.723 74.2099 732.993 74.9323 735.873C75.5303 738.257 77.7578 735.437 77.6583 740.37C77.5588 745.303 69.6881 745.696 69.6881 745.696C69.6881 745.696 48.1845 760.519 47.9944 750.678C47.9557 748.674 49.5002 747.481 48.8002 745.636C48.1741 743.986 46.6765 744.484 46.2749 742.747C45.36 738.791 47.6741 739.282 48.4948 737.488Z" fill="#221737"/>
<path d="M54.5685 736.808C54.5685 736.808 61.1599 730.78 64.65 730.712C68.1402 730.644 75.0073 740.474 73.7794 748.228C72.5516 755.983 64.2231 755.754 64.2231 755.754L62.6858 762.8L68.5927 768.125C68.5927 768.125 64.2317 771.255 59.0135 771.244C52.6263 771.229 48.8708 764.383 48.8708 764.383C48.8708 764.383 53.6398 761.571 54.1979 753.163C54.756 744.755 54.1979 746.707 54.1979 746.707C54.1979 746.707 51.0269 747.189 51.7717 740.265C51.9295 738.799 54.8486 739.034 54.8486 739.034L54.5685 736.808Z" fill="#FF8C8C"/>
<path d="M108.23 848.227L123 848.227C123 848.227 131.084 852.801 134.777 853.981C138.47 855.162 137.8 859.54 137.8 859.54L108.406 860.074L108.23 848.227Z" fill="url(#paint13_linear_2353_969)"/>
<path d="M26.8457 775.345C30.9323 771.143 49.2207 763.774 49.2207 763.774C49.2207 763.774 54.6227 770.201 59.1496 770.418C62.9891 770.603 68.3041 766.422 68.3041 766.422C68.3041 766.422 84.8041 778.951 88.8951 791.598C92.986 804.246 90.4439 812.88 90.4439 812.88L71.1372 833.937C71.1372 833.937 27.1806 833.189 26.1095 831.481C25.0385 829.773 25.7534 825.226 25.7534 825.226C25.7534 825.226 23.1875 834.487 17.9333 839.89C12.6791 845.293 7.07105 829.484 7.07105 829.484C7.07105 829.484 11.4341 822.24 13.6376 816.266C15.8411 810.292 22.7591 779.547 26.8457 775.345Z" fill="#2C1973"/>
<path d="M35.551 784.581C35.551 784.581 33.9277 799.969 30.7397 811.073C27.5517 822.176 25.1324 827.07 25.1324 827.07" stroke="#8680E5"/>
<path d="M29.8936 780.042C29.8936 780.042 30.5752 780.403 31.7298 782.254C32.8843 784.104 33.4755 785.964 33.4755 785.964" stroke="#8680E5"/>
<path d="M79.7822 777.496C79.7822 777.496 77.9894 780.544 77.7411 788.022C77.4928 795.501 79.0787 798.686 79.0787 798.686" stroke="#8680E5"/>
<path d="M97.1748 862.774L108.949 857.192C108.949 857.192 111.862 860.342 114.388 861.68C118.011 863.599 123.787 858.906 126.933 862.988C130.079 867.069 101.321 875.446 101.321 875.446L97.1748 862.774Z" fill="url(#paint14_linear_2353_969)"/>
<path d="M31.3482 832.144L44.88 832.521C44.88 832.521 75.3494 797.038 82.0638 793.798C88.7781 790.557 89.3699 792.417 91.6417 793.624C93.9136 794.83 97.978 802.864 97.978 802.864C97.978 802.864 118.564 784.944 122.689 784.33C126.813 783.716 129.45 783.706 133.269 788.501C137.088 793.295 123.444 847.934 123.444 847.934L114.993 848.087L117.329 853.658L94.9412 864.045L88.4383 843.58C88.4383 843.58 71.1203 853.875 58.2082 857.228C45.296 860.582 36.1982 855.134 33.2886 848.949C30.379 842.765 31.3482 832.144 31.3482 832.144Z" fill="url(#paint15_linear_2353_969)"/>
<path d="M98.5322 802.23L116.726 853.447" stroke="#221737"/>
<path d="M82.249 806.789C82.249 806.789 81.3746 818.364 82.5282 825.599C83.7317 833.146 88.4384 844.1 88.4384 844.1" stroke="#221737"/>
<path d="M70.6367 851.637C70.6367 851.637 75.3275 847.201 77.7335 843.774C80.7811 839.432 83.8624 831.437 83.8624 831.437" stroke="#221737"/>
<path d="M38.9437 843.497L46.5321 829.995" stroke="#221737"/>
<path d="M119.279 797.711C119.279 797.711 114.833 806.541 112.775 812.575C110.483 819.293 108.492 830.341 108.492 830.341" stroke="#221737"/>
<path d="M58.6475 751.06C58.6475 751.06 59.8089 753.126 60.7949 754.217C61.7809 755.308 64 756.204 64 756.204" stroke="#D15B5B"/>
<path d="M69 739.604C69 739.604 69.0314 740.552 69.7033 741.904C70.3751 743.257 72.2805 744.801 72.2805 744.801" stroke="#D15B5B"/>
<path d="M60.1743 743.039C60.1743 743.039 61.0974 743.256 62.5784 742.961C64.0595 742.667 66.0497 741.234 66.0497 741.234" stroke="#D15B5B"/>
<path d="M70.5758 739.377C70.5758 739.377 70.4398 739.581 70.0782 739.79C69.7165 739.999 68.9994 740.087 68.9994 740.087" stroke="#D15B5B"/>
<line y1="-0.5" x2="6.33732" y2="-0.5" transform="matrix(0.192411 0.980719 -0.973 0.233835 113.171 801.34)" stroke="#221737"/>
<path d="M53.9469 733.155L56.7876 729.723C56.7876 729.723 60.7931 731.155 60.4735 733.46C60.2337 735.189 59.168 736.477 57.6328 736.892C56.4885 737.202 55.6476 736.983 54.8429 736.167C54.0383 735.352 53.9469 733.155 53.9469 733.155Z" fill="#221737"/>
</g>
<defs>
<linearGradient id="paint0_linear_2353_969" x1="2587" y1="634.751" x2="2587" y2="1279.75" gradientUnits="userSpaceOnUse">
<stop offset="0.24" stop-color="#8680E5"/>
<stop offset="0.605" stop-color="#E3ADE4"/>
<stop offset="0.65" stop-color="#FFA87C"/>
</linearGradient>
<linearGradient id="paint1_linear_2353_969" x1="256.181" y1="844.12" x2="245.75" y2="888.208" gradientUnits="userSpaceOnUse">
<stop stop-color="#2C1973"/>
<stop offset="0.795" stop-color="#6747B2"/>
</linearGradient>
<linearGradient id="paint2_linear_2353_969" x1="2740.5" y1="631.75" x2="2745.5" y2="1451.75" gradientUnits="userSpaceOnUse">
<stop offset="0.205" stop-color="#4B3EAA"/>
<stop offset="1" stop-color="#FFA87C"/>
</linearGradient>
<linearGradient id="paint3_linear_2353_969" x1="173.567" y1="677.322" x2="179.971" y2="689.619" gradientUnits="userSpaceOnUse">
<stop stop-color="#E1E1E1"/>
<stop offset="1" stop-color="#978E9E"/>
</linearGradient>
<linearGradient id="paint4_linear_2353_969" x1="227.032" y1="649.534" x2="253.264" y2="649.58" gradientUnits="userSpaceOnUse">
<stop stop-color="#8680E5"/>
<stop offset="0.44" stop-color="#4B3EAA"/>
</linearGradient>
<linearGradient id="paint5_linear_2353_969" x1="122.019" y1="709.891" x2="136.485" y2="709.891" gradientUnits="userSpaceOnUse">
<stop stop-color="#61429D"/>
<stop offset="1" stop-color="#221737"/>
</linearGradient>
<linearGradient id="paint6_linear_2353_969" x1="113.35" y1="733.213" x2="120.533" y2="733.213" gradientUnits="userSpaceOnUse">
<stop stop-color="#61429D"/>
<stop offset="1" stop-color="#221737"/>
</linearGradient>
<linearGradient id="paint7_linear_2353_969" x1="162.917" y1="699.275" x2="165.417" y2="707.775" gradientUnits="userSpaceOnUse">
<stop stop-color="#978E9E"/>
<stop offset="1" stop-color="#E1E1E1"/>
</linearGradient>
<linearGradient id="paint8_linear_2353_969" x1="193.875" y1="726.074" x2="263.875" y2="885.074" gradientUnits="userSpaceOnUse">
<stop stop-color="#61429D"/>
<stop offset="1" stop-color="#221737"/>
</linearGradient>
<linearGradient id="paint9_linear_2353_969" x1="187.916" y1="729.306" x2="177.916" y2="891.306" gradientUnits="userSpaceOnUse">
<stop stop-color="#61429D"/>
<stop offset="1" stop-color="#221737"/>
</linearGradient>
<linearGradient id="paint10_linear_2353_969" x1="182.864" y1="729.499" x2="119.864" y2="855.499" gradientUnits="userSpaceOnUse">
<stop stop-color="#61429D"/>
<stop offset="1" stop-color="#221737"/>
</linearGradient>
<linearGradient id="paint11_linear_2353_969" x1="171.5" y1="806.982" x2="135" y2="922.982" gradientUnits="userSpaceOnUse">
<stop stop-color="#221737"/>
<stop offset="1" stop-color="#4B3EAA" stop-opacity="0"/>
</linearGradient>
<linearGradient id="paint12_linear_2353_969" x1="53.0001" y1="791.502" x2="16.5" y2="907.502" gradientUnits="userSpaceOnUse">
<stop stop-color="#221737"/>
<stop offset="1" stop-color="#4B3EAA" stop-opacity="0"/>
</linearGradient>
<linearGradient id="paint13_linear_2353_969" x1="122.957" y1="847.959" x2="123.173" y2="859.806" gradientUnits="userSpaceOnUse">
<stop stop-color="#8680E5"/>
<stop offset="1" stop-color="#4B3EAA"/>
</linearGradient>
<linearGradient id="paint14_linear_2353_969" x1="111.686" y1="856.93" x2="113.343" y2="874.299" gradientUnits="userSpaceOnUse">
<stop stop-color="#8680E5"/>
<stop offset="1" stop-color="#4B3EAA"/>
</linearGradient>
<linearGradient id="paint15_linear_2353_969" x1="83.3081" y1="670.735" x2="83.954" y2="864.254" gradientUnits="userSpaceOnUse">
<stop stop-color="#FFA87C"/>
<stop offset="0.84" stop-color="#3B2F99"/>
<stop offset="1" stop-color="#2C1973"/>
</linearGradient>
<clipPath id="clip0_2353_969">
<rect width="320" height="932" fill="white"/>
</clipPath>
</defs>
</svg>
