<svg width="320" height="932" viewBox="0 0 320 932" fill="none" xmlns="http://www.w3.org/2000/svg">
<g clip-path="url(#clip0_2353_740)">
<path d="M-207 829.377C-207 829.377 -159.874 809.981 -133.413 792.625C-99.1833 770.173 -68.953 718.624 -57.5442 723.591C-46.1354 728.557 50.3817 740.208 109.595 770.276C151.46 791.534 206 838.316 206 838.316L-159.083 847.256L-207 829.377Z" fill="url(#paint0_linear_2353_740)"/>
<path d="M157.001 -147.991C226.502 -258.491 -131.013 -204.488 1644.5 -203.999C1836 -215.999 1673 311.26 1709.5 489.26C1746 667.26 1615.21 687.501 1462.5 668.501C1309.79 649.501 1480.07 508.76 1388.34 489.26C1296.62 469.76 439.4 -18 368.5 -26.5C297.6 -35 269.5 115.5 269.5 166.5C269.5 217.5 297 349 299.5 371C302 393 361.161 638.27 262 643C162.839 647.73 181.131 623 137.5 629C93.8691 635 75.95 673.26 17.4449 688.76C-41.0601 704.26 -84.1956 708.26 -125.347 677.76C-166.499 647.26 -244.838 628.76 -275.578 628.76C-306.318 628.76 -344.499 631.51 -357.999 634.51C-371.499 637.51 -391.499 644.51 -391.499 644.51C-391.499 644.51 -361.915 622.51 -351.999 618.01C-342.083 613.51 -302.847 590.02 -214.097 577.76C-125.348 565.5 -79.7324 588.76 -50.4799 558.26C-21.2273 527.76 -15.7734 471.26 -50.4799 438.76C-85.1863 406.26 -128.818 358.76 -89.6492 276.26C-50.4806 193.76 -64.5 89.0197 1.5 46.7599C67.5 4.5 78.9833 3 77 -26.5C75.0167 -56 107.502 -30.7399 113.502 -70.2399C119.502 -109.74 157.001 -147.991 157.001 -147.991Z" fill="#221737"/>
<path d="M-11.3328 812.716L-18.3639 771.137L-26.5167 810.322L-29.1781 787.838L-31.2529 817.428L-34.3937 786.113L-37.5585 820.915L-44.7581 820.623L-47.0209 797.371L-49.0332 820.637L-52.4505 781.691L-57.0269 824.524L-58.7056 802.419L-59.7279 825.163L-63.2945 796.445L-66.8182 826.84L-72.5579 828.198L-74.5887 804.398L-76.7235 830.181L-79.7943 803.322L-82.5726 829.57L-85.7959 795.461L-90.0487 833.965L-101.092 835.737L-102.654 824.112L-104.549 835.885L-106.377 829.468L-108.011 835.709L-108.658 838.659L-90.5711 836.45L-2.78742 815.682L-7.47547 781.712L-11.3328 812.716Z" fill="url(#paint1_linear_2353_740)" fill-opacity="0.5"/>
<path d="M-934 744.001C-934 744.001 -861.048 771.001 -774.024 771.001C-687 771.001 -605.646 744.001 -597.073 744.001C-588.5 744.001 -301.49 813.001 -290.495 814.001C-279.5 815.001 -231 789.501 -228 792.001C-225 794.501 -121 824.001 -75.5 819.001C-30 814.001 65.5 750.001 65.5 750.001C65.5 750.001 196.5 784 223.5 785.5C250.5 787 306 755.5 332.5 757.5C359 759.5 618.5 811.501 681.5 823.001C744.5 834.501 771 760 807 757.5C843 755 1283.5 749.001 1313.5 749.501C1343.5 750.001 1546.5 836.501 1609.5 845.501C1672.5 854.501 1749.5 769.504 1749.5 769.504L2680.5 857.502C2680.5 857.502 2800 800.002 2910 745.502C3020 691.002 3301 734.002 3362 734.001C3423 734.001 3816.5 854.502 3836.5 854.501C3856.5 854.501 3896 830.001 3915 831.501C3934 833.002 3962.5 866.501 3985.5 866.501C4008.5 866.501 4241.5 760.001 4241.5 760.001C4241.5 760.001 4319 822.001 4424 806.501C4529 791.001 4627 707.501 4663 711.001C4699 714.501 4826 744.001 4826 744.001V919.001H-934V744.001Z" fill="url(#paint2_linear_2353_740)"/>
<path d="M188 853.756L198.5 783.756L208.5 844.756L212.5 812.756L217.5 853.756L223 806.756L227.5 856.756L237.5 853.756L242.5 816.756L243.5 852.256L249.5 789.756L256 855.256L258.5 821.256L260 855.256L264.5 809.756L270.5 855.256H279L283 818.756L285.5 856.756L288.5 814.756L293.5 853.756L298 799.756L307 861.256H177L184.5 803.256L188 853.756Z" fill="url(#paint3_linear_2353_740)"/>
<path d="M859 769.499C791.418 782.54 758 811.996 758 811.996C758 811.996 705.901 844.234 680.5 845.496C655.099 846.758 440 822.003 342.212 824.326C244.425 826.65 -71.0002 922.003 -209.267 909.544C-347.533 897.086 -408.5 874.503 -498.16 842.765C-587.82 811.028 -647 778.478 -687.281 771.003C-727.562 763.528 -931.5 778.478 -931.5 778.478V932.746L4828.5 931.746V777.996C4828.5 777.996 4740 774.277 4683.5 777.996C4550.3 786.765 4350 852.996 4350 852.996C4350 852.996 4103.41 937.676 3953.5 895.496C3845.28 865.048 3743.5 750.996 3707.5 745.996C3671.5 740.996 3634.73 772.546 3591 758.996C3556.01 748.152 3515 703.996 3515 703.996C3515 703.996 3373.5 862.496 3358 860.996C3342.5 859.496 3305.5 843.996 3286 843.996C3266.5 843.996 2961.5 782.736 2911.5 778.736C2861.5 774.736 2850 780.736 2850 780.736C2850 780.736 2780.5 816.5 2750.65 818.003C2720.8 819.506 2680.17 803.503 2680.17 803.503C2680.17 803.503 2536.76 838.844 2442.9 845.003C2304.76 854.067 2089.97 812.003 2089.97 812.003L1692.5 762.5C1692.5 762.5 1571.06 906.134 1533.03 904.503C1495 902.872 1459 891.751 1343 840.996C1227 790.241 1091 760.496 1091 760.496C1091 760.496 873.899 766.624 859 769.499Z" fill="url(#paint4_linear_2353_740)"/>
<circle cx="305.092" cy="530.352" r="4.39923" transform="rotate(146.718 305.092 530.352)" fill="#CCC3E0"/>
<circle cx="310.671" cy="204.272" r="3.5" transform="rotate(146.718 310.671 204.272)" fill="#CCC3E0"/>
<circle cx="53.6708" cy="307.681" r="1.18427" transform="rotate(48.7815 53.6708 307.681)" fill="#CCC3E0"/>
<circle cx="240.671" cy="355.681" r="1.18427" transform="rotate(48.7815 240.671 355.681)" fill="#CCC3E0"/>
<circle cx="112.671" cy="554.681" r="1.18427" transform="rotate(48.7815 112.671 554.681)" fill="#CCC3E0"/>
<circle cx="26.6708" cy="567.681" r="1.18427" transform="rotate(48.7815 26.6708 567.681)" fill="#CCC3E0"/>
<circle cx="148.5" cy="577.76" r="2.5" fill="#CCC3E0"/>
<circle cx="85" cy="322.26" r="3" fill="#CCC3E0"/>
<circle cx="110.5" cy="184.76" r="1.5" fill="#CCC3E0"/>
<circle cx="177.215" cy="74.7672" r="3" transform="rotate(146.718 177.215 74.7672)" fill="#CCC3E0"/>
<path d="M355 840L457 858C457 858 424.066 872.476 399.5 882C380.03 889.548 352.5 907.5 352.5 907.5L213 880.482C213 880.482 266.124 858.316 290 851.982C314.5 845.482 355 840 355 840Z" fill="url(#paint5_linear_2353_740)"/>
<path d="M319.101 845.924L328.003 829.999L332.277 838.92C332.277 838.92 323.379 852.472 322.503 852.499C321.627 852.525 310.821 853.037 310.227 851.808C309.633 850.578 314.687 849.801 314.687 849.801L311.856 849.263C311.856 849.263 304.031 851.995 301.778 852.063C299.525 852.131 299.51 851.508 299.51 851.508C299.51 851.508 306.694 845.676 308.931 844.984C311.169 844.293 319.101 845.924 319.101 845.924Z" fill="#FF8C8C"/>
</g>
<defs>
<linearGradient id="paint0_linear_2353_740" x1="-0.5" y1="667.967" x2="-0.5" y2="847.256" gradientUnits="userSpaceOnUse">
<stop stop-color="#8680E5" stop-opacity="0.41"/>
<stop offset="0.789681" stop-color="#FFBAE3"/>
</linearGradient>
<linearGradient id="paint1_linear_2353_740" x1="-57.7964" y1="788.126" x2="-47.3661" y2="832.214" gradientUnits="userSpaceOnUse">
<stop stop-color="#2C1973"/>
<stop offset="0.795" stop-color="#6747B2"/>
</linearGradient>
<linearGradient id="paint2_linear_2353_740" x1="1948" y1="634.783" x2="1948" y2="1279.78" gradientUnits="userSpaceOnUse">
<stop offset="0.24" stop-color="#8680E5"/>
<stop offset="0.605" stop-color="#E3ADE4"/>
<stop offset="0.65" stop-color="#FFA87C"/>
</linearGradient>
<linearGradient id="paint3_linear_2353_740" x1="245" y1="800.256" x2="245" y2="870.256" gradientUnits="userSpaceOnUse">
<stop stop-color="#2C1973"/>
<stop offset="0.795" stop-color="#6747B2"/>
</linearGradient>
<linearGradient id="paint4_linear_2353_740" x1="2102" y1="631.496" x2="2107" y2="1451.5" gradientUnits="userSpaceOnUse">
<stop offset="0.205" stop-color="#4B3EAA"/>
<stop offset="1" stop-color="#FFA87C"/>
</linearGradient>
<linearGradient id="paint5_linear_2353_740" x1="374" y1="791.5" x2="337.5" y2="907.5" gradientUnits="userSpaceOnUse">
<stop stop-color="#221737"/>
<stop offset="1" stop-color="#4B3EAA" stop-opacity="0"/>
</linearGradient>
<clipPath id="clip0_2353_740">
<rect width="320" height="932" fill="white"/>
</clipPath>
</defs>
</svg>
