<svg width="1024" height="768" viewBox="0 0 1024 768" fill="none" xmlns="http://www.w3.org/2000/svg">
<g clip-path="url(#clip0_2313_2099)">
<path d="M177 658.25L249.5 632.75L315 593.25L461.5 640.25L678 678.25L608.5 717.75H226L177 658.25Z" fill="url(#paint0_linear_2313_2099)"/>
<path d="M4374 -360.501C2598.49 -360.989 -89.5 -422.501 -159.001 -312C-159.001 -312 -196.5 -273.75 -202.5 -234.25C-208.5 -194.75 -183.53 -146.75 -181.546 -117.25C-179.563 -87.7499 -203.858 -54.2502 -259.884 -7.25018C-315.91 39.7498 -366.482 29.7497 -405.65 112.25C-444.819 194.75 -401.188 242.25 -366.481 274.75C-331.775 307.25 -337.229 363.75 -366.481 394.25C-395.734 424.75 -441.348 401.49 -530.098 413.75C-618.847 426.01 -658.083 449.5 -668 454C-677.916 458.5 -707.5 480.5 -707.5 480.5C-707.5 480.5 -687.5 473.5 -674 470.5C-660.5 467.5 -622.318 464.75 -591.578 464.75C-560.838 464.75 -482.501 483.25 -441.349 513.75C-400.197 544.25 -357.062 540.25 -298.557 524.75C-240.052 509.25 -153.781 458.75 -110.15 452.75C-66.519 446.75 -29.3335 447.98 69.8276 443.25C168.989 438.52 368.298 278.25 403.5 260.25C438.702 242.25 480.347 231.25 521.003 232.25C561.659 233.25 778.822 311.75 849.722 320.25C920.622 328.75 980.615 305.75 1072.34 325.25C1164.06 344.75 1405.52 533.75 1558.23 552.75C1710.94 571.75 2037.67 498.334 2143.28 536.25C2248.89 574.166 2233.52 632.25 2303.92 660.25C2374.32 688.25 2588.5 763 2588.5 763L3562.5 761C3562.5 761 3645.41 739.965 3700.99 711.751C3817.48 652.62 3921.61 714.759 3999.99 610.25C4055.49 536.25 4085.99 380.75 4139.49 327.25C4178.5 288.242 4255.98 222.262 4387.49 130.25C4519 38.2383 4515.5 -261 4507.5 -310.75C4499.5 -360.501 4452.5 -360.501 4374 -360.501Z" fill="#221737"/>
<path d="M418.5 691.249L405.5 639.249L399.5 668.249L397 652.249L396 665.749L394 647.249L389 691.249L383.5 640.749L379 694.249L369 691.249L366 639.249L362 675.249L357 627.249L350.5 671.749L349.5 658.249L346.5 692.749L342 647.249L336 692.749H327.5L323.5 645.749L320 664.749L318 652.249L313 691.249L308.5 637.249L299.5 698.749H429.5L423 647.249L418.5 691.249Z" fill="url(#paint1_linear_2313_2099)" fill-opacity="0.5"/>
<path d="M-1248 584.249C-1248 584.249 -1175.05 611.249 -1088.02 611.249C-1001 611.249 -919.646 584.249 -911.073 584.249C-902.5 584.249 -615.49 653.249 -604.495 654.249C-593.5 655.249 -545 629.749 -542 632.249C-539 634.749 -435 664.249 -389.5 659.249C-344 654.249 -248.5 590.249 -248.5 590.249C-248.5 590.249 -115 618.749 -88 620.249C-61 621.749 54 592.749 80.5 594.749C107 596.749 304.5 651.749 367.5 663.249C430.5 674.749 617.5 677.249 653.5 674.749C689.5 672.249 969.5 589.249 999.5 589.749C1029.5 590.249 1232.5 676.749 1295.5 685.749C1358.5 694.749 1882 714.749 1882 714.749L2576.5 696.749C2576.5 696.749 2699 678.75 2783 657.249C2867 635.749 2987 574.25 3048 574.249C3109 574.249 3502.5 694.75 3522.5 694.749C3542.5 694.749 3582 670.249 3601 671.749C3620 673.25 3648.5 706.749 3671.5 706.749C3694.5 706.749 3927.5 600.249 3927.5 600.249C3927.5 600.249 4005 662.249 4110 646.749C4215 631.249 4313 547.749 4349 551.249C4385 554.749 4512 584.249 4512 584.249V759.249H-1248V584.249Z" fill="url(#paint2_linear_2313_2099)"/>
<path d="M505.76 685.228L515.001 620.75L527.653 680.542L531.001 645.75L534.656 691.17L538.501 642.75L543.846 696.122L554.246 695.198L557.001 659.25L560.425 694.937L564.501 634.75L572.064 700.393L574.001 666.25L575.983 701.199L580.501 656.75L586.267 703.313L594.593 705.025L597.001 668.25L600.658 707.804L604.501 666.25L609.098 706.476L613.001 653.75L620.001 712.75L636.001 714.75L638.001 696.75L641.001 714.75L643.501 704.75L646.001 714.25L647.001 718.75L620.811 716.542L493.475 690.359L499.498 637.75L505.76 685.228Z" fill="url(#paint3_linear_2313_2099)"/>
<path d="M658.101 709.917C590.519 722.958 441.5 648.25 441.5 648.25C441.5 648.25 389.401 680.488 364 681.75C338.599 683.012 123.5 658.257 25.7124 660.58C-72.0752 662.904 -387.5 758.257 -525.767 745.798C-664.033 733.339 -725 710.757 -814.66 679.019C-904.32 647.282 -963.5 614.732 -1003.78 607.257C-1044.06 599.782 -1248 614.732 -1248 614.732V769L4512 768V614.25C4512 614.25 4423.5 610.53 4367 614.25C4233.8 623.019 4033.5 689.25 4033.5 689.25C4033.5 689.25 3786.91 773.93 3637 731.75C3528.78 701.301 3427 587.25 3391 582.25C3355 577.25 3318.23 608.8 3274.5 595.25C3239.51 584.406 3198.5 540.25 3198.5 540.25C3198.5 540.25 3057 698.75 3041.5 697.25C3026 695.75 2989 680.25 2969.5 680.25C2950 680.25 2816 724.75 2766 720.75C2716 716.75 2592 610.757 2592 610.757C2592 610.757 2464 652.754 2434.15 654.257C2404.3 655.76 2363.67 639.757 2363.67 639.757C2363.67 639.757 2220.26 675.098 2126.4 681.257C1988.26 690.32 1773.47 648.257 1773.47 648.257L1592.29 695.757C1592.29 695.757 1254.56 742.387 1216.53 740.757C1178.5 739.126 1170 740.005 1054 689.25C938 638.495 774.5 596.75 774.5 596.75C774.5 596.75 673 707.042 658.101 709.917Z" fill="url(#paint4_linear_2313_2099)"/>
<circle cx="568.5" cy="40.75" r="3.5" fill="#CCC3E0"/>
<circle cx="288.092" cy="170.342" r="4.39923" transform="rotate(146.718 288.092 170.342)" fill="#CCC3E0"/>
<circle cx="481.5" cy="21.75" r="7.5" fill="#CCC3E0"/>
<circle cx="922.571" cy="220.821" r="7.5" transform="rotate(49.6916 922.571 220.821)" fill="#CCC3E0"/>
<circle cx="681.5" cy="174.5" r="3.5" fill="#CCC3E0"/>
<circle cx="869.415" cy="122.415" r="4.39923" transform="rotate(-164.5 869.415 122.415)" fill="#CCC3E0"/>
<circle cx="270.5" cy="297.75" r="3.5" fill="#CCC3E0"/>
<circle cx="830.933" cy="74.1832" r="3.5" transform="rotate(49.6916 830.933 74.1832)" fill="#CCC3E0"/>
<circle cx="745.139" cy="3.81374" r="1.18427" transform="rotate(48.7815 745.139 3.81374)" fill="#CCC3E0"/>
<circle cx="716.671" cy="86.6712" r="1.18427" transform="rotate(48.7815 716.671 86.6712)" fill="#CCC3E0"/>
<circle cx="963.671" cy="114.671" r="1.18427" transform="rotate(48.7815 963.671 114.671)" fill="#CCC3E0"/>
<circle cx="735.671" cy="232.671" r="1.18427" transform="rotate(48.7815 735.671 232.671)" fill="#CCC3E0"/>
<circle cx="726.03" cy="220.358" r="1.66096" transform="rotate(48.7815 726.03 220.358)" fill="#CCC3E0"/>
<circle cx="13.6708" cy="79.6712" r="1.18427" transform="rotate(48.7815 13.6708 79.6712)" fill="#CCC3E0"/>
<circle cx="193.671" cy="249.671" r="1.18427" transform="rotate(48.7815 193.671 249.671)" fill="#CCC3E0"/>
<circle cx="375.431" cy="56.4769" r="3.14779" transform="rotate(-83.6442 375.431 56.4769)" fill="#CCC3E0"/>
<circle cx="431.236" cy="217.031" r="3.14779" transform="rotate(-83.6442 431.236 217.031)" fill="#CCC3E0"/>
<circle cx="467.954" cy="83.454" r="1.62226" transform="rotate(-83.6442 467.954 83.454)" fill="#CCC3E0"/>
<circle cx="326.792" cy="81.579" r="1.62226" transform="rotate(-83.6442 326.792 81.579)" fill="#CCC3E0"/>
<circle cx="365.932" cy="73.6415" r="1.62226" transform="rotate(-83.6442 365.932 73.6415)" fill="#CCC3E0"/>
<circle cx="450.051" cy="208.32" r="1.62226" transform="rotate(-83.6442 450.051 208.32)" fill="#CCC3E0"/>
<circle cx="437" cy="93.25" r="3" fill="#CCC3E0"/>
<circle cx="954.269" cy="170.73" r="2.29792" transform="rotate(48.7815 954.269 170.73)" fill="#CCC3E0"/>
</g>
<defs>
<linearGradient id="paint0_linear_2313_2099" x1="427.5" y1="593.25" x2="427.5" y2="717.75" gradientUnits="userSpaceOnUse">
<stop stop-color="#8680E5" stop-opacity="0.41"/>
<stop offset="0.575" stop-color="#FFBAE3"/>
</linearGradient>
<linearGradient id="paint1_linear_2313_2099" x1="362" y1="636.749" x2="362" y2="706.749" gradientUnits="userSpaceOnUse">
<stop stop-color="#2C1973"/>
<stop offset="0.795" stop-color="#6747B2"/>
</linearGradient>
<linearGradient id="paint2_linear_2313_2099" x1="1632" y1="470.749" x2="1632" y2="1115.75" gradientUnits="userSpaceOnUse">
<stop offset="0.24" stop-color="#8680E5"/>
<stop offset="0.605" stop-color="#E3ADE4"/>
<stop offset="0.65" stop-color="#FFA87C"/>
</linearGradient>
<linearGradient id="paint3_linear_2313_2099" x1="572.37" y1="644.305" x2="558.272" y2="712.87" gradientUnits="userSpaceOnUse">
<stop stop-color="#2C1973"/>
<stop offset="0.795" stop-color="#6747B2"/>
</linearGradient>
<linearGradient id="paint4_linear_2313_2099" x1="1785.5" y1="467.75" x2="1790.5" y2="1287.75" gradientUnits="userSpaceOnUse">
<stop offset="0.205" stop-color="#4B3EAA"/>
<stop offset="1" stop-color="#FFA87C"/>
</linearGradient>
<clipPath id="clip0_2313_2099">
<rect width="1024" height="768" fill="white"/>
</clipPath>
</defs>
</svg>
