<svg width="1024" height="768" viewBox="0 0 1024 768" fill="none" xmlns="http://www.w3.org/2000/svg">
<g clip-path="url(#clip0_2313_2555)">
<path d="M501 665.371C501 665.371 548.126 645.975 574.587 628.619C608.817 606.167 639.047 554.618 650.456 559.585C661.865 564.552 758.382 576.202 817.595 606.27C859.46 627.528 914 674.31 914 674.31L548.917 683.25L501 665.371Z" fill="url(#paint0_linear_2313_2555)"/>
<path d="M5398 -360.501C3622.49 -360.989 934.5 -422.501 864.999 -312C864.999 -312 827.5 -273.75 821.5 -234.25C815.5 -194.75 840.47 -146.75 842.454 -117.25C844.437 -87.7499 820.142 -54.2502 764.116 -7.25018C708.09 39.7498 657.518 29.7498 618.35 112.25C579.181 194.75 622.812 242.25 657.519 274.75C692.225 307.25 686.771 363.75 657.519 394.25C628.266 424.75 582.651 401.49 493.902 413.75C405.153 426.01 365.917 449.5 356 454C346.084 458.5 316.5 480.5 316.5 480.5C316.5 480.5 336.5 473.5 350 470.5C363.5 467.5 401.682 464.75 432.422 464.75C463.162 464.75 541.5 483.25 582.651 513.75C623.803 544.25 666.938 540.25 725.443 524.75C783.948 509.25 870.219 458.75 913.85 452.75C957.481 446.75 994.667 447.98 1093.83 443.25C1192.99 438.52 1392.3 278.25 1427.5 260.25C1462.7 242.25 1504.35 231.25 1545 232.25C1585.66 233.25 1802.82 311.75 1873.72 320.25C1944.62 328.75 2004.61 305.75 2096.34 325.25C2188.06 344.75 2429.52 533.75 2582.23 552.75C2734.94 571.75 3061.67 498.334 3167.28 536.25C3272.89 574.166 3257.52 632.25 3327.92 660.25C3398.32 688.25 3612.5 763 3612.5 763L4586.5 761C4586.5 761 4669.41 739.965 4724.99 711.751C4841.48 652.62 4945.61 714.759 5023.99 610.25C5079.49 536.25 5109.99 380.75 5163.49 327.25C5202.5 288.242 5279.98 222.262 5411.49 130.25C5543 38.2383 5539.5 -261 5531.5 -310.75C5523.5 -360.501 5476.5 -360.501 5398 -360.501Z" fill="#221737"/>
<path d="M696.667 648.708L689.636 607.129L681.483 646.314L678.822 623.83L676.747 653.421L673.606 622.105L670.441 656.908L663.242 656.616L660.979 633.364L658.967 656.629L655.55 617.683L650.973 660.516L649.294 638.411L648.272 661.155L644.706 632.437L641.182 662.832L635.442 664.19L633.411 640.391L631.276 666.173L628.206 639.315L625.427 665.562L622.204 631.453L617.951 669.957L606.908 671.729L605.346 660.105L603.451 671.877L601.623 665.46L599.989 671.701L599.342 674.651L617.429 672.442L705.213 651.674L700.525 617.704L696.667 648.708Z" fill="url(#paint1_linear_2313_2555)" fill-opacity="0.5"/>
<path d="M-224 584.249C-224 584.249 -151.048 611.249 -64.024 611.249C23 611.249 104.354 584.249 112.927 584.249C121.5 584.249 408.51 653.249 419.505 654.249C430.5 655.249 479 629.749 482 632.249C485 634.749 589 664.249 634.5 659.249C680 654.249 775.5 590.249 775.5 590.249C775.5 590.249 909 618.749 936 620.249C963 621.749 1078 592.749 1104.5 594.749C1131 596.749 1328.5 651.749 1391.5 663.249C1454.5 674.749 1641.5 677.249 1677.5 674.749C1713.5 672.249 1993.5 589.249 2023.5 589.749C2053.5 590.249 2256.5 676.749 2319.5 685.749C2382.5 694.749 2906 714.749 2906 714.749L3600.5 696.749C3600.5 696.749 3723 678.75 3807 657.249C3891 635.749 4011 574.25 4072 574.249C4133 574.249 4526.5 694.75 4546.5 694.749C4566.5 694.749 4606 670.249 4625 671.749C4644 673.25 4672.5 706.749 4695.5 706.749C4718.5 706.749 4951.5 600.249 4951.5 600.249C4951.5 600.249 5029 662.249 5134 646.749C5239 631.249 5337 547.749 5373 551.249C5409 554.749 5536 584.249 5536 584.249V759.249H-224V584.249Z" fill="url(#paint2_linear_2313_2555)"/>
<path d="M286.501 702.25L293.901 651.25L303.001 711.25L308.501 684.25L312.143 712.616L314.406 689.364L316.418 712.629L325.5 666.75L327.5 714.25L332.5 661.25L340.5 707.75L344.5 667.75L351.5 721.84L353.181 687.453L357.434 725.957L337.5 721.25L317.5 715.75L276 703.25L280.001 677.25L286.501 702.25Z" fill="url(#paint3_linear_2313_2555)" fill-opacity="0.5"/>
<path d="M466.377 743.949L469.498 717.663L474.5 749.92L483.321 696.449L489.5 749.483H494L504.725 657.25L514.5 749.483H517.21L523.452 706.133L531.479 750.405L533.262 735.648L534.6 750.405L539.059 748.1L548.423 684.92L552.882 720.43L560.016 674.313L568.934 734.726L576.961 683.536L585.5 752.25L453 749.483L460.58 700.6L466.377 743.949Z" fill="url(#paint4_linear_2313_2555)"/>
<path d="M896 689.75L906.5 619.75L916.5 680.75L920.5 648.75L925.5 689.75L931 642.75L935.5 692.75L945.5 689.75L950.5 652.75L951.5 688.25L957.5 625.75L964 691.25L966.5 657.25L968 691.25L972.5 645.75L978.5 691.25H987L991 654.75L993.5 692.75L996.5 650.75L1001.5 689.75L1006 635.75L1015 697.25H885L892.5 639.25L896 689.75Z" fill="url(#paint5_linear_2313_2555)"/>
<path d="M1682.1 709.917C1614.52 722.958 1465.5 648.25 1465.5 648.25C1465.5 648.25 1413.4 680.488 1388 681.75C1362.6 683.012 1147.5 658.257 1049.71 660.58C951.925 662.904 636.5 758.257 498.233 745.798C359.967 733.339 299 710.757 209.34 679.019C119.68 647.282 60.5 614.732 20.2192 607.257C-20.0615 599.782 -224 614.732 -224 614.732V769L5536 768V614.25C5536 614.25 5447.5 610.53 5391 614.25C5257.8 623.019 5057.5 689.25 5057.5 689.25C5057.5 689.25 4810.91 773.93 4661 731.75C4552.78 701.301 4451 587.25 4415 582.25C4379 577.25 4342.23 608.8 4298.5 595.25C4263.51 584.406 4222.5 540.25 4222.5 540.25C4222.5 540.25 4081 698.75 4065.5 697.25C4050 695.75 4013 680.25 3993.5 680.25C3974 680.25 3840 724.75 3790 720.75C3740 716.75 3616 610.757 3616 610.757C3616 610.757 3488 652.754 3458.15 654.257C3428.3 655.76 3387.67 639.757 3387.67 639.757C3387.67 639.757 3244.26 675.098 3150.4 681.257C3012.26 690.32 2797.47 648.257 2797.47 648.257L2616.29 695.757C2616.29 695.757 2278.56 742.387 2240.53 740.757C2202.5 739.126 2194 740.005 2078 689.25C1962 638.495 1798.5 596.75 1798.5 596.75C1798.5 596.75 1697 707.042 1682.1 709.917Z" fill="url(#paint6_linear_2313_2555)"/>
<path d="M189.913 538.743L279.05 487.885L288.593 504.077L197.793 553.127L189.913 538.743Z" fill="url(#paint7_linear_2313_2555)"/>
<rect x="296.032" y="474.032" width="26.6145" height="23.0009" transform="rotate(58.8042 296.032 474.032)" fill="url(#paint8_linear_2313_2555)"/>
<rect x="191.019" y="539.516" width="14.4664" height="12.7499" transform="rotate(60.9879 191.019 539.516)" fill="url(#paint9_linear_2313_2555)"/>
<rect x="182.35" y="549.804" width="7.18387" height="38.817" transform="rotate(60.9879 182.35 549.804)" fill="url(#paint10_linear_2313_2555)"/>
<circle cx="231.917" cy="539.774" r="7.5" fill="#221737"/>
<circle cx="231.917" cy="539.774" r="4.5" fill="url(#paint11_linear_2313_2555)"/>
<line x1="331.502" y1="721.677" x2="261.502" y2="562.677" stroke="url(#paint12_linear_2313_2555)" stroke-width="2"/>
<line x1="245.419" y1="727.213" x2="255.419" y2="565.213" stroke="url(#paint13_linear_2313_2555)" stroke-width="2"/>
<line x1="187.523" y1="690.827" x2="250.523" y2="564.827" stroke="url(#paint14_linear_2313_2555)" stroke-width="2"/>
<rect x="240.417" y="555.274" width="27" height="10" fill="#221737"/>
<rect x="234.663" y="545.912" width="5" height="17.0002" transform="rotate(-38.5742 234.663 545.912)" fill="#221737"/>
<rect x="257.417" y="558.274" width="7" height="3" fill="#D9D9D9"/>
<path d="M208 678.5L283.5 704.982L337 720C337 720 290.566 723.957 266 733.482C246.53 741.03 219 756.732 219 756.732L100.5 746.982C100.5 746.982 128.68 720.275 149.5 706.982C170.699 693.446 208 678.5 208 678.5Z" fill="url(#paint15_linear_2313_2555)"/>
<path d="M103 676L205 694C205 694 172.066 708.476 147.5 718C128.03 725.548 100.5 743.5 100.5 743.5L-39 716.482C-39 716.482 14.124 694.316 38 687.982C62.5 681.482 103 676 103 676Z" fill="url(#paint16_linear_2313_2555)"/>
<path d="M68.0981 681.796L77.4558 665.98L81.2744 674.792C81.2744 674.792 71.9596 688.542 71.0839 688.569C70.2081 688.595 59.8184 688.91 59.2243 687.68C58.6302 686.45 63.6843 685.673 63.6843 685.673L60.8525 685.135C60.8525 685.135 53.0283 687.867 50.7752 687.935C48.5221 688.004 48.5067 687.38 48.5067 687.38C48.5067 687.38 55.6906 681.548 57.9283 680.856C60.166 680.165 68.0981 681.796 68.0981 681.796Z" fill="#FF8C8C"/>
<path d="M117.495 573.486C118.194 571.958 116.146 565.384 119.813 563.295C121.551 562.304 123.591 562.533 125.363 561.62C127.188 560.68 127.308 558.862 129.297 558.555C133.535 557.902 131.508 560.692 133.233 561.227C133.982 561.459 135.836 557.932 138.58 557.944C142.149 557.96 144.91 561.07 145.242 565.113C145.539 568.721 143.21 568.991 143.932 571.871C144.53 574.255 146.758 571.436 146.658 576.368C146.559 581.301 138.688 581.694 138.688 581.694C138.688 581.694 117.184 596.517 116.994 586.676C116.956 584.672 118.5 583.479 117.8 581.635C117.174 579.984 115.676 580.482 115.275 578.746C114.36 574.789 116.674 575.28 117.495 573.486Z" fill="#221737"/>
<path d="M123.568 572.807C123.568 572.807 130.16 566.779 133.65 566.711C137.14 566.643 144.007 576.473 142.779 584.228C141.552 591.982 133.223 591.753 133.223 591.753L131.686 598.799L137.593 604.124C137.593 604.124 133.232 607.254 128.013 607.243C121.626 607.228 117.871 600.382 117.871 600.382C117.871 600.382 122.64 597.57 123.198 589.162C123.756 580.754 123.198 582.706 123.198 582.706C123.198 582.706 120.027 583.188 120.772 576.264C120.929 574.798 123.849 575.033 123.849 575.033L123.568 572.807Z" fill="#FF8C8C"/>
<path d="M177.23 684.226L192 684.226C192 684.226 200.084 688.8 203.777 689.98C207.47 691.161 206.8 695.539 206.8 695.539L177.406 696.073L177.23 684.226Z" fill="url(#paint17_linear_2313_2555)"/>
<path d="M95.8467 611.343C99.9333 607.141 118.222 599.772 118.222 599.772C118.222 599.772 123.624 606.199 128.151 606.416C131.99 606.601 137.305 602.42 137.305 602.42C137.305 602.42 153.805 614.949 157.896 627.596C161.987 640.244 159.445 648.878 159.445 648.878L140.138 669.935C140.138 669.935 96.1815 669.187 95.1105 667.479C94.0395 665.771 94.7543 661.224 94.7543 661.224C94.7543 661.224 92.1885 670.485 86.9343 675.888C81.6801 681.291 76.072 665.482 76.072 665.482C76.072 665.482 80.4351 658.238 82.6386 652.264C84.8421 646.291 91.7601 615.545 95.8467 611.343Z" fill="#2C1973"/>
<path d="M104.551 620.58C104.551 620.58 102.928 635.968 99.7397 647.072C96.5517 658.175 94.1324 663.069 94.1324 663.069" stroke="#8680E5"/>
<path d="M98.8936 616.041C98.8936 616.041 99.5752 616.402 100.73 618.253C101.884 620.103 102.476 621.963 102.476 621.963" stroke="#8680E5"/>
<path d="M148.782 613.495C148.782 613.495 146.989 616.543 146.741 624.021C146.493 631.5 148.079 634.685 148.079 634.685" stroke="#8680E5"/>
<path d="M166.175 698.772L177.949 693.19C177.949 693.19 180.862 696.34 183.388 697.678C187.011 699.597 192.787 694.904 195.933 698.986C199.079 703.067 170.321 711.444 170.321 711.444L166.175 698.772Z" fill="url(#paint18_linear_2313_2555)"/>
<path d="M100.348 668.15L113.88 668.527C113.88 668.527 144.349 633.044 151.064 629.803C157.778 626.563 158.37 628.423 160.642 629.629C162.914 630.836 166.978 638.87 166.978 638.87C166.978 638.87 187.564 620.95 191.689 620.336C195.813 619.722 198.45 619.712 202.269 624.506C206.088 629.301 192.444 683.939 192.444 683.939L183.993 684.093L186.329 689.664L163.941 700.051L157.438 679.586C157.438 679.586 140.12 689.881 127.208 693.234C114.296 696.588 105.198 691.139 102.289 684.955C99.379 678.771 100.348 668.15 100.348 668.15Z" fill="url(#paint19_linear_2313_2555)"/>
<path d="M167.532 638.236L185.726 689.453" stroke="#221737"/>
<path d="M151.249 642.796C151.249 642.796 150.375 654.371 151.528 661.605C152.732 669.152 157.438 680.107 157.438 680.107" stroke="#221737"/>
<path d="M139.637 687.644C139.637 687.644 144.328 683.208 146.733 679.78C149.781 675.439 152.862 667.444 152.862 667.444" stroke="#221737"/>
<path d="M107.944 679.504L115.532 666.002" stroke="#221737"/>
<path d="M188.279 633.717C188.279 633.717 183.833 642.547 181.775 648.581C179.483 655.299 177.492 666.347 177.492 666.347" stroke="#221737"/>
<path d="M127.647 587.067C127.647 587.067 128.809 589.133 129.795 590.224C130.781 591.315 133 592.211 133 592.211" stroke="#D15B5B"/>
<path d="M138 575.61C138 575.61 138.031 576.558 138.703 577.91C139.375 579.262 141.28 580.807 141.28 580.807" stroke="#D15B5B"/>
<path d="M129.174 579.046C129.174 579.046 130.097 579.263 131.578 578.968C133.06 578.674 135.05 577.241 135.05 577.241" stroke="#D15B5B"/>
<path d="M139.576 575.383C139.576 575.383 139.44 575.587 139.078 575.796C138.717 576.004 137.999 576.093 137.999 576.093" stroke="#D15B5B"/>
<line y1="-0.5" x2="6.33732" y2="-0.5" transform="matrix(0.192411 0.980719 -0.973 0.233835 182.171 637.347)" stroke="#221737"/>
<path d="M122.947 569.162L125.788 565.73C125.788 565.73 129.793 567.162 129.473 569.467C129.234 571.196 128.168 572.483 126.633 572.899C125.488 573.209 124.648 572.99 123.843 572.174C123.038 571.358 122.947 569.162 122.947 569.162Z" fill="#221737"/>
<circle cx="1013.09" cy="366.342" r="4.39923" transform="rotate(146.718 1013.09 366.342)" fill="#CCC3E0"/>
<circle cx="1018.67" cy="40.2632" r="3.5" transform="rotate(146.718 1018.67 40.2632)" fill="#CCC3E0"/>
<circle cx="761.671" cy="143.671" r="1.18427" transform="rotate(48.7815 761.671 143.671)" fill="#CCC3E0"/>
<circle cx="948.671" cy="191.671" r="1.18427" transform="rotate(48.7815 948.671 191.671)" fill="#CCC3E0"/>
<circle cx="820.671" cy="390.671" r="1.18427" transform="rotate(48.7815 820.671 390.671)" fill="#CCC3E0"/>
<circle cx="701.671" cy="488.671" r="1.18427" transform="rotate(48.7815 701.671 488.671)" fill="#CCC3E0"/>
<circle cx="734.671" cy="403.671" r="1.18427" transform="rotate(48.7815 734.671 403.671)" fill="#CCC3E0"/>
<circle cx="856.5" cy="413.75" r="2.5" fill="#CCC3E0"/>
<circle cx="793" cy="158.25" r="3" fill="#CCC3E0"/>
<circle cx="818.5" cy="20.75" r="1.5" fill="#CCC3E0"/>
</g>
<defs>
<linearGradient id="paint0_linear_2313_2555" x1="707.5" y1="503.961" x2="707.5" y2="683.25" gradientUnits="userSpaceOnUse">
<stop stop-color="#8680E5" stop-opacity="0.41"/>
<stop offset="0.789681" stop-color="#FFBAE3"/>
</linearGradient>
<linearGradient id="paint1_linear_2313_2555" x1="650.204" y1="624.118" x2="660.634" y2="668.206" gradientUnits="userSpaceOnUse">
<stop stop-color="#2C1973"/>
<stop offset="0.795" stop-color="#6747B2"/>
</linearGradient>
<linearGradient id="paint2_linear_2313_2555" x1="2656" y1="470.749" x2="2656" y2="1115.75" gradientUnits="userSpaceOnUse">
<stop offset="0.24" stop-color="#8680E5"/>
<stop offset="0.605" stop-color="#E3ADE4"/>
<stop offset="0.65" stop-color="#FFA87C"/>
</linearGradient>
<linearGradient id="paint3_linear_2313_2555" x1="325.181" y1="680.118" x2="314.75" y2="724.206" gradientUnits="userSpaceOnUse">
<stop stop-color="#2C1973"/>
<stop offset="0.795" stop-color="#6747B2"/>
</linearGradient>
<linearGradient id="paint4_linear_2313_2555" x1="523.898" y1="695.988" x2="523.898" y2="760.551" gradientUnits="userSpaceOnUse">
<stop stop-color="#2C1973"/>
<stop offset="0.795" stop-color="#6747B2"/>
</linearGradient>
<linearGradient id="paint5_linear_2313_2555" x1="953" y1="636.25" x2="953" y2="706.25" gradientUnits="userSpaceOnUse">
<stop stop-color="#2C1973"/>
<stop offset="0.795" stop-color="#6747B2"/>
</linearGradient>
<linearGradient id="paint6_linear_2313_2555" x1="2809.5" y1="467.75" x2="2814.5" y2="1287.75" gradientUnits="userSpaceOnUse">
<stop offset="0.18" stop-color="#4B3EAA"/>
<stop offset="1" stop-color="#FFA87C"/>
</linearGradient>
<linearGradient id="paint7_linear_2313_2555" x1="242.567" y1="513.322" x2="248.971" y2="525.619" gradientUnits="userSpaceOnUse">
<stop stop-color="#E1E1E1"/>
<stop offset="1" stop-color="#978E9E"/>
</linearGradient>
<linearGradient id="paint8_linear_2313_2555" x1="296.032" y1="485.533" x2="322.264" y2="485.579" gradientUnits="userSpaceOnUse">
<stop stop-color="#8680E5"/>
<stop offset="0.44" stop-color="#4B3EAA"/>
</linearGradient>
<linearGradient id="paint9_linear_2313_2555" x1="191.019" y1="545.891" x2="205.485" y2="545.891" gradientUnits="userSpaceOnUse">
<stop stop-color="#61429D"/>
<stop offset="1" stop-color="#221737"/>
</linearGradient>
<linearGradient id="paint10_linear_2313_2555" x1="182.35" y1="569.212" x2="189.533" y2="569.212" gradientUnits="userSpaceOnUse">
<stop stop-color="#61429D"/>
<stop offset="1" stop-color="#221737"/>
</linearGradient>
<linearGradient id="paint11_linear_2313_2555" x1="231.917" y1="535.274" x2="234.417" y2="543.774" gradientUnits="userSpaceOnUse">
<stop stop-color="#978E9E"/>
<stop offset="1" stop-color="#E1E1E1"/>
</linearGradient>
<linearGradient id="paint12_linear_2313_2555" x1="262.875" y1="562.073" x2="332.875" y2="721.073" gradientUnits="userSpaceOnUse">
<stop stop-color="#61429D"/>
<stop offset="1" stop-color="#221737"/>
</linearGradient>
<linearGradient id="paint13_linear_2313_2555" x1="256.916" y1="565.305" x2="246.916" y2="727.305" gradientUnits="userSpaceOnUse">
<stop stop-color="#61429D"/>
<stop offset="1" stop-color="#221737"/>
</linearGradient>
<linearGradient id="paint14_linear_2313_2555" x1="251.864" y1="565.498" x2="188.864" y2="691.498" gradientUnits="userSpaceOnUse">
<stop stop-color="#61429D"/>
<stop offset="1" stop-color="#221737"/>
</linearGradient>
<linearGradient id="paint15_linear_2313_2555" x1="240.5" y1="642.982" x2="204" y2="758.982" gradientUnits="userSpaceOnUse">
<stop stop-color="#221737"/>
<stop offset="1" stop-color="#4B3EAA" stop-opacity="0"/>
</linearGradient>
<linearGradient id="paint16_linear_2313_2555" x1="122" y1="627.5" x2="85.5" y2="743.5" gradientUnits="userSpaceOnUse">
<stop stop-color="#221737"/>
<stop offset="1" stop-color="#4B3EAA" stop-opacity="0"/>
</linearGradient>
<linearGradient id="paint17_linear_2313_2555" x1="191.957" y1="683.958" x2="192.173" y2="695.805" gradientUnits="userSpaceOnUse">
<stop stop-color="#8680E5"/>
<stop offset="1" stop-color="#4B3EAA"/>
</linearGradient>
<linearGradient id="paint18_linear_2313_2555" x1="180.686" y1="692.929" x2="182.343" y2="710.297" gradientUnits="userSpaceOnUse">
<stop stop-color="#8680E5"/>
<stop offset="1" stop-color="#4B3EAA"/>
</linearGradient>
<linearGradient id="paint19_linear_2313_2555" x1="152.308" y1="506.741" x2="152.954" y2="700.26" gradientUnits="userSpaceOnUse">
<stop stop-color="#FFA87C"/>
<stop offset="0.84" stop-color="#3B2F99"/>
<stop offset="1" stop-color="#2C1973"/>
</linearGradient>
<clipPath id="clip0_2313_2555">
<rect width="1024" height="768" fill="white"/>
</clipPath>
</defs>
</svg>
