<svg width="1024" height="768" viewBox="0 0 1024 768" fill="none" xmlns="http://www.w3.org/2000/svg">
<g clip-path="url(#clip0_2313_2327)">
<path d="M300.5 705.301C300.5 705.301 345.854 696.773 373 688.176C400.017 679.619 411.381 670.058 438.5 661.649C570.081 620.848 806.5 693.884 806.5 693.884L801.5 718.732L732 745.259H349.5L300.5 705.301Z" fill="url(#paint0_linear_2313_2327)"/>
<path d="M-1185.5 -311.992C-1116 -422.492 -939.514 -309.988 836 -309.5C1019 -102.999 926 142.26 962.5 320.26C999 498.26 684.44 571.76 531.732 552.76C379.024 533.76 137.565 344.76 45.8414 325.26C-45.8827 305.76 -105.876 328.76 -176.776 320.26C-247.676 311.76 -464.838 233.26 -505.494 232.26C-546.15 231.26 -587.796 242.26 -622.999 260.26C-658.201 278.26 -857.51 438.53 -956.671 443.26C-1055.83 447.989 -1093.02 446.76 -1136.65 452.76C-1180.28 458.76 -1266.55 509.26 -1325.06 524.76C-1383.56 540.26 -1426.7 544.26 -1467.85 513.76C-1509 483.26 -1587.34 464.76 -1618.08 464.76C-1648.82 464.76 -1687 467.509 -1700.5 470.509C-1714 473.509 -1734 480.509 -1734 480.509C-1734 480.509 -1704.42 458.509 -1694.5 454.009C-1684.58 449.509 -1645.35 426.02 -1556.6 413.76C-1467.85 401.499 -1422.23 424.76 -1392.98 394.26C-1363.73 363.76 -1358.28 307.26 -1392.98 274.76C-1427.69 242.26 -1471.32 194.759 -1432.15 112.259C-1392.98 29.7591 -1342.41 39.7589 -1286.38 -7.24109C-1230.36 -54.2411 -1206.06 -87.741 -1208.05 -117.241C-1210.03 -146.741 -1235 -194.741 -1229 -234.241C-1223 -273.741 -1185.5 -311.992 -1185.5 -311.992Z" fill="#221737"/>
<path d="M382.885 712.758L372.154 642.258L368.692 703.758L365.923 668.758L362.462 712.758L357.615 662.258L355.538 715.758L348.615 712.758L345.154 675.758L344.462 711.258L340.308 648.758L335.808 714.258L334.077 680.258L333.038 714.258L329.923 668.758L325.769 714.258H319.885L317.115 677.758L315.385 715.758L313.308 673.758L309.846 712.758L306.731 658.758L300.5 720.258H390.5L388.077 663.758L382.885 712.758Z" fill="url(#paint1_linear_2313_2327)" fill-opacity="0.5"/>
<path d="M-2276 582.999C-2276 582.999 -2203.05 609.999 -2116.02 609.999C-2029 609.999 -1947.65 582.999 -1939.07 582.999C-1930.5 582.999 -1643.49 651.999 -1632.5 652.999C-1621.5 653.999 -1573 628.499 -1570 630.999C-1567 633.499 -1463 662.999 -1417.5 657.999C-1372 652.999 -1276.5 588.999 -1276.5 588.999C-1276.5 588.999 -1143 617.499 -1116 618.999C-1089 620.499 -974 591.499 -947.5 593.499C-921 595.499 -723.5 650.499 -660.5 661.999C-597.5 673.499 -410.5 675.999 -374.5 673.499C-338.5 670.999 -58.5 587.999 -28.5 588.499C1.5 588.999 204.5 675.5 267.5 684.5C330.5 693.5 854 713.5 854 713.5L1338.5 696.5C1338.5 696.5 1458 639 1568 584.5C1678 530 1959 573 2020 572.999C2081 572.999 2474.5 693.5 2494.5 693.5C2514.5 693.499 2554 668.999 2573 670.499C2592 672 2620.5 705.499 2643.5 705.499C2666.5 705.499 2899.5 598.999 2899.5 598.999C2899.5 598.999 2977 660.999 3082 645.499C3187 629.999 3285 546.499 3321 549.999C3357 553.499 3484 582.999 3484 582.999V758H-2276V582.999Z" fill="url(#paint2_linear_2313_2327)"/>
<path d="M-367.899 709.666C-435.481 722.707 -584.5 647.999 -584.5 647.999C-584.5 647.999 -636.599 680.237 -662 681.499C-687.401 682.761 -902.5 658.006 -1000.29 660.329C-1098.08 662.653 -1413.5 758.006 -1551.77 745.547C-1690.03 733.088 -1751 710.506 -1840.66 678.768C-1930.32 647.031 -1989.5 614.481 -2029.78 607.006C-2070.06 599.531 -2274 614.481 -2274 614.481V768.749L3486 767.749V613.999C3486 613.999 3397.5 610.28 3341 613.999C3207.8 622.768 3007.5 688.999 3007.5 688.999C3007.5 688.999 2760.91 773.679 2611 731.499C2502.78 701.05 2401 586.999 2365 581.999C2329 576.999 2292.23 608.549 2248.5 594.999C2213.51 584.155 2172.5 539.999 2172.5 539.999C2172.5 539.999 2031 698.499 2015.5 696.999C2000 695.499 1963 679.999 1943.5 679.999C1924 679.999 1619 618.739 1569 614.739C1519 610.739 1507.5 616.739 1507.5 616.739C1507.5 616.739 1438 652.503 1408.15 654.006C1378.3 655.509 1337.67 639.506 1337.67 639.506C1337.67 639.506 1194.26 674.847 1100.4 681.006C962.264 690.069 747.469 648.006 747.469 648.006L566.29 695.506C566.29 695.506 228.559 742.136 190.529 740.506C152.5 738.875 116.5 727.754 0.5 676.999C-115.5 626.244 -251.5 596.499 -251.5 596.499C-251.5 596.499 -353 706.791 -367.899 709.666Z" fill="url(#paint3_linear_2313_2327)"/>
<circle cx="103.171" cy="193.68" r="1.18427" transform="rotate(48.7815 103.171 193.68)" fill="#CCC3E0"/>
<circle cx="248.171" cy="324.68" r="1.18427" transform="rotate(48.7815 248.171 324.68)" fill="#CCC3E0"/>
<circle cx="35.1708" cy="98.68" r="1.18427" transform="rotate(48.7815 35.1708 98.68)" fill="#CCC3E0"/>
<circle cx="444.171" cy="341.68" r="1.18427" transform="rotate(48.7815 444.171 341.68)" fill="#CCC3E0"/>
<circle cx="7.17079" cy="277.68" r="1.18427" transform="rotate(48.7815 7.17079 277.68)" fill="#CCC3E0"/>
<circle cx="836.564" cy="44.5273" r="1.37504" transform="rotate(48.7815 836.564 44.5273)" fill="#CCC3E0"/>
<circle cx="506.171" cy="174.68" r="1.18427" transform="rotate(48.7815 506.171 174.68)" fill="#CCC3E0"/>
<circle cx="693.171" cy="222.68" r="1.18427" transform="rotate(48.7815 693.171 222.68)" fill="#CCC3E0"/>
<circle cx="584.609" cy="405.625" r="1.37504" transform="rotate(48.7815 584.609 405.625)" fill="#CCC3E0"/>
<circle cx="875.234" cy="371.233" r="3" transform="rotate(48.7815 875.234 371.233)" fill="#CCC3E0"/>
<circle cx="479.171" cy="434.68" r="1.18427" transform="rotate(48.7815 479.171 434.68)" fill="#CCC3E0"/>
<circle cx="248.171" cy="324.68" r="1.18427" transform="rotate(48.7815 248.171 324.68)" fill="#CCC3E0"/>
<circle cx="410.705" cy="278.846" r="3.5" transform="rotate(48.7815 410.705 278.846)" fill="#CCC3E0"/>
<circle cx="636.869" cy="137.891" r="3.5" transform="rotate(48.7815 636.869 137.891)" fill="#CCC3E0"/>
<circle cx="76.2574" cy="78.1948" r="2.29792" transform="rotate(48.7815 76.2574 78.1948)" fill="#CCC3E0"/>
<circle cx="194.743" cy="32.2515" r="2.29792" transform="rotate(48.7815 194.743 32.2515)" fill="#CCC3E0"/>
<circle cx="39.1946" cy="77.8374" r="2.5" transform="rotate(48.7815 39.1946 77.8374)" fill="#CCC3E0"/>
</g>
<defs>
<linearGradient id="paint0_linear_2313_2327" x1="553.5" y1="649.259" x2="553.5" y2="745.259" gradientUnits="userSpaceOnUse">
<stop stop-color="#8680E5" stop-opacity="0.41"/>
<stop offset="0.575" stop-color="#FFBAE3"/>
</linearGradient>
<linearGradient id="paint1_linear_2313_2327" x1="343.423" y1="659.258" x2="343.423" y2="729.258" gradientUnits="userSpaceOnUse">
<stop stop-color="#2C1973"/>
<stop offset="0.795" stop-color="#6747B2"/>
</linearGradient>
<linearGradient id="paint2_linear_2313_2327" x1="605.5" y1="470.766" x2="605.5" y2="1115.77" gradientUnits="userSpaceOnUse">
<stop offset="0.24" stop-color="#8680E5"/>
<stop offset="0.605" stop-color="#E3ADE4"/>
<stop offset="0.65" stop-color="#FFA87C"/>
</linearGradient>
<linearGradient id="paint3_linear_2313_2327" x1="759.5" y1="467.499" x2="764.5" y2="1287.5" gradientUnits="userSpaceOnUse">
<stop offset="0.205" stop-color="#4B3EAA"/>
<stop offset="1" stop-color="#FFA87C"/>
</linearGradient>
<clipPath id="clip0_2313_2327">
<rect width="1024" height="768" fill="white"/>
</clipPath>
</defs>
</svg>
