<svg width="820" height="1181" viewBox="0 0 820 1181" fill="none" xmlns="http://www.w3.org/2000/svg">
<g clip-path="url(#clip0_2314_3239)">
<path d="M-319 1078.37C-319 1078.37 -271.874 1058.98 -245.413 1041.62C-211.183 1019.17 -180.953 967.618 -169.544 972.585C-158.135 977.552 -61.6183 989.202 -2.40471 1019.27C39.4601 1040.53 94 1087.31 94 1087.31L-271.083 1096.25L-319 1078.37Z" fill="url(#paint0_linear_2314_3239)"/>
<path d="M381 1071.25L453.5 1045.75L519 1006.25L665.5 1053.25L882 1091.25L812.5 1130.75H430L381 1071.25Z" fill="url(#paint1_linear_2314_3239)"/>
<path d="M4578 52.4993C2802.49 52.0111 114.5 -9.5006 44.999 101C44.999 101 7.5 139.25 1.5 178.75C-4.5 218.25 20.4704 266.25 22.4536 295.75C24.4368 325.25 0.142231 358.75 -55.8838 405.75C-111.91 452.75 -162.482 442.75 -201.65 525.25C-240.819 607.75 -197.188 655.25 -162.481 687.75C-127.775 720.25 -133.229 776.75 -162.481 807.25C-191.734 837.75 -237.348 814.49 -326.098 826.75C-414.847 839.01 -454.083 862.5 -464 867C-473.916 871.5 -503.5 893.5 -503.5 893.5C-503.5 893.5 -483.5 886.5 -470 883.5C-456.5 880.5 -418.318 877.75 -387.578 877.75C-356.838 877.75 -278.501 896.25 -237.349 926.75C-196.197 957.25 -153.062 953.25 -94.5566 937.75C-36.0516 922.25 50.2192 871.75 93.8501 865.75C137.481 859.75 174.667 860.98 273.828 856.25C372.989 851.52 572.298 691.25 607.5 673.25C642.702 655.25 684.347 644.25 725.003 645.25C765.659 646.25 982.822 724.75 1053.72 733.25C1124.62 741.75 1184.62 718.75 1276.34 738.25C1368.06 757.75 1609.52 946.75 1762.23 965.75C1914.94 984.75 2241.67 911.334 2347.28 949.25C2452.89 987.166 2437.52 1045.25 2507.92 1073.25C2578.32 1101.25 2792.5 1176 2792.5 1176L3766.5 1174C3766.5 1174 3849.41 1152.97 3904.99 1124.75C4021.48 1065.62 4125.61 1127.76 4203.99 1023.25C4259.49 949.25 4289.99 793.75 4343.49 740.25C4382.5 701.242 4459.98 635.262 4591.49 543.25C4723 451.238 4719.5 152 4711.5 102.25C4703.5 52.4993 4656.5 52.4993 4578 52.4993Z" fill="#221737"/>
<path d="M622.5 1104.25L609.5 1052.25L603.5 1081.25L601 1065.25L600 1078.75L598 1060.25L593 1104.25L587.5 1053.75L583 1107.25L573 1104.25L570 1052.25L566 1088.25L561 1040.25L554.5 1084.75L553.5 1071.25L550.5 1105.75L546 1060.25L540 1105.75H531.5L527.5 1058.75L524 1077.75L522 1065.25L517 1104.25L512.5 1050.25L503.5 1111.75H633.5L627 1060.25L622.5 1104.25Z" fill="url(#paint2_linear_2314_3239)" fill-opacity="0.5"/>
<path d="M-1044 997.249C-1044 997.249 -971.048 1024.25 -884.024 1024.25C-797 1024.25 -715.646 997.249 -707.073 997.249C-698.5 997.249 -411.49 1066.25 -400.495 1067.25C-389.5 1068.25 -341 1042.75 -338 1045.25C-335 1047.75 -231 1077.25 -185.5 1072.25C-140 1067.25 -44.5 1003.25 -44.5 1003.25C-44.5 1003.25 89 1031.75 116 1033.25C143 1034.75 258 1005.75 284.5 1007.75C311 1009.75 508.5 1064.75 571.5 1076.25C634.5 1087.75 821.5 1090.25 857.5 1087.75C893.5 1085.25 1173.5 1002.25 1203.5 1002.75C1233.5 1003.25 1436.5 1089.75 1499.5 1098.75C1562.5 1107.75 2086 1127.75 2086 1127.75L2780.5 1109.75C2780.5 1109.75 2903 1091.75 2987 1070.25C3071 1048.75 3191 987.25 3252 987.249C3313 987.249 3706.5 1107.75 3726.5 1107.75C3746.5 1107.75 3786 1083.25 3805 1084.75C3824 1086.25 3852.5 1119.75 3875.5 1119.75C3898.5 1119.75 4131.5 1013.25 4131.5 1013.25C4131.5 1013.25 4209 1075.25 4314 1059.75C4419 1044.25 4517 960.749 4553 964.249C4589 967.749 4716 997.249 4716 997.249V1172.25H-1044V997.249Z" fill="url(#paint3_linear_2314_3239)"/>
<path d="M76 1102.75L86.5 1032.75L96.5 1093.75L100.5 1061.75L105.5 1102.75L111 1055.75L115.5 1105.75L125.5 1102.75L130.5 1065.75L131.5 1101.25L137.5 1038.75L144 1104.25L146.5 1070.25L148 1104.25L152.5 1058.75L158.5 1104.25H167L171 1067.75L173.5 1105.75L176.5 1063.75L181.5 1102.75L186 1048.75L195 1110.25H65L72.5 1052.25L76 1102.75Z" fill="url(#paint4_linear_2314_3239)"/>
<path d="M709.76 1098.23L719.001 1033.75L731.653 1093.54L735.001 1058.75L738.656 1104.17L742.501 1055.75L747.846 1109.12L758.246 1108.2L761.001 1072.25L764.425 1107.94L768.501 1047.75L776.064 1113.39L778.001 1079.25L779.983 1114.2L784.501 1069.75L790.267 1116.31L798.593 1118.03L801.001 1081.25L804.658 1120.8L808.501 1079.25L813.098 1119.48L817.001 1066.75L824.001 1125.75L840.001 1127.75L842.001 1109.75L845.001 1127.75L847.501 1117.75L850.001 1127.25L851.001 1131.75L824.811 1129.54L697.475 1103.36L703.498 1050.75L709.76 1098.23Z" fill="url(#paint5_linear_2314_3239)"/>
<path d="M862.101 1122.92C794.519 1135.96 645.5 1061.25 645.5 1061.25C645.5 1061.25 593.401 1093.49 568 1094.75C542.599 1096.01 327.5 1071.26 229.712 1073.58C131.925 1075.9 -183.5 1171.26 -321.767 1158.8C-460.033 1146.34 -521 1123.76 -610.66 1092.02C-700.32 1060.28 -759.5 1027.73 -799.781 1020.26C-840.062 1012.78 -1044 1027.73 -1044 1027.73V1182L4716 1181V1027.25C4716 1027.25 4627.5 1023.53 4571 1027.25C4437.8 1036.02 4237.5 1102.25 4237.5 1102.25C4237.5 1102.25 3990.91 1186.93 3841 1144.75C3732.78 1114.3 3631 1000.25 3595 995.25C3559 990.25 3522.23 1021.8 3478.5 1008.25C3443.51 997.406 3402.5 953.25 3402.5 953.25C3402.5 953.25 3261 1111.75 3245.5 1110.25C3230 1108.75 3193 1093.25 3173.5 1093.25C3154 1093.25 3020 1137.75 2970 1133.75C2920 1129.75 2796 1023.76 2796 1023.76C2796 1023.76 2668 1065.75 2638.15 1067.26C2608.3 1068.76 2567.67 1052.76 2567.67 1052.76C2567.67 1052.76 2424.26 1088.1 2330.4 1094.26C2192.26 1103.32 1977.47 1061.26 1977.47 1061.26L1796.29 1108.76C1796.29 1108.76 1458.56 1155.39 1420.53 1153.76C1382.5 1152.13 1374 1153.01 1258 1102.25C1142 1051.5 978.5 1009.75 978.5 1009.75C978.5 1009.75 877 1120.04 862.101 1122.92Z" fill="url(#paint6_linear_2314_3239)"/>
<circle cx="772.5" cy="453.75" r="3.5" fill="#CCC3E0"/>
<circle cx="492.092" cy="583.342" r="4.39923" transform="rotate(146.718 492.092 583.342)" fill="#CCC3E0"/>
<circle cx="685.5" cy="434.75" r="7.5" fill="#CCC3E0"/>
<circle cx="193.092" cy="779.342" r="4.39923" transform="rotate(146.718 193.092 779.342)" fill="#CCC3E0"/>
<circle cx="674.5" cy="203.75" r="3.5" fill="#CCC3E0"/>
<circle cx="600.5" cy="324.75" r="3.5" fill="#CCC3E0"/>
<circle cx="474.5" cy="710.75" r="3.5" fill="#CCC3E0"/>
<circle cx="198.671" cy="453.263" r="3.5" transform="rotate(146.718 198.671 453.263)" fill="#CCC3E0"/>
<circle cx="667.5" cy="297.75" r="2.5" fill="#CCC3E0"/>
<circle cx="280.671" cy="291.671" r="1.18427" transform="rotate(48.7815 280.671 291.671)" fill="#CCC3E0"/>
<circle cx="570.671" cy="409.671" r="1.18427" transform="rotate(48.7815 570.671 409.671)" fill="#CCC3E0"/>
<circle cx="217.671" cy="492.671" r="1.18427" transform="rotate(48.7815 217.671 492.671)" fill="#CCC3E0"/>
<circle cx="103.671" cy="150.671" r="1.18427" transform="rotate(48.7815 103.671 150.671)" fill="#CCC3E0"/>
<circle cx="250.671" cy="215.671" r="1.18427" transform="rotate(48.7815 250.671 215.671)" fill="#CCC3E0"/>
<circle cx="128.671" cy="604.671" r="1.18427" transform="rotate(48.7815 128.671 604.671)" fill="#CCC3E0"/>
<circle cx="397.671" cy="662.671" r="1.18427" transform="rotate(48.7815 397.671 662.671)" fill="#CCC3E0"/>
<circle cx="0.670795" cy="803.671" r="1.18427" transform="rotate(48.7815 0.670795 803.671)" fill="#CCC3E0"/>
<circle cx="620.671" cy="111.671" r="1.18427" transform="rotate(48.7815 620.671 111.671)" fill="#CCC3E0"/>
<circle cx="579.431" cy="469.477" r="3.14779" transform="rotate(-83.6442 579.431 469.477)" fill="#CCC3E0"/>
<circle cx="635.236" cy="630.031" r="3.14779" transform="rotate(-83.6442 635.236 630.031)" fill="#CCC3E0"/>
<circle cx="671.954" cy="496.454" r="1.62226" transform="rotate(-83.6442 671.954 496.454)" fill="#CCC3E0"/>
<circle cx="530.792" cy="494.579" r="1.62226" transform="rotate(-83.6442 530.792 494.579)" fill="#CCC3E0"/>
<circle cx="569.932" cy="486.642" r="1.62226" transform="rotate(-83.6442 569.932 486.642)" fill="#CCC3E0"/>
<circle cx="654.051" cy="621.32" r="1.62226" transform="rotate(-83.6442 654.051 621.32)" fill="#CCC3E0"/>
<circle cx="780.671" cy="378.671" r="1.18427" transform="rotate(48.7815 780.671 378.671)" fill="#CCC3E0"/>
<circle cx="36.5" cy="826.75" r="2.5" fill="#CCC3E0"/>
<circle cx="641" cy="506.25" r="3" fill="#CCC3E0"/>
<circle cx="324" cy="295.25" r="2" fill="#CCC3E0"/>
<circle cx="95.462" cy="136.712" r="2.5" transform="rotate(146.718 95.462 136.712)" fill="#CCC3E0"/>
<circle cx="65.2149" cy="323.756" r="3" transform="rotate(146.718 65.2149 323.756)" fill="#CCC3E0"/>
<circle cx="396" cy="214.25" r="3" fill="#CCC3E0"/>
<circle cx="308.556" cy="309.96" r="3" transform="rotate(146.718 308.556 309.96)" fill="#CCC3E0"/>
</g>
<defs>
<linearGradient id="paint0_linear_2314_3239" x1="-112.5" y1="916.961" x2="-112.5" y2="1096.25" gradientUnits="userSpaceOnUse">
<stop stop-color="#8680E5" stop-opacity="0.41"/>
<stop offset="0.789681" stop-color="#FFBAE3"/>
</linearGradient>
<linearGradient id="paint1_linear_2314_3239" x1="631.5" y1="1006.25" x2="631.5" y2="1130.75" gradientUnits="userSpaceOnUse">
<stop stop-color="#8680E5" stop-opacity="0.41"/>
<stop offset="0.575" stop-color="#FFBAE3"/>
</linearGradient>
<linearGradient id="paint2_linear_2314_3239" x1="566" y1="1049.75" x2="566" y2="1119.75" gradientUnits="userSpaceOnUse">
<stop stop-color="#2C1973"/>
<stop offset="0.795" stop-color="#6747B2"/>
</linearGradient>
<linearGradient id="paint3_linear_2314_3239" x1="1836" y1="883.749" x2="1836" y2="1528.75" gradientUnits="userSpaceOnUse">
<stop offset="0.24" stop-color="#8680E5"/>
<stop offset="0.605" stop-color="#E3ADE4"/>
<stop offset="0.65" stop-color="#FFA87C"/>
</linearGradient>
<linearGradient id="paint4_linear_2314_3239" x1="133" y1="1049.25" x2="133" y2="1119.25" gradientUnits="userSpaceOnUse">
<stop stop-color="#2C1973"/>
<stop offset="0.795" stop-color="#6747B2"/>
</linearGradient>
<linearGradient id="paint5_linear_2314_3239" x1="776.37" y1="1057.3" x2="762.272" y2="1125.87" gradientUnits="userSpaceOnUse">
<stop stop-color="#2C1973"/>
<stop offset="0.795" stop-color="#6747B2"/>
</linearGradient>
<linearGradient id="paint6_linear_2314_3239" x1="1989.5" y1="880.75" x2="1994.5" y2="1700.75" gradientUnits="userSpaceOnUse">
<stop offset="0.205" stop-color="#4B3EAA"/>
<stop offset="1" stop-color="#FFA87C"/>
</linearGradient>
<clipPath id="clip0_2314_3239">
<rect width="820" height="1181" fill="white"/>
</clipPath>
</defs>
</svg>
