<svg width="820" height="1181" viewBox="0 0 820 1181" fill="none" xmlns="http://www.w3.org/2000/svg">
<g clip-path="url(#clip0_2314_3467)">
<path d="M-436.5 1071.26L-364 1045.76L-298.5 1006.26L-152 1053.26L64.5 1091.26L-5 1130.76H-387.5L-436.5 1071.26Z" fill="url(#paint0_linear_2314_3467)"/>
<path d="M713.5 1118.3C713.5 1118.3 758.854 1109.77 786 1101.17C813.017 1092.62 824.381 1083.05 851.5 1074.65C983.081 1033.84 1219.5 1106.88 1219.5 1106.88L1214.5 1131.73L1145 1158.26H762.5L713.5 1118.3Z" fill="url(#paint1_linear_2314_3467)"/>
<path d="M-772.499 101.008C-702.998 -9.49197 -1060.51 44.5115 715 44.9997C906.499 33 743.5 560.259 780 738.259C816.5 916.259 685.709 936.5 533.001 917.5C380.293 898.5 550.568 757.759 458.844 738.259C367.119 718.759 307.126 741.759 236.226 733.259C165.326 724.759 -51.836 646.259 -92.4921 645.259C-133.148 644.259 -174.794 655.259 -209.996 673.259C-245.198 691.259 -444.508 851.529 -543.669 856.259C-642.83 860.989 -680.018 859.759 -723.649 865.759C-767.279 871.759 -853.55 922.259 -912.055 937.759C-970.56 953.259 -1013.7 957.259 -1054.85 926.759C-1096 896.259 -1174.34 877.759 -1205.08 877.759C-1235.82 877.759 -1274 880.509 -1287.5 883.509C-1301 886.509 -1321 893.509 -1321 893.509C-1321 893.509 -1291.42 871.509 -1281.5 867.009C-1271.58 862.509 -1232.35 839.019 -1143.6 826.759C-1054.85 814.499 -1009.23 837.759 -979.98 807.259C-950.727 776.759 -945.273 720.259 -979.98 687.759C-1014.69 655.259 -1058.32 607.759 -1019.15 525.259C-979.981 442.759 -929.408 452.759 -873.382 405.759C-817.356 358.759 -793.061 325.259 -795.045 295.759C-797.028 266.259 -821.998 218.259 -815.998 178.759C-809.998 139.259 -772.499 101.008 -772.499 101.008Z" fill="#221737"/>
<path d="M795.885 1125.76L785.154 1055.26L781.692 1116.76L778.923 1081.76L775.462 1125.76L770.615 1075.26L768.538 1128.76L761.615 1125.76L758.154 1088.76L757.462 1124.26L753.308 1061.76L748.808 1127.26L747.077 1093.26L746.038 1127.26L742.923 1081.76L738.769 1127.26H732.885L730.115 1090.76L728.385 1128.76L726.308 1086.76L722.846 1125.76L719.731 1071.76L713.5 1133.26H803.5L801.077 1076.76L795.885 1125.76Z" fill="url(#paint2_linear_2314_3467)" fill-opacity="0.5"/>
<path d="M-1863.5 993C-1863.5 993 -1790.55 1020 -1703.52 1020C-1616.5 1020 -1535.15 993 -1526.57 993C-1518 993 -1230.99 1062 -1220 1063C-1209 1064 -1160.5 1038.5 -1157.5 1041C-1154.5 1043.5 -1050.5 1073 -1005 1068C-959.5 1063 -864 999 -864 999C-864 999 -730.5 1027.5 -703.5 1029C-676.5 1030.5 -561.5 1001.5 -535 1003.5C-508.5 1005.5 -311 1060.5 -248 1072C-185 1083.5 2 1086 38 1083.5C74 1081 354 998 384 998.5C414 999 617 1085.5 680 1094.5C743 1103.5 820 1018.5 820 1018.5L1751 1106.5C1751 1106.5 1870.5 1049 1980.5 994.501C2090.5 940.001 2371.5 983.001 2432.5 983C2493.5 983 2887 1103.5 2907 1103.5C2927 1103.5 2966.5 1079 2985.5 1080.5C3004.5 1082 3033 1115.5 3056 1115.5C3079 1115.5 3312 1009 3312 1009C3312 1009 3389.5 1071 3494.5 1055.5C3599.5 1040 3697.5 956.5 3733.5 960C3769.5 963.5 3896.5 993 3896.5 993V1168H-1863.5V993Z" fill="url(#paint3_linear_2314_3467)"/>
<path d="M-107.74 1098.23L-98.499 1033.76L-85.8474 1093.55L-82.499 1058.76L-78.8445 1104.18L-74.999 1055.76L-69.6536 1109.13L-59.2543 1108.2L-56.499 1072.26L-53.0752 1107.94L-48.999 1047.76L-41.4355 1113.4L-39.499 1079.26L-37.5175 1114.2L-32.999 1069.76L-27.2326 1116.32L-18.9068 1118.03L-16.499 1081.26L-12.8421 1120.81L-8.99903 1079.26L-4.40185 1119.48L-0.499031 1066.76L6.50096 1125.76L22.501 1127.76L24.501 1109.76L27.501 1127.76L30.001 1117.76L32.501 1127.26L33.501 1131.76L7.31098 1129.55L-120.025 1103.37L-114.002 1050.76L-107.74 1098.23Z" fill="url(#paint4_linear_2314_3467)"/>
<path d="M45.1011 1122.66C-22.4808 1135.7 -171.5 1061 -171.5 1061C-171.5 1061 -223.599 1093.23 -249 1094.5C-274.401 1095.76 -489.5 1071 -587.288 1073.33C-685.075 1075.65 -1000.5 1171 -1138.77 1158.54C-1277.03 1146.09 -1338 1123.5 -1427.66 1091.77C-1517.32 1060.03 -1576.5 1027.48 -1616.78 1020C-1657.06 1012.53 -1861 1027.48 -1861 1027.48V1181.75L3899 1180.75V1027C3899 1027 3810.5 1023.28 3754 1027C3620.8 1035.76 3420.5 1102 3420.5 1102C3420.5 1102 3173.91 1186.68 3024 1144.5C2915.78 1114.05 2814 999.996 2778 994.996C2742 989.996 2705.23 1021.55 2661.5 1008C2626.51 997.152 2585.5 952.996 2585.5 952.996C2585.5 952.996 2444 1111.5 2428.5 1110C2413 1108.5 2376 1093 2356.5 1093C2337 1093 2032 1031.74 1982 1027.74C1932 1023.74 1920.5 1029.74 1920.5 1029.74C1920.5 1029.74 1851 1065.5 1821.15 1067C1791.3 1068.51 1750.67 1052.5 1750.67 1052.5C1750.67 1052.5 1607.26 1087.84 1513.4 1094C1375.26 1103.07 1160.47 1061 1160.47 1061L763 1011.5C763 1011.5 641.559 1155.13 603.529 1153.5C565.5 1151.87 529.5 1140.75 413.5 1090C297.5 1039.24 161.5 1009.5 161.5 1009.5C161.5 1009.5 59.9999 1119.79 45.1011 1122.66Z" fill="url(#paint5_linear_2314_3467)"/>
<circle cx="28" cy="126.759" r="6.5" fill="#CCC3E0"/>
<circle cx="309.071" cy="633.83" r="7.5" transform="rotate(49.6916 309.071 633.83)" fill="#CCC3E0"/>
<circle cx="793" cy="184.042" r="7.5" fill="#CCC3E0"/>
<circle cx="576.461" cy="154.647" r="7.5" transform="rotate(48.7815 576.461 154.647)" fill="#CCC3E0"/>
<circle cx="368.18" cy="242.008" r="2.88831" transform="rotate(146.718 368.18 242.008)" fill="#CCC3E0"/>
<circle cx="633.751" cy="200.785" r="4.39923" transform="rotate(-164.5 633.751 200.785)" fill="#CCC3E0"/>
<circle cx="68" cy="587.509" r="3.5" fill="#CCC3E0"/>
<circle cx="216.055" cy="261.334" r="2.88831" transform="rotate(-164.5 216.055 261.334)" fill="#CCC3E0"/>
<circle cx="255.915" cy="535.424" r="4.39923" transform="rotate(-164.5 255.915 535.424)" fill="#CCC3E0"/>
<circle cx="198" cy="264.759" r="3.5" fill="#CCC3E0"/>
<circle cx="55" cy="154.759" r="3.5" fill="#CCC3E0"/>
<circle cx="217.433" cy="487.192" r="3.5" transform="rotate(49.6916 217.433 487.192)" fill="#CCC3E0"/>
<circle cx="191.743" cy="380.251" r="2.29792" transform="rotate(48.7815 191.743 380.251)" fill="#CCC3E0"/>
<circle cx="77.7427" cy="331.251" r="2.29792" transform="rotate(48.7815 77.7427 331.251)" fill="#CCC3E0"/>
<circle cx="131.639" cy="416.823" r="1.18427" transform="rotate(48.7815 131.639 416.823)" fill="#CCC3E0"/>
<circle cx="202.171" cy="341.68" r="1.18427" transform="rotate(48.7815 202.171 341.68)" fill="#CCC3E0"/>
<circle cx="187.171" cy="366.68" r="1.18427" transform="rotate(48.7815 187.171 366.68)" fill="#CCC3E0"/>
<circle cx="103.171" cy="499.68" r="1.18427" transform="rotate(48.7815 103.171 499.68)" fill="#CCC3E0"/>
<circle cx="350.171" cy="527.68" r="1.18427" transform="rotate(48.7815 350.171 527.68)" fill="#CCC3E0"/>
<circle cx="516.171" cy="606.68" r="1.18427" transform="rotate(48.7815 516.171 606.68)" fill="#CCC3E0"/>
<circle cx="582.171" cy="222.68" r="1.18427" transform="rotate(48.7815 582.171 222.68)" fill="#CCC3E0"/>
<circle cx="506.171" cy="136.68" r="1.18427" transform="rotate(48.7815 506.171 136.68)" fill="#CCC3E0"/>
<circle cx="426.171" cy="269.68" r="1.18427" transform="rotate(48.7815 426.171 269.68)" fill="#CCC3E0"/>
<circle cx="661.171" cy="737.68" r="1.18427" transform="rotate(48.7815 661.171 737.68)" fill="#CCC3E0"/>
<circle cx="448.171" cy="511.68" r="1.18427" transform="rotate(48.7815 448.171 511.68)" fill="#CCC3E0"/>
<circle cx="420.171" cy="690.68" r="1.18427" transform="rotate(48.7815 420.171 690.68)" fill="#CCC3E0"/>
<circle cx="122.171" cy="645.68" r="1.18427" transform="rotate(48.7815 122.171 645.68)" fill="#CCC3E0"/>
<circle cx="112.53" cy="633.366" r="1.66096" transform="rotate(48.7815 112.53 633.366)" fill="#CCC3E0"/>
<circle cx="34.1708" cy="266.68" r="1.18427" transform="rotate(48.7815 34.1708 266.68)" fill="#CCC3E0"/>
<circle cx="73.1708" cy="345.68" r="1.18427" transform="rotate(48.7815 73.1708 345.68)" fill="#CCC3E0"/>
<circle cx="661.171" cy="737.68" r="1.18427" transform="rotate(48.7815 661.171 737.68)" fill="#CCC3E0"/>
<circle cx="582.171" cy="222.68" r="1.18427" transform="rotate(48.7815 582.171 222.68)" fill="#CCC3E0"/>
<circle cx="823.705" cy="691.846" r="3.5" transform="rotate(48.7815 823.705 691.846)" fill="#CCC3E0"/>
<circle cx="340.769" cy="583.739" r="2.29792" transform="rotate(48.7815 340.769 583.739)" fill="#CCC3E0"/>
<circle cx="489.257" cy="491.195" r="2.29792" transform="rotate(48.7815 489.257 491.195)" fill="#CCC3E0"/>
<circle cx="607.743" cy="445.251" r="2.29792" transform="rotate(48.7815 607.743 445.251)" fill="#CCC3E0"/>
<circle cx="688.422" cy="333.316" r="3.5" transform="rotate(-164.5 688.422 333.316)" fill="#CCC3E0"/>
<circle cx="452.195" cy="490.837" r="2.5" transform="rotate(48.7815 452.195 490.837)" fill="#CCC3E0"/>
<circle cx="289.728" cy="324.237" r="3" transform="rotate(49.6916 289.728 324.237)" fill="#CCC3E0"/>
<circle cx="455.357" cy="342.397" r="1.96965" transform="rotate(48.7815 455.357 342.397)" fill="#CCC3E0"/>
<circle cx="769.3" cy="275.6" r="1.46309" transform="rotate(-164.5 769.3 275.6)" fill="#CCC3E0"/>
<circle cx="793.353" cy="260.249" r="1.9101" transform="rotate(49.6916 793.353 260.249)" fill="#CCC3E0"/>
<circle cx="370.259" cy="340.618" r="1.96965" transform="rotate(-164.5 370.259 340.618)" fill="#CCC3E0"/>
<circle cx="254.743" cy="134.251" r="2.29792" transform="rotate(48.7815 254.743 134.251)" fill="#CCC3E0"/>
</g>
<defs>
<linearGradient id="paint0_linear_2314_3467" x1="-186" y1="1006.26" x2="-186" y2="1130.76" gradientUnits="userSpaceOnUse">
<stop stop-color="#8680E5" stop-opacity="0.41"/>
<stop offset="0.575" stop-color="#FFBAE3"/>
</linearGradient>
<linearGradient id="paint1_linear_2314_3467" x1="966.5" y1="1062.26" x2="966.5" y2="1158.26" gradientUnits="userSpaceOnUse">
<stop stop-color="#8680E5" stop-opacity="0.41"/>
<stop offset="0.575" stop-color="#FFBAE3"/>
</linearGradient>
<linearGradient id="paint2_linear_2314_3467" x1="756.423" y1="1072.26" x2="756.423" y2="1142.26" gradientUnits="userSpaceOnUse">
<stop stop-color="#2C1973"/>
<stop offset="0.795" stop-color="#6747B2"/>
</linearGradient>
<linearGradient id="paint3_linear_2314_3467" x1="1018.5" y1="883.782" x2="1018.5" y2="1528.78" gradientUnits="userSpaceOnUse">
<stop offset="0.24" stop-color="#8680E5"/>
<stop offset="0.605" stop-color="#E3ADE4"/>
<stop offset="0.65" stop-color="#FFA87C"/>
</linearGradient>
<linearGradient id="paint4_linear_2314_3467" x1="-41.1298" y1="1057.31" x2="-55.2281" y2="1125.88" gradientUnits="userSpaceOnUse">
<stop stop-color="#2C1973"/>
<stop offset="0.795" stop-color="#6747B2"/>
</linearGradient>
<linearGradient id="paint5_linear_2314_3467" x1="1172.5" y1="880.496" x2="1177.5" y2="1700.5" gradientUnits="userSpaceOnUse">
<stop offset="0.205" stop-color="#4B3EAA"/>
<stop offset="1" stop-color="#FFA87C"/>
</linearGradient>
<clipPath id="clip0_2314_3467">
<rect width="820" height="1181" fill="white"/>
</clipPath>
</defs>
</svg>
