<svg width="820" height="1181" viewBox="0 0 820 1181" fill="none" xmlns="http://www.w3.org/2000/svg">
<g clip-path="url(#clip0_2314_2783)">
<path d="M501 1078.37C501 1078.37 548.126 1058.98 574.587 1041.62C608.817 1019.17 639.047 967.618 650.456 972.585C661.865 977.552 758.382 989.202 817.595 1019.27C859.46 1040.53 914 1087.31 914 1087.31L548.917 1096.25L501 1078.37Z" fill="url(#paint0_linear_2314_2783)"/>
<path d="M5398 52.4993C3622.49 52.0111 934.5 -9.5006 864.999 101C864.999 101 827.5 139.25 821.5 178.75C815.5 218.25 840.47 266.25 842.454 295.75C844.437 325.25 820.142 358.75 764.116 405.75C708.09 452.75 657.518 442.75 618.35 525.25C579.181 607.75 622.812 655.25 657.519 687.75C692.225 720.25 686.771 776.75 657.519 807.25C628.266 837.75 582.652 814.49 493.902 826.75C405.153 839.01 365.917 862.5 356 867C346.084 871.5 316.5 893.5 316.5 893.5C316.5 893.5 336.5 886.5 350 883.5C363.5 880.5 401.682 877.75 432.422 877.75C463.162 877.75 541.499 896.25 582.651 926.75C623.803 957.25 666.938 953.25 725.443 937.75C783.948 922.25 870.219 871.75 913.85 865.75C957.481 859.75 994.667 860.98 1093.83 856.25C1192.99 851.52 1392.3 691.25 1427.5 673.25C1462.7 655.25 1504.35 644.25 1545 645.25C1585.66 646.25 1802.82 724.75 1873.72 733.25C1944.62 741.75 2004.62 718.75 2096.34 738.25C2188.06 757.75 2429.52 946.75 2582.23 965.75C2734.94 984.75 3061.67 911.334 3167.28 949.25C3272.89 987.166 3257.52 1045.25 3327.92 1073.25C3398.32 1101.25 3612.5 1176 3612.5 1176L4586.5 1174C4586.5 1174 4669.41 1152.97 4724.99 1124.75C4841.48 1065.62 4945.61 1127.76 5023.99 1023.25C5079.49 949.25 5109.99 793.75 5163.49 740.25C5202.5 701.242 5279.98 635.262 5411.49 543.25C5543 451.238 5539.5 152 5531.5 102.25C5523.5 52.4993 5476.5 52.4993 5398 52.4993Z" fill="#221737"/>
<path d="M696.667 1061.71L689.636 1020.13L681.483 1059.31L678.822 1036.83L676.747 1066.42L673.606 1035.11L670.441 1069.91L663.242 1069.62L660.979 1046.36L658.967 1069.63L655.55 1030.68L650.973 1073.52L649.294 1051.41L648.272 1074.15L644.706 1045.44L641.182 1075.83L635.442 1077.19L633.411 1053.39L631.276 1079.17L628.206 1052.31L625.427 1078.56L622.204 1044.45L617.951 1082.96L606.908 1084.73L605.346 1073.1L603.451 1084.88L601.623 1078.46L599.989 1084.7L599.342 1087.65L617.429 1085.44L705.213 1064.67L700.525 1030.7L696.667 1061.71Z" fill="url(#paint1_linear_2314_2783)" fill-opacity="0.5"/>
<path d="M-224 997.249C-224 997.249 -151.048 1024.25 -64.024 1024.25C23 1024.25 104.354 997.249 112.927 997.249C121.5 997.249 408.51 1066.25 419.505 1067.25C430.5 1068.25 479 1042.75 482 1045.25C485 1047.75 589 1077.25 634.5 1072.25C680 1067.25 775.5 1003.25 775.5 1003.25C775.5 1003.25 909 1031.75 936 1033.25C963 1034.75 1078 1005.75 1104.5 1007.75C1131 1009.75 1328.5 1064.75 1391.5 1076.25C1454.5 1087.75 1641.5 1090.25 1677.5 1087.75C1713.5 1085.25 1993.5 1002.25 2023.5 1002.75C2053.5 1003.25 2256.5 1089.75 2319.5 1098.75C2382.5 1107.75 2906 1127.75 2906 1127.75L3600.5 1109.75C3600.5 1109.75 3723 1091.75 3807 1070.25C3891 1048.75 4011 987.25 4072 987.249C4133 987.249 4526.5 1107.75 4546.5 1107.75C4566.5 1107.75 4606 1083.25 4625 1084.75C4644 1086.25 4672.5 1119.75 4695.5 1119.75C4718.5 1119.75 4951.5 1013.25 4951.5 1013.25C4951.5 1013.25 5029 1075.25 5134 1059.75C5239 1044.25 5337 960.749 5373 964.249C5409 967.749 5536 997.249 5536 997.249V1172.25H-224V997.249Z" fill="url(#paint2_linear_2314_2783)"/>
<path d="M286.501 1115.25L293.901 1064.25L303.001 1124.25L308.501 1097.25L312.143 1125.62L314.406 1102.36L316.418 1125.63L325.5 1079.75L327.5 1127.25L332.5 1074.25L340.5 1120.75L344.5 1080.75L351.5 1134.84L353.181 1100.45L357.434 1138.96L337.5 1134.25L317.5 1128.75L276 1116.25L280.001 1090.25L286.501 1115.25Z" fill="url(#paint3_linear_2314_2783)" fill-opacity="0.5"/>
<path d="M466.377 1156.95L469.498 1130.66L474.5 1162.92L483.321 1109.45L489.5 1162.48H494L504.725 1070.25L514.5 1162.48H517.21L523.452 1119.13L531.479 1163.41L533.262 1148.65L534.6 1163.41L539.059 1161.1L548.423 1097.92L552.882 1133.43L560.016 1087.31L568.934 1147.73L576.961 1096.54L585.5 1165.25L453 1162.48L460.58 1113.6L466.377 1156.95Z" fill="url(#paint4_linear_2314_2783)"/>
<path d="M1682.1 1122.92C1614.52 1135.96 1465.5 1061.25 1465.5 1061.25C1465.5 1061.25 1413.4 1093.49 1388 1094.75C1362.6 1096.01 1147.5 1071.26 1049.71 1073.58C951.925 1075.9 636.5 1171.26 498.233 1158.8C359.967 1146.34 299 1123.76 209.34 1092.02C119.68 1060.28 60.5 1027.73 20.2192 1020.26C-20.0615 1012.78 -224 1027.73 -224 1027.73V1182L5536 1181V1027.25C5536 1027.25 5447.5 1023.53 5391 1027.25C5257.8 1036.02 5057.5 1102.25 5057.5 1102.25C5057.5 1102.25 4810.91 1186.93 4661 1144.75C4552.78 1114.3 4451 1000.25 4415 995.25C4379 990.25 4342.23 1021.8 4298.5 1008.25C4263.51 997.406 4222.5 953.25 4222.5 953.25C4222.5 953.25 4081 1111.75 4065.5 1110.25C4050 1108.75 4013 1093.25 3993.5 1093.25C3974 1093.25 3840 1137.75 3790 1133.75C3740 1129.75 3616 1023.76 3616 1023.76C3616 1023.76 3488 1065.75 3458.15 1067.26C3428.3 1068.76 3387.67 1052.76 3387.67 1052.76C3387.67 1052.76 3244.26 1088.1 3150.4 1094.26C3012.26 1103.32 2797.47 1061.26 2797.47 1061.26L2616.29 1108.76C2616.29 1108.76 2278.56 1155.39 2240.53 1153.76C2202.5 1152.13 2194 1153.01 2078 1102.25C1962 1051.5 1798.5 1009.75 1798.5 1009.75C1798.5 1009.75 1697 1120.04 1682.1 1122.92Z" fill="url(#paint5_linear_2314_2783)"/>
<path d="M189.913 951.743L279.05 900.885L288.593 917.077L197.793 966.127L189.913 951.743Z" fill="url(#paint6_linear_2314_2783)"/>
<rect x="296.032" y="887.032" width="26.6145" height="23.0009" transform="rotate(58.8042 296.032 887.032)" fill="url(#paint7_linear_2314_2783)"/>
<rect x="191.019" y="952.516" width="14.4664" height="12.7499" transform="rotate(60.9879 191.019 952.516)" fill="url(#paint8_linear_2314_2783)"/>
<rect x="182.35" y="962.804" width="7.18387" height="38.817" transform="rotate(60.9879 182.35 962.804)" fill="url(#paint9_linear_2314_2783)"/>
<circle cx="231.917" cy="952.774" r="7.5" fill="#221737"/>
<circle cx="231.917" cy="952.774" r="4.5" fill="url(#paint10_linear_2314_2783)"/>
<line x1="331.502" y1="1134.68" x2="261.502" y2="975.677" stroke="url(#paint11_linear_2314_2783)" stroke-width="2"/>
<line x1="245.419" y1="1140.21" x2="255.419" y2="978.213" stroke="url(#paint12_linear_2314_2783)" stroke-width="2"/>
<line x1="187.523" y1="1103.83" x2="250.523" y2="977.827" stroke="url(#paint13_linear_2314_2783)" stroke-width="2"/>
<rect x="240.417" y="968.274" width="27" height="10" fill="#221737"/>
<rect x="234.663" y="958.912" width="5" height="17.0002" transform="rotate(-38.5742 234.663 958.912)" fill="#221737"/>
<rect x="257.417" y="971.274" width="7" height="3" fill="#D9D9D9"/>
<path d="M208 1091.5L283.5 1117.98L337 1133C337 1133 290.566 1136.96 266 1146.48C246.53 1154.03 219 1169.73 219 1169.73L100.5 1159.98C100.5 1159.98 128.68 1133.28 149.5 1119.98C170.699 1106.45 208 1091.5 208 1091.5Z" fill="url(#paint14_linear_2314_2783)"/>
<path d="M103 1089L205 1107C205 1107 172.066 1121.48 147.5 1131C128.03 1138.55 100.5 1156.5 100.5 1156.5L-39 1129.48C-39 1129.48 14.124 1107.32 38 1100.98C62.5 1094.48 103 1089 103 1089Z" fill="url(#paint15_linear_2314_2783)"/>
<path d="M68.0981 1094.8L77.4558 1078.98L81.2744 1087.79C81.2744 1087.79 71.9596 1101.54 71.0839 1101.57C70.2081 1101.6 59.8184 1101.91 59.2243 1100.68C58.6302 1099.45 63.6843 1098.67 63.6843 1098.67L60.8525 1098.13C60.8525 1098.13 53.0283 1100.87 50.7752 1100.94C48.5221 1101 48.5067 1100.38 48.5067 1100.38C48.5067 1100.38 55.6906 1094.55 57.9283 1093.86C60.166 1093.16 68.0981 1094.8 68.0981 1094.8Z" fill="#FF8C8C"/>
<path d="M117.495 986.486C118.194 984.958 116.146 978.384 119.813 976.295C121.551 975.304 123.591 975.533 125.363 974.62C127.188 973.68 127.308 971.862 129.297 971.555C133.535 970.902 131.508 973.692 133.233 974.227C133.982 974.459 135.836 970.932 138.58 970.944C142.149 970.96 144.91 974.07 145.242 978.113C145.539 981.721 143.21 981.991 143.932 984.871C144.53 987.255 146.758 984.436 146.658 989.368C146.559 994.301 138.688 994.694 138.688 994.694C138.688 994.694 117.184 1009.52 116.994 999.676C116.956 997.672 118.5 996.479 117.8 994.635C117.174 992.984 115.676 993.482 115.275 991.746C114.36 987.789 116.674 988.28 117.495 986.486Z" fill="#221737"/>
<path d="M123.568 985.807C123.568 985.807 130.16 979.779 133.65 979.711C137.14 979.643 144.007 989.473 142.779 997.228C141.552 1004.98 133.223 1004.75 133.223 1004.75L131.686 1011.8L137.593 1017.12C137.593 1017.12 133.232 1020.25 128.013 1020.24C121.626 1020.23 117.871 1013.38 117.871 1013.38C117.871 1013.38 122.64 1010.57 123.198 1002.16C123.756 993.754 123.198 995.706 123.198 995.706C123.198 995.706 120.027 996.188 120.772 989.264C120.929 987.798 123.849 988.033 123.849 988.033L123.568 985.807Z" fill="#FF8C8C"/>
<path d="M177.23 1097.23L192 1097.23C192 1097.23 200.084 1101.8 203.777 1102.98C207.47 1104.16 206.8 1108.54 206.8 1108.54L177.406 1109.07L177.23 1097.23Z" fill="url(#paint16_linear_2314_2783)"/>
<path d="M95.8467 1024.34C99.9333 1020.14 118.222 1012.77 118.222 1012.77C118.222 1012.77 123.624 1019.2 128.151 1019.42C131.99 1019.6 137.305 1015.42 137.305 1015.42C137.305 1015.42 153.805 1027.95 157.896 1040.6C161.987 1053.24 159.445 1061.88 159.445 1061.88L140.138 1082.93C140.138 1082.93 96.1815 1082.19 95.1105 1080.48C94.0395 1078.77 94.7543 1074.22 94.7543 1074.22C94.7543 1074.22 92.1885 1083.48 86.9343 1088.89C81.6801 1094.29 76.072 1078.48 76.072 1078.48C76.072 1078.48 80.4351 1071.24 82.6386 1065.26C84.8421 1059.29 91.7601 1028.55 95.8467 1024.34Z" fill="#2C1973"/>
<path d="M104.551 1033.58C104.551 1033.58 102.928 1048.97 99.7397 1060.07C96.5517 1071.18 94.1324 1076.07 94.1324 1076.07" stroke="#8680E5"/>
<path d="M98.8936 1029.04C98.8936 1029.04 99.5752 1029.4 100.73 1031.25C101.884 1033.1 102.476 1034.96 102.476 1034.96" stroke="#8680E5"/>
<path d="M148.782 1026.5C148.782 1026.5 146.989 1029.54 146.741 1037.02C146.493 1044.5 148.079 1047.68 148.079 1047.68" stroke="#8680E5"/>
<path d="M166.175 1111.77L177.949 1106.19C177.949 1106.19 180.862 1109.34 183.388 1110.68C187.011 1112.6 192.787 1107.9 195.933 1111.99C199.079 1116.07 170.321 1124.44 170.321 1124.44L166.175 1111.77Z" fill="url(#paint17_linear_2314_2783)"/>
<path d="M100.348 1081.15L113.88 1081.53C113.88 1081.53 144.349 1046.04 151.064 1042.8C157.778 1039.56 158.37 1041.42 160.642 1042.63C162.914 1043.83 166.978 1051.87 166.978 1051.87C166.978 1051.87 187.564 1033.95 191.689 1033.33C195.813 1032.72 198.45 1032.71 202.269 1037.51C206.088 1042.3 192.444 1096.94 192.444 1096.94L183.993 1097.09L186.329 1102.66L163.941 1113.05L157.438 1092.59C157.438 1092.59 140.12 1102.88 127.208 1106.23C114.296 1109.59 105.198 1104.14 102.289 1097.95C99.379 1091.77 100.348 1081.15 100.348 1081.15Z" fill="url(#paint18_linear_2314_2783)"/>
<path d="M167.532 1051.24L185.726 1102.45" stroke="#221737"/>
<path d="M151.249 1055.79C151.249 1055.79 150.375 1067.37 151.528 1074.6C152.732 1082.15 157.438 1093.11 157.438 1093.11" stroke="#221737"/>
<path d="M139.637 1100.64C139.637 1100.64 144.328 1096.21 146.733 1092.78C149.781 1088.44 152.862 1080.44 152.862 1080.44" stroke="#221737"/>
<path d="M107.944 1092.5L115.532 1079" stroke="#221737"/>
<path d="M188.279 1046.72C188.279 1046.72 183.833 1055.55 181.775 1061.58C179.483 1068.3 177.492 1079.35 177.492 1079.35" stroke="#221737"/>
<path d="M127.647 1000.07C127.647 1000.07 128.809 1002.13 129.795 1003.22C130.781 1004.31 133 1005.21 133 1005.21" stroke="#D15B5B"/>
<path d="M138 988.609C138 988.609 138.031 989.557 138.703 990.909C139.375 992.262 141.28 993.806 141.28 993.806" stroke="#D15B5B"/>
<path d="M129.174 992.045C129.174 992.045 130.097 992.262 131.578 991.967C133.06 991.673 135.05 990.24 135.05 990.24" stroke="#D15B5B"/>
<path d="M139.576 988.382C139.576 988.382 139.44 988.586 139.078 988.795C138.717 989.003 137.999 989.092 137.999 989.092" stroke="#D15B5B"/>
<line y1="-0.5" x2="6.33732" y2="-0.5" transform="matrix(0.192411 0.980719 -0.973 0.233835 182.171 1050.35)" stroke="#221737"/>
<path d="M122.947 982.161L125.788 978.729C125.788 978.729 129.793 980.161 129.473 982.466C129.234 984.195 128.168 985.483 126.633 985.898C125.488 986.208 124.648 985.989 123.843 985.173C123.038 984.357 122.947 982.161 122.947 982.161Z" fill="#221737"/>
<circle cx="761.671" cy="556.671" r="1.18427" transform="rotate(48.7815 761.671 556.671)" fill="#CCC3E0"/>
<circle cx="820.671" cy="803.671" r="1.18427" transform="rotate(48.7815 820.671 803.671)" fill="#CCC3E0"/>
<circle cx="701.671" cy="901.671" r="1.18427" transform="rotate(48.7815 701.671 901.671)" fill="#CCC3E0"/>
<circle cx="734.671" cy="816.671" r="1.18427" transform="rotate(48.7815 734.671 816.671)" fill="#CCC3E0"/>
<circle cx="793" cy="571.25" r="3" fill="#CCC3E0"/>
<circle cx="818.5" cy="433.75" r="1.5" fill="#CCC3E0"/>
</g>
<defs>
<linearGradient id="paint0_linear_2314_2783" x1="707.5" y1="916.961" x2="707.5" y2="1096.25" gradientUnits="userSpaceOnUse">
<stop stop-color="#8680E5" stop-opacity="0.41"/>
<stop offset="0.789681" stop-color="#FFBAE3"/>
</linearGradient>
<linearGradient id="paint1_linear_2314_2783" x1="650.204" y1="1037.12" x2="660.634" y2="1081.21" gradientUnits="userSpaceOnUse">
<stop stop-color="#2C1973"/>
<stop offset="0.795" stop-color="#6747B2"/>
</linearGradient>
<linearGradient id="paint2_linear_2314_2783" x1="2656" y1="883.749" x2="2656" y2="1528.75" gradientUnits="userSpaceOnUse">
<stop offset="0.24" stop-color="#8680E5"/>
<stop offset="0.605" stop-color="#E3ADE4"/>
<stop offset="0.65" stop-color="#FFA87C"/>
</linearGradient>
<linearGradient id="paint3_linear_2314_2783" x1="325.181" y1="1093.12" x2="314.75" y2="1137.21" gradientUnits="userSpaceOnUse">
<stop stop-color="#2C1973"/>
<stop offset="0.795" stop-color="#6747B2"/>
</linearGradient>
<linearGradient id="paint4_linear_2314_2783" x1="523.898" y1="1108.99" x2="523.898" y2="1173.55" gradientUnits="userSpaceOnUse">
<stop stop-color="#2C1973"/>
<stop offset="0.795" stop-color="#6747B2"/>
</linearGradient>
<linearGradient id="paint5_linear_2314_2783" x1="2809.5" y1="880.75" x2="2814.5" y2="1700.75" gradientUnits="userSpaceOnUse">
<stop offset="0.205" stop-color="#4B3EAA"/>
<stop offset="1" stop-color="#FFA87C"/>
</linearGradient>
<linearGradient id="paint6_linear_2314_2783" x1="242.567" y1="926.322" x2="248.971" y2="938.619" gradientUnits="userSpaceOnUse">
<stop stop-color="#E1E1E1"/>
<stop offset="1" stop-color="#978E9E"/>
</linearGradient>
<linearGradient id="paint7_linear_2314_2783" x1="296.032" y1="898.533" x2="322.264" y2="898.579" gradientUnits="userSpaceOnUse">
<stop stop-color="#8680E5"/>
<stop offset="0.44" stop-color="#4B3EAA"/>
</linearGradient>
<linearGradient id="paint8_linear_2314_2783" x1="191.019" y1="958.891" x2="205.485" y2="958.891" gradientUnits="userSpaceOnUse">
<stop stop-color="#61429D"/>
<stop offset="1" stop-color="#221737"/>
</linearGradient>
<linearGradient id="paint9_linear_2314_2783" x1="182.35" y1="982.212" x2="189.533" y2="982.212" gradientUnits="userSpaceOnUse">
<stop stop-color="#61429D"/>
<stop offset="1" stop-color="#221737"/>
</linearGradient>
<linearGradient id="paint10_linear_2314_2783" x1="231.917" y1="948.274" x2="234.417" y2="956.774" gradientUnits="userSpaceOnUse">
<stop stop-color="#978E9E"/>
<stop offset="1" stop-color="#E1E1E1"/>
</linearGradient>
<linearGradient id="paint11_linear_2314_2783" x1="262.875" y1="975.073" x2="332.875" y2="1134.07" gradientUnits="userSpaceOnUse">
<stop stop-color="#61429D"/>
<stop offset="1" stop-color="#221737"/>
</linearGradient>
<linearGradient id="paint12_linear_2314_2783" x1="256.916" y1="978.305" x2="246.916" y2="1140.31" gradientUnits="userSpaceOnUse">
<stop stop-color="#61429D"/>
<stop offset="1" stop-color="#221737"/>
</linearGradient>
<linearGradient id="paint13_linear_2314_2783" x1="251.864" y1="978.498" x2="188.864" y2="1104.5" gradientUnits="userSpaceOnUse">
<stop stop-color="#61429D"/>
<stop offset="1" stop-color="#221737"/>
</linearGradient>
<linearGradient id="paint14_linear_2314_2783" x1="240.5" y1="1055.98" x2="204" y2="1171.98" gradientUnits="userSpaceOnUse">
<stop stop-color="#221737"/>
<stop offset="1" stop-color="#4B3EAA" stop-opacity="0"/>
</linearGradient>
<linearGradient id="paint15_linear_2314_2783" x1="122" y1="1040.5" x2="85.5" y2="1156.5" gradientUnits="userSpaceOnUse">
<stop stop-color="#221737"/>
<stop offset="1" stop-color="#4B3EAA" stop-opacity="0"/>
</linearGradient>
<linearGradient id="paint16_linear_2314_2783" x1="191.957" y1="1096.96" x2="192.173" y2="1108.8" gradientUnits="userSpaceOnUse">
<stop stop-color="#8680E5"/>
<stop offset="1" stop-color="#4B3EAA"/>
</linearGradient>
<linearGradient id="paint17_linear_2314_2783" x1="180.686" y1="1105.93" x2="182.343" y2="1123.3" gradientUnits="userSpaceOnUse">
<stop stop-color="#8680E5"/>
<stop offset="1" stop-color="#4B3EAA"/>
</linearGradient>
<linearGradient id="paint18_linear_2314_2783" x1="152.308" y1="919.74" x2="152.954" y2="1113.26" gradientUnits="userSpaceOnUse">
<stop stop-color="#FFA87C"/>
<stop offset="0.84" stop-color="#3B2F99"/>
<stop offset="1" stop-color="#2C1973"/>
</linearGradient>
<clipPath id="clip0_2314_2783">
<rect width="820" height="1181" fill="white"/>
</clipPath>
</defs>
</svg>
