<svg width="1280" height="801" viewBox="0 0 1280 801" fill="none" xmlns="http://www.w3.org/2000/svg">
<g clip-path="url(#clip0_2312_264)">
<path d="M725 698.371C725 698.371 772.126 678.975 798.587 661.619C832.817 639.167 863.047 587.618 874.456 592.585C885.865 597.552 982.382 609.202 1041.6 639.27C1083.46 660.528 1138 707.31 1138 707.31L772.917 716.25L725 698.371Z" fill="url(#paint0_linear_2312_264)"/>
<path d="M5622 -327.501C3846.49 -327.989 1158.5 -389.501 1089 -279C1089 -279 1051.5 -240.75 1045.5 -201.25C1039.5 -161.75 1064.47 -113.75 1066.45 -84.2499C1068.44 -54.7499 1044.14 -21.2502 988.116 25.7498C932.09 72.7498 881.518 62.7497 842.35 145.25C803.181 227.75 846.812 275.25 881.519 307.75C916.225 340.25 910.771 396.75 881.519 427.25C852.266 457.75 806.652 434.49 717.902 446.75C629.153 459.01 589.917 482.5 580 487C570.084 491.5 540.5 513.5 540.5 513.5C540.5 513.5 560.5 506.5 574 503.5C587.5 500.5 625.682 497.75 656.422 497.75C687.162 497.75 765.499 516.25 806.651 546.75C847.803 577.25 890.938 573.25 949.443 557.75C1007.95 542.25 1094.22 491.75 1137.85 485.75C1181.48 479.75 1218.67 480.98 1317.83 476.25C1416.99 471.52 1616.3 311.25 1651.5 293.25C1686.7 275.25 1728.35 264.25 1769 265.25C1809.66 266.25 2026.82 344.75 2097.72 353.25C2168.62 361.75 2228.62 338.75 2320.34 358.25C2412.06 377.75 2653.52 566.75 2806.23 585.75C2958.94 604.75 3285.67 531.334 3391.28 569.25C3496.89 607.166 3481.52 665.25 3551.92 693.25C3622.32 721.25 3836.5 796 3836.5 796L4810.5 794C4810.5 794 4893.41 772.965 4948.99 744.751C5065.48 685.62 5169.61 747.759 5247.99 643.25C5303.49 569.25 5333.99 413.75 5387.49 360.25C5426.5 321.242 5503.98 255.262 5635.49 163.25C5767 71.2383 5763.5 -228 5755.5 -277.75C5747.5 -327.501 5700.5 -327.501 5622 -327.501Z" fill="#221737"/>
<path d="M920.667 681.708L913.636 640.129L905.483 679.314L902.822 656.83L900.747 686.421L897.606 655.105L894.441 689.908L887.242 689.616L884.979 666.364L882.967 689.629L879.55 650.683L874.973 693.516L873.294 671.411L872.272 694.155L868.706 665.437L865.182 695.832L859.442 697.19L857.411 673.391L855.276 699.173L852.206 672.315L849.427 698.562L846.204 664.453L841.951 702.957L830.908 704.729L829.346 693.105L827.451 704.877L825.623 698.46L823.989 704.701L823.342 707.651L841.429 705.442L929.213 684.674L924.525 650.704L920.667 681.708Z" fill="url(#paint1_linear_2312_264)" fill-opacity="0.5"/>
<path d="M0 617.249C0 617.249 72.952 644.249 159.976 644.249C247 644.249 328.354 617.249 336.927 617.249C345.5 617.249 632.51 686.249 643.505 687.249C654.5 688.249 703 662.749 706 665.249C709 667.749 813 697.249 858.5 692.249C904 687.249 999.5 623.249 999.5 623.249C999.5 623.249 1133 651.749 1160 653.249C1187 654.749 1302 625.749 1328.5 627.749C1355 629.749 1552.5 684.749 1615.5 696.249C1678.5 707.749 1865.5 710.249 1901.5 707.749C1937.5 705.249 2217.5 622.249 2247.5 622.749C2277.5 623.249 2480.5 709.749 2543.5 718.749C2606.5 727.749 3130 747.749 3130 747.749L3824.5 729.749C3824.5 729.749 3947 711.75 4031 690.249C4115 668.749 4235 607.25 4296 607.249C4357 607.249 4750.5 727.75 4770.5 727.749C4790.5 727.749 4830 703.249 4849 704.749C4868 706.25 4896.5 739.749 4919.5 739.749C4942.5 739.749 5175.5 633.249 5175.5 633.249C5175.5 633.249 5253 695.249 5358 679.749C5463 664.249 5561 580.749 5597 584.249C5633 587.749 5760 617.249 5760 617.249V792.249H0V617.249Z" fill="url(#paint2_linear_2312_264)"/>
<path d="M510.501 735.25L517.901 684.25L527.001 744.25L532.501 717.25L536.143 745.616L538.406 722.364L540.418 745.629L549.5 699.75L551.5 747.25L556.5 694.25L564.5 740.75L568.5 700.75L575.5 754.84L577.181 720.453L581.434 758.957L561.5 754.25L541.5 748.75L500 736.25L504.001 710.25L510.501 735.25Z" fill="url(#paint3_linear_2312_264)" fill-opacity="0.5"/>
<path d="M690.377 776.949L693.498 750.663L698.5 782.92L707.321 729.449L713.5 782.483H718L728.725 690.25L738.5 782.483H741.21L747.452 739.133L755.479 783.405L757.262 768.648L758.6 783.405L763.059 781.1L772.423 717.92L776.882 753.43L784.016 707.313L792.934 767.726L800.961 716.536L809.5 785.25L677 782.483L684.58 733.6L690.377 776.949Z" fill="url(#paint4_linear_2312_264)"/>
<path d="M1120 722.75L1130.5 652.75L1140.5 713.75L1144.5 681.75L1149.5 722.75L1155 675.75L1159.5 725.75L1169.5 722.75L1174.5 685.75L1175.5 721.25L1181.5 658.75L1188 724.25L1190.5 690.25L1192 724.25L1196.5 678.75L1202.5 724.25H1211L1215 687.75L1217.5 725.75L1220.5 683.75L1225.5 722.75L1230 668.75L1239 730.25H1109L1116.5 672.25L1120 722.75Z" fill="url(#paint5_linear_2312_264)"/>
<path d="M1906.1 742.917C1838.52 755.958 1689.5 681.25 1689.5 681.25C1689.5 681.25 1637.4 713.488 1612 714.75C1586.6 716.012 1371.5 691.257 1273.71 693.58C1175.92 695.904 860.5 791.257 722.233 778.798C583.967 766.339 523 743.757 433.34 712.019C343.68 680.282 284.5 647.732 244.219 640.257C203.938 632.782 0 647.732 0 647.732V802L5760 801V647.25C5760 647.25 5671.5 643.53 5615 647.25C5481.8 656.019 5281.5 722.25 5281.5 722.25C5281.5 722.25 5034.91 806.93 4885 764.75C4776.78 734.301 4675 620.25 4639 615.25C4603 610.25 4566.23 641.8 4522.5 628.25C4487.51 617.406 4446.5 573.25 4446.5 573.25C4446.5 573.25 4305 731.75 4289.5 730.25C4274 728.75 4237 713.25 4217.5 713.25C4198 713.25 4064 757.75 4014 753.75C3964 749.75 3840 643.757 3840 643.757C3840 643.757 3712 685.754 3682.15 687.257C3652.3 688.76 3611.67 672.757 3611.67 672.757C3611.67 672.757 3468.26 708.098 3374.4 714.257C3236.26 723.32 3021.47 681.257 3021.47 681.257L2840.29 728.757C2840.29 728.757 2502.56 775.387 2464.53 773.757C2426.5 772.126 2418 773.005 2302 722.25C2186 671.495 2022.5 629.75 2022.5 629.75C2022.5 629.75 1921 740.042 1906.1 742.917Z" fill="url(#paint6_linear_2312_264)"/>
<path d="M413.913 571.743L503.05 520.885L512.593 537.077L421.793 586.127L413.913 571.743Z" fill="url(#paint7_linear_2312_264)"/>
<rect x="520.032" y="507.032" width="26.6145" height="23.0009" transform="rotate(58.8042 520.032 507.032)" fill="url(#paint8_linear_2312_264)"/>
<rect x="415.019" y="572.516" width="14.4664" height="12.7499" transform="rotate(60.9879 415.019 572.516)" fill="url(#paint9_linear_2312_264)"/>
<rect x="406.35" y="582.804" width="7.18387" height="38.817" transform="rotate(60.9879 406.35 582.804)" fill="url(#paint10_linear_2312_264)"/>
<circle cx="455.917" cy="572.774" r="7.5" fill="#221737"/>
<circle cx="455.917" cy="572.774" r="4.5" fill="url(#paint11_linear_2312_264)"/>
<line x1="555.502" y1="754.677" x2="485.502" y2="595.677" stroke="url(#paint12_linear_2312_264)" stroke-width="2"/>
<line x1="469.419" y1="760.213" x2="479.419" y2="598.213" stroke="url(#paint13_linear_2312_264)" stroke-width="2"/>
<line x1="411.523" y1="723.827" x2="474.523" y2="597.827" stroke="url(#paint14_linear_2312_264)" stroke-width="2"/>
<rect x="464.417" y="588.274" width="27" height="10" fill="#221737"/>
<rect x="458.663" y="578.912" width="5" height="17.0002" transform="rotate(-38.5742 458.663 578.912)" fill="#221737"/>
<rect x="481.417" y="591.274" width="7" height="3" fill="#D9D9D9"/>
<path d="M432 711.5L507.5 737.982L561 753C561 753 514.566 756.957 490 766.482C470.53 774.03 443 789.732 443 789.732L324.5 779.982C324.5 779.982 352.68 753.275 373.5 739.982C394.699 726.446 432 711.5 432 711.5Z" fill="url(#paint15_linear_2312_264)"/>
<path d="M327 709L429 727C429 727 396.066 741.476 371.5 751C352.03 758.548 324.5 776.5 324.5 776.5L185 749.482C185 749.482 238.124 727.316 262 720.982C286.5 714.482 327 709 327 709Z" fill="url(#paint16_linear_2312_264)"/>
<path d="M292.098 714.796L301.456 698.98L305.274 707.792C305.274 707.792 295.96 721.542 295.084 721.569C294.208 721.595 283.818 721.91 283.224 720.68C282.63 719.45 287.684 718.673 287.684 718.673L284.853 718.135C284.853 718.135 277.028 720.867 274.775 720.935C272.522 721.004 272.507 720.38 272.507 720.38C272.507 720.38 279.691 714.548 281.928 713.856C284.166 713.165 292.098 714.796 292.098 714.796Z" fill="#FF8C8C"/>
<path d="M341.495 606.486C342.194 604.958 340.146 598.384 343.813 596.295C345.551 595.304 347.591 595.533 349.363 594.62C351.188 593.68 351.308 591.862 353.297 591.555C357.535 590.902 355.508 593.692 357.233 594.227C357.982 594.459 359.836 590.932 362.58 590.944C366.149 590.96 368.91 594.07 369.242 598.113C369.539 601.721 367.21 601.991 367.932 604.871C368.53 607.255 370.758 604.436 370.658 609.368C370.559 614.301 362.688 614.694 362.688 614.694C362.688 614.694 341.184 629.517 340.994 619.676C340.956 617.672 342.5 616.479 341.8 614.635C341.174 612.984 339.676 613.482 339.275 611.746C338.36 607.789 340.674 608.28 341.495 606.486Z" fill="#221737"/>
<path d="M347.568 605.807C347.568 605.807 354.16 599.779 357.65 599.711C361.14 599.643 368.007 609.473 366.779 617.228C365.552 624.982 357.223 624.753 357.223 624.753L355.686 631.799L361.593 637.124C361.593 637.124 357.232 640.254 352.013 640.243C345.626 640.228 341.871 633.382 341.871 633.382C341.871 633.382 346.64 630.57 347.198 622.162C347.756 613.754 347.198 615.706 347.198 615.706C347.198 615.706 344.027 616.188 344.772 609.264C344.929 607.798 347.849 608.033 347.849 608.033L347.568 605.807Z" fill="#FF8C8C"/>
<path d="M401.23 717.226L416 717.226C416 717.226 424.084 721.8 427.777 722.98C431.47 724.161 430.8 728.539 430.8 728.539L401.406 729.073L401.23 717.226Z" fill="url(#paint17_linear_2312_264)"/>
<path d="M319.847 644.343C323.933 640.141 342.222 632.772 342.222 632.772C342.222 632.772 347.624 639.199 352.151 639.416C355.99 639.601 361.305 635.42 361.305 635.42C361.305 635.42 377.805 647.949 381.896 660.596C385.987 673.244 383.445 681.878 383.445 681.878L364.138 702.935C364.138 702.935 320.182 702.187 319.111 700.479C318.039 698.771 318.754 694.224 318.754 694.224C318.754 694.224 316.188 703.485 310.934 708.888C305.68 714.291 300.072 698.482 300.072 698.482C300.072 698.482 304.435 691.238 306.639 685.264C308.842 679.291 315.76 648.545 319.847 644.343Z" fill="#2C1973"/>
<path d="M328.551 653.58C328.551 653.58 326.928 668.968 323.74 680.072C320.552 691.175 318.132 696.069 318.132 696.069" stroke="#8680E5"/>
<path d="M322.894 649.041C322.894 649.041 323.575 649.402 324.73 651.253C325.884 653.103 326.476 654.963 326.476 654.963" stroke="#8680E5"/>
<path d="M372.782 646.495C372.782 646.495 370.989 649.543 370.741 657.021C370.493 664.5 372.079 667.685 372.079 667.685" stroke="#8680E5"/>
<path d="M390.175 731.772L401.949 726.19C401.949 726.19 404.862 729.34 407.388 730.678C411.011 732.597 416.787 727.904 419.933 731.986C423.079 736.067 394.321 744.444 394.321 744.444L390.175 731.772Z" fill="url(#paint18_linear_2312_264)"/>
<path d="M324.348 701.154L337.88 701.532C337.88 701.532 368.349 666.049 375.064 662.808C381.778 659.568 382.37 661.428 384.642 662.634C386.914 663.84 390.978 671.875 390.978 671.875C390.978 671.875 411.564 653.954 415.689 653.341C419.813 652.727 422.45 652.717 426.269 657.511C430.088 662.306 416.444 716.944 416.444 716.944L407.993 717.098L410.329 722.669L387.941 733.056L381.438 712.591C381.438 712.591 364.12 722.886 351.208 726.239C338.296 729.592 329.198 724.144 326.289 717.96C323.379 711.775 324.348 701.154 324.348 701.154Z" fill="url(#paint19_linear_2312_264)"/>
<path d="M391.532 671.241L409.726 722.458" stroke="#221737"/>
<path d="M375.249 675.801C375.249 675.801 374.375 687.375 375.528 694.61C376.732 702.157 381.438 713.112 381.438 713.112" stroke="#221737"/>
<path d="M363.637 720.648C363.637 720.648 368.328 716.213 370.733 712.785C373.781 708.444 376.862 700.449 376.862 700.449" stroke="#221737"/>
<path d="M331.944 712.509L339.532 699.007" stroke="#221737"/>
<path d="M412.279 666.722C412.279 666.722 407.833 675.552 405.775 681.586C403.483 688.304 401.492 699.352 401.492 699.352" stroke="#221737"/>
<path d="M351.647 620.072C351.647 620.072 352.809 622.138 353.795 623.229C354.781 624.32 357 625.215 357 625.215" stroke="#D15B5B"/>
<path d="M362 608.614C362 608.614 362.031 609.563 362.703 610.915C363.375 612.267 365.28 613.812 365.28 613.812" stroke="#D15B5B"/>
<path d="M353.174 612.051C353.174 612.051 354.097 612.268 355.578 611.973C357.06 611.679 359.05 610.246 359.05 610.246" stroke="#D15B5B"/>
<path d="M363.576 608.387C363.576 608.387 363.44 608.592 363.078 608.801C362.717 609.009 361.999 609.098 361.999 609.098" stroke="#D15B5B"/>
<line y1="-0.5" x2="6.33732" y2="-0.5" transform="matrix(0.192411 0.980719 -0.973 0.233835 406.171 670.352)" stroke="#221737"/>
<path d="M346.947 602.167L349.788 598.735C349.788 598.735 353.793 600.167 353.473 602.472C353.234 604.201 352.168 605.488 350.633 605.904C349.488 606.213 348.648 605.995 347.843 605.179C347.038 604.363 346.947 602.167 346.947 602.167Z" fill="#221737"/>
<circle cx="1237.09" cy="399.342" r="4.39923" transform="rotate(146.718 1237.09 399.342)" fill="#CCC3E0"/>
<circle cx="1242.67" cy="73.2632" r="3.5" transform="rotate(146.718 1242.67 73.2632)" fill="#CCC3E0"/>
<circle cx="1261.67" cy="112.671" r="1.18427" transform="rotate(48.7815 1261.67 112.671)" fill="#CCC3E0"/>
<circle cx="985.671" cy="176.671" r="1.18427" transform="rotate(48.7815 985.671 176.671)" fill="#CCC3E0"/>
<circle cx="1172.67" cy="224.671" r="1.18427" transform="rotate(48.7815 1172.67 224.671)" fill="#CCC3E0"/>
<circle cx="1044.67" cy="423.671" r="1.18427" transform="rotate(48.7815 1044.67 423.671)" fill="#CCC3E0"/>
<circle cx="925.671" cy="521.671" r="1.18427" transform="rotate(48.7815 925.671 521.671)" fill="#CCC3E0"/>
<circle cx="958.671" cy="436.671" r="1.18427" transform="rotate(48.7815 958.671 436.671)" fill="#CCC3E0"/>
<circle cx="1080.5" cy="446.75" r="2.5" fill="#CCC3E0"/>
<circle cx="1017" cy="191.25" r="3" fill="#CCC3E0"/>
<circle cx="1042.5" cy="53.75" r="1.5" fill="#CCC3E0"/>
</g>
<defs>
<linearGradient id="paint0_linear_2312_264" x1="931.5" y1="536.961" x2="931.5" y2="716.25" gradientUnits="userSpaceOnUse">
<stop stop-color="#8680E5" stop-opacity="0.41"/>
<stop offset="0.789681" stop-color="#FFBAE3"/>
</linearGradient>
<linearGradient id="paint1_linear_2312_264" x1="874.204" y1="657.118" x2="884.634" y2="701.206" gradientUnits="userSpaceOnUse">
<stop stop-color="#2C1973"/>
<stop offset="0.795" stop-color="#6747B2"/>
</linearGradient>
<linearGradient id="paint2_linear_2312_264" x1="2880" y1="503.749" x2="2880" y2="1148.75" gradientUnits="userSpaceOnUse">
<stop offset="0.24" stop-color="#8680E5"/>
<stop offset="0.605" stop-color="#E3ADE4"/>
<stop offset="0.65" stop-color="#FFA87C"/>
</linearGradient>
<linearGradient id="paint3_linear_2312_264" x1="549.181" y1="713.118" x2="538.75" y2="757.206" gradientUnits="userSpaceOnUse">
<stop stop-color="#2C1973"/>
<stop offset="0.795" stop-color="#6747B2"/>
</linearGradient>
<linearGradient id="paint4_linear_2312_264" x1="747.898" y1="728.988" x2="747.898" y2="793.551" gradientUnits="userSpaceOnUse">
<stop stop-color="#2C1973"/>
<stop offset="0.795" stop-color="#6747B2"/>
</linearGradient>
<linearGradient id="paint5_linear_2312_264" x1="1177" y1="669.25" x2="1177" y2="739.25" gradientUnits="userSpaceOnUse">
<stop stop-color="#2C1973"/>
<stop offset="0.795" stop-color="#6747B2"/>
</linearGradient>
<linearGradient id="paint6_linear_2312_264" x1="3033.5" y1="500.75" x2="3038.5" y2="1320.75" gradientUnits="userSpaceOnUse">
<stop offset="0.205" stop-color="#4B3EAA"/>
<stop offset="1" stop-color="#FFA87C"/>
</linearGradient>
<linearGradient id="paint7_linear_2312_264" x1="466.567" y1="546.322" x2="472.971" y2="558.619" gradientUnits="userSpaceOnUse">
<stop stop-color="#E1E1E1"/>
<stop offset="1" stop-color="#978E9E"/>
</linearGradient>
<linearGradient id="paint8_linear_2312_264" x1="520.032" y1="518.533" x2="546.264" y2="518.579" gradientUnits="userSpaceOnUse">
<stop stop-color="#8680E5"/>
<stop offset="0.44" stop-color="#4B3EAA"/>
</linearGradient>
<linearGradient id="paint9_linear_2312_264" x1="415.019" y1="578.891" x2="429.485" y2="578.891" gradientUnits="userSpaceOnUse">
<stop stop-color="#61429D"/>
<stop offset="1" stop-color="#221737"/>
</linearGradient>
<linearGradient id="paint10_linear_2312_264" x1="406.35" y1="602.212" x2="413.533" y2="602.212" gradientUnits="userSpaceOnUse">
<stop stop-color="#61429D"/>
<stop offset="1" stop-color="#221737"/>
</linearGradient>
<linearGradient id="paint11_linear_2312_264" x1="455.917" y1="568.274" x2="458.417" y2="576.774" gradientUnits="userSpaceOnUse">
<stop stop-color="#978E9E"/>
<stop offset="1" stop-color="#E1E1E1"/>
</linearGradient>
<linearGradient id="paint12_linear_2312_264" x1="486.875" y1="595.073" x2="556.875" y2="754.073" gradientUnits="userSpaceOnUse">
<stop stop-color="#61429D"/>
<stop offset="1" stop-color="#221737"/>
</linearGradient>
<linearGradient id="paint13_linear_2312_264" x1="480.916" y1="598.305" x2="470.916" y2="760.305" gradientUnits="userSpaceOnUse">
<stop stop-color="#61429D"/>
<stop offset="1" stop-color="#221737"/>
</linearGradient>
<linearGradient id="paint14_linear_2312_264" x1="475.864" y1="598.498" x2="412.864" y2="724.498" gradientUnits="userSpaceOnUse">
<stop stop-color="#61429D"/>
<stop offset="1" stop-color="#221737"/>
</linearGradient>
<linearGradient id="paint15_linear_2312_264" x1="464.5" y1="675.982" x2="428" y2="791.982" gradientUnits="userSpaceOnUse">
<stop stop-color="#221737"/>
<stop offset="1" stop-color="#4B3EAA" stop-opacity="0"/>
</linearGradient>
<linearGradient id="paint16_linear_2312_264" x1="346" y1="660.5" x2="309.5" y2="776.5" gradientUnits="userSpaceOnUse">
<stop stop-color="#221737"/>
<stop offset="1" stop-color="#4B3EAA" stop-opacity="0"/>
</linearGradient>
<linearGradient id="paint17_linear_2312_264" x1="415.957" y1="716.958" x2="416.173" y2="728.805" gradientUnits="userSpaceOnUse">
<stop stop-color="#8680E5"/>
<stop offset="1" stop-color="#4B3EAA"/>
</linearGradient>
<linearGradient id="paint18_linear_2312_264" x1="404.686" y1="725.929" x2="406.343" y2="743.297" gradientUnits="userSpaceOnUse">
<stop stop-color="#8680E5"/>
<stop offset="1" stop-color="#4B3EAA"/>
</linearGradient>
<linearGradient id="paint19_linear_2312_264" x1="376.308" y1="539.746" x2="376.954" y2="733.265" gradientUnits="userSpaceOnUse">
<stop stop-color="#FFA87C"/>
<stop offset="0.84" stop-color="#3B2F99"/>
<stop offset="1" stop-color="#2C1973"/>
</linearGradient>
<clipPath id="clip0_2312_264">
<rect width="1280" height="801" fill="white"/>
</clipPath>
</defs>
</svg>
