<svg width="1280" height="801" viewBox="0 0 1280 801" fill="none" xmlns="http://www.w3.org/2000/svg">
<g clip-path="url(#clip0_2312_492)">
<path d="M142 691.25L214.5 665.75L280 626.25L426.5 673.25L643 711.25L573.5 750.75H191L142 691.25Z" fill="url(#paint0_linear_2312_492)"/>
<path d="M4339 -327.501C2563.49 -327.989 -124.5 -389.501 -194.001 -279C-194.001 -279 -231.5 -240.75 -237.5 -201.25C-243.5 -161.75 -218.53 -113.75 -216.546 -84.2499C-214.563 -54.7499 -238.858 -21.2502 -294.884 25.7498C-350.91 72.7498 -401.482 62.7497 -440.65 145.25C-479.819 227.75 -436.188 275.25 -401.481 307.75C-366.775 340.25 -372.229 396.75 -401.481 427.25C-430.734 457.75 -476.348 434.49 -565.098 446.75C-653.847 459.01 -693.083 482.5 -703 487C-712.916 491.5 -742.5 513.5 -742.5 513.5C-742.5 513.5 -722.5 506.5 -709 503.5C-695.5 500.5 -657.318 497.75 -626.578 497.75C-595.838 497.75 -517.501 516.25 -476.349 546.75C-435.197 577.25 -392.062 573.25 -333.557 557.75C-275.052 542.25 -188.781 491.75 -145.15 485.75C-101.519 479.75 -64.3335 480.98 34.8276 476.25C133.989 471.52 333.298 311.25 368.5 293.25C403.702 275.25 445.347 264.25 486.003 265.25C526.659 266.25 743.822 344.75 814.722 353.25C885.622 361.75 945.615 338.75 1037.34 358.25C1129.06 377.75 1370.52 566.75 1523.23 585.75C1675.94 604.75 2002.67 531.334 2108.28 569.25C2213.89 607.166 2198.52 665.25 2268.92 693.25C2339.32 721.25 2553.5 796 2553.5 796L3527.5 794C3527.5 794 3610.41 772.965 3665.99 744.751C3782.48 685.62 3886.61 747.759 3964.99 643.25C4020.49 569.25 4050.99 413.75 4104.49 360.25C4143.5 321.242 4220.98 255.262 4352.49 163.25C4484 71.2383 4480.5 -228 4472.5 -277.75C4464.5 -327.501 4417.5 -327.501 4339 -327.501Z" fill="#221737"/>
<path d="M383.5 724.249L370.5 672.249L364.5 701.249L362 685.249L361 698.749L359 680.249L354 724.249L348.5 673.749L344 727.249L334 724.249L331 672.249L327 708.249L322 660.249L315.5 704.749L314.5 691.249L311.5 725.749L307 680.249L301 725.749H292.5L288.5 678.749L285 697.749L283 685.249L278 724.249L273.5 670.249L264.5 731.749H394.5L388 680.249L383.5 724.249Z" fill="url(#paint1_linear_2312_492)" fill-opacity="0.5"/>
<path d="M-1283 617.249C-1283 617.249 -1210.05 644.249 -1123.02 644.249C-1036 644.249 -954.646 617.249 -946.073 617.249C-937.5 617.249 -650.49 686.249 -639.495 687.249C-628.5 688.249 -580 662.749 -577 665.249C-574 667.749 -470 697.249 -424.5 692.249C-379 687.249 -283.5 623.249 -283.5 623.249C-283.5 623.249 -150 651.749 -123 653.249C-96 654.749 19 625.749 45.5 627.749C72 629.749 269.5 684.749 332.5 696.249C395.5 707.749 582.5 710.249 618.5 707.749C654.5 705.249 934.5 622.249 964.5 622.749C994.5 623.249 1197.5 709.749 1260.5 718.749C1323.5 727.749 1847 747.749 1847 747.749L2541.5 729.749C2541.5 729.749 2664 711.75 2748 690.249C2832 668.749 2952 607.25 3013 607.249C3074 607.249 3467.5 727.75 3487.5 727.749C3507.5 727.749 3547 703.249 3566 704.749C3585 706.25 3613.5 739.749 3636.5 739.749C3659.5 739.749 3892.5 633.249 3892.5 633.249C3892.5 633.249 3970 695.249 4075 679.749C4180 664.249 4278 580.749 4314 584.249C4350 587.749 4477 617.249 4477 617.249V792.249H-1283V617.249Z" fill="url(#paint2_linear_2312_492)"/>
<path d="M470.76 718.228L480.001 653.75L492.653 713.542L496.001 678.75L499.656 724.17L503.501 675.75L508.846 729.122L519.246 728.198L522.001 692.25L525.425 727.937L529.501 667.75L537.064 733.393L539.001 699.25L540.983 734.199L545.501 689.75L551.267 736.313L559.593 738.025L562.001 701.25L565.658 740.804L569.501 699.25L574.098 739.476L578.001 686.75L585.001 745.75L601.001 747.75L603.001 729.75L606.001 747.75L608.501 737.75L611.001 747.25L612.001 751.75L585.811 749.542L458.475 723.359L464.498 670.75L470.76 718.228Z" fill="url(#paint3_linear_2312_492)"/>
<path d="M623.101 742.917C555.519 755.958 406.5 681.25 406.5 681.25C406.5 681.25 354.401 713.488 329 714.75C303.599 716.012 88.5 691.257 -9.2876 693.58C-107.075 695.904 -422.5 791.257 -560.767 778.798C-699.033 766.339 -760 743.757 -849.66 712.019C-939.32 680.282 -998.5 647.732 -1038.78 640.257C-1079.06 632.782 -1283 647.732 -1283 647.732V802L4477 801V647.25C4477 647.25 4388.5 643.53 4332 647.25C4198.8 656.019 3998.5 722.25 3998.5 722.25C3998.5 722.25 3751.91 806.93 3602 764.75C3493.78 734.301 3392 620.25 3356 615.25C3320 610.25 3283.23 641.8 3239.5 628.25C3204.51 617.406 3163.5 573.25 3163.5 573.25C3163.5 573.25 3022 731.75 3006.5 730.25C2991 728.75 2954 713.25 2934.5 713.25C2915 713.25 2781 757.75 2731 753.75C2681 749.75 2557 643.757 2557 643.757C2557 643.757 2429 685.754 2399.15 687.257C2369.3 688.76 2328.67 672.757 2328.67 672.757C2328.67 672.757 2185.26 708.098 2091.4 714.257C1953.26 723.32 1738.47 681.257 1738.47 681.257L1557.29 728.757C1557.29 728.757 1219.56 775.387 1181.53 773.757C1143.5 772.126 1135 773.005 1019 722.25C903 671.495 739.5 629.75 739.5 629.75C739.5 629.75 638 740.042 623.101 742.917Z" fill="url(#paint4_linear_2312_492)"/>
<circle cx="533.5" cy="73.75" r="3.5" fill="#CCC3E0"/>
<circle cx="253.092" cy="203.342" r="4.39923" transform="rotate(146.718 253.092 203.342)" fill="#CCC3E0"/>
<circle cx="446.5" cy="54.75" r="7.5" fill="#CCC3E0"/>
<circle cx="887.571" cy="253.821" r="7.5" transform="rotate(49.6916 887.571 253.821)" fill="#CCC3E0"/>
<circle cx="646.5" cy="207.5" r="3.5" fill="#CCC3E0"/>
<circle cx="834.415" cy="155.415" r="4.39923" transform="rotate(-164.5 834.415 155.415)" fill="#CCC3E0"/>
<circle cx="235.5" cy="330.75" r="3.5" fill="#CCC3E0"/>
<circle cx="795.933" cy="107.183" r="3.5" transform="rotate(49.6916 795.933 107.183)" fill="#CCC3E0"/>
<circle cx="770.243" cy="0.24268" r="2.29792" transform="rotate(48.7815 770.243 0.24268)" fill="#CCC3E0"/>
<circle cx="710.139" cy="36.8137" r="1.18427" transform="rotate(48.7815 710.139 36.8137)" fill="#CCC3E0"/>
<circle cx="681.671" cy="119.671" r="1.18427" transform="rotate(48.7815 681.671 119.671)" fill="#CCC3E0"/>
<circle cx="928.671" cy="147.671" r="1.18427" transform="rotate(48.7815 928.671 147.671)" fill="#CCC3E0"/>
<circle cx="1094.67" cy="226.671" r="1.18427" transform="rotate(48.7815 1094.67 226.671)" fill="#CCC3E0"/>
<circle cx="1239.67" cy="357.671" r="1.18427" transform="rotate(48.7815 1239.67 357.671)" fill="#CCC3E0"/>
<circle cx="1026.67" cy="131.671" r="1.18427" transform="rotate(48.7815 1026.67 131.671)" fill="#CCC3E0"/>
<circle cx="998.671" cy="310.671" r="1.18427" transform="rotate(48.7815 998.671 310.671)" fill="#CCC3E0"/>
<circle cx="700.671" cy="265.671" r="1.18427" transform="rotate(48.7815 700.671 265.671)" fill="#CCC3E0"/>
<circle cx="691.03" cy="253.358" r="1.66096" transform="rotate(48.7815 691.03 253.358)" fill="#CCC3E0"/>
<circle cx="331.671" cy="29.6712" r="1.18427" transform="rotate(48.7815 331.671 29.6712)" fill="#CCC3E0"/>
<circle cx="158.671" cy="282.671" r="1.18427" transform="rotate(48.7815 158.671 282.671)" fill="#CCC3E0"/>
<circle cx="340.431" cy="89.4769" r="3.14779" transform="rotate(-83.6442 340.431 89.4769)" fill="#CCC3E0"/>
<circle cx="396.236" cy="250.031" r="3.14779" transform="rotate(-83.6442 396.236 250.031)" fill="#CCC3E0"/>
<circle cx="432.954" cy="116.454" r="1.62226" transform="rotate(-83.6442 432.954 116.454)" fill="#CCC3E0"/>
<circle cx="291.792" cy="114.579" r="1.62226" transform="rotate(-83.6442 291.792 114.579)" fill="#CCC3E0"/>
<circle cx="330.932" cy="106.642" r="1.62226" transform="rotate(-83.6442 330.932 106.642)" fill="#CCC3E0"/>
<circle cx="415.051" cy="241.32" r="1.62226" transform="rotate(-83.6442 415.051 241.32)" fill="#CCC3E0"/>
<circle cx="541.671" cy="-1.32884" r="1.18427" transform="rotate(48.7815 541.671 -1.32884)" fill="#CCC3E0"/>
<circle cx="1239.67" cy="357.671" r="1.18427" transform="rotate(48.7815 1239.67 357.671)" fill="#CCC3E0"/>
<circle cx="402" cy="126.25" r="3" fill="#CCC3E0"/>
<circle cx="919.269" cy="203.73" r="2.29792" transform="rotate(48.7815 919.269 203.73)" fill="#CCC3E0"/>
<circle cx="1067.76" cy="111.186" r="2.29792" transform="rotate(48.7815 1067.76 111.186)" fill="#CCC3E0"/>
<circle cx="1186.24" cy="65.2427" r="2.29792" transform="rotate(48.7815 1186.24 65.2427)" fill="#CCC3E0"/>
<circle cx="1030.69" cy="110.829" r="2.5" transform="rotate(48.7815 1030.69 110.829)" fill="#CCC3E0"/>
</g>
<defs>
<linearGradient id="paint0_linear_2312_492" x1="392.5" y1="626.25" x2="392.5" y2="750.75" gradientUnits="userSpaceOnUse">
<stop stop-color="#8680E5" stop-opacity="0.41"/>
<stop offset="0.575" stop-color="#FFBAE3"/>
</linearGradient>
<linearGradient id="paint1_linear_2312_492" x1="327" y1="669.749" x2="327" y2="739.749" gradientUnits="userSpaceOnUse">
<stop stop-color="#2C1973"/>
<stop offset="0.795" stop-color="#6747B2"/>
</linearGradient>
<linearGradient id="paint2_linear_2312_492" x1="1597" y1="503.749" x2="1597" y2="1148.75" gradientUnits="userSpaceOnUse">
<stop offset="0.24" stop-color="#8680E5"/>
<stop offset="0.605" stop-color="#E3ADE4"/>
<stop offset="0.65" stop-color="#FFA87C"/>
</linearGradient>
<linearGradient id="paint3_linear_2312_492" x1="537.37" y1="677.305" x2="523.272" y2="745.87" gradientUnits="userSpaceOnUse">
<stop stop-color="#2C1973"/>
<stop offset="0.795" stop-color="#6747B2"/>
</linearGradient>
<linearGradient id="paint4_linear_2312_492" x1="1750.5" y1="500.75" x2="1755.5" y2="1320.75" gradientUnits="userSpaceOnUse">
<stop offset="0.205" stop-color="#4B3EAA"/>
<stop offset="1" stop-color="#FFA87C"/>
</linearGradient>
<clipPath id="clip0_2312_492">
<rect width="1280" height="801" fill="white"/>
</clipPath>
</defs>
</svg>
