<svg width="1280" height="801" viewBox="0 0 1280 801" fill="none" xmlns="http://www.w3.org/2000/svg">
<g clip-path="url(#clip0_2312_720)">
<path d="M12 738.302C12 738.302 57.3542 729.774 84.5 721.177C111.517 712.62 122.881 703.059 150 694.65C281.581 653.849 518 726.885 518 726.885L513 751.733L443.5 778.26H61L12 738.302Z" fill="url(#paint0_linear_2312_720)"/>
<path d="M-1474 -278.992C-1404.5 -389.492 -646.514 -339.989 1129 -339.501C1312 -133 1238.13 511.02 828.28 569.259C418.428 627.499 395.939 604.759 243.231 585.759C90.5229 566.759 -150.938 377.759 -242.661 358.259C-334.386 338.759 -394.379 361.759 -465.279 353.259C-536.179 344.759 -753.341 266.259 -793.997 265.259C-834.653 264.259 -876.298 275.259 -911.5 293.259C-946.702 311.259 -1146.01 471.53 -1245.17 476.259C-1344.33 480.989 -1381.52 479.759 -1425.15 485.759C-1468.78 491.759 -1555.05 542.259 -1613.56 557.759C-1672.06 573.259 -1715.2 577.259 -1756.35 546.759C-1797.5 516.259 -1875.84 497.759 -1906.58 497.759C-1937.32 497.759 -1975.5 500.509 -1989 503.509C-2002.5 506.509 -2022.5 513.509 -2022.5 513.509C-2022.5 513.509 -1992.92 491.509 -1983 487.009C-1973.08 482.509 -1933.85 459.02 -1845.1 446.759C-1756.35 434.499 -1710.73 457.759 -1681.48 427.259C-1652.23 396.759 -1646.78 340.259 -1681.48 307.759C-1716.19 275.259 -1759.82 227.759 -1720.65 145.259C-1681.48 62.7586 -1630.91 72.7585 -1574.88 25.7585C-1518.86 -21.2415 -1494.56 -54.7415 -1496.55 -84.2415C-1498.53 -113.741 -1523.5 -161.742 -1517.5 -201.242C-1511.5 -240.742 -1474 -278.992 -1474 -278.992Z" fill="#221737"/>
<path d="M94.3846 745.759L83.6538 675.259L80.1923 736.759L77.4231 701.759L73.9615 745.759L69.1154 695.259L67.0385 748.759L60.1154 745.759L56.6538 708.759L55.9615 744.259L51.8077 681.759L47.3077 747.259L45.5769 713.259L44.5385 747.259L41.4231 701.759L37.2692 747.259H31.3846L28.6154 710.759L26.8846 748.759L24.8077 706.759L21.3462 745.759L18.2308 691.759L12 753.259H102L99.5769 696.759L94.3846 745.759Z" fill="url(#paint1_linear_2312_720)" fill-opacity="0.5"/>
<path d="M-2564.5 616C-2564.5 616 -2491.55 643 -2404.52 643C-2317.5 643 -2236.15 616 -2227.57 616C-2219 616 -1931.99 685 -1921 686C-1910 687 -1861.5 661.5 -1858.5 664C-1855.5 666.5 -1751.5 696 -1706 691C-1660.5 686 -1565 622 -1565 622C-1565 622 -1431.5 650.5 -1404.5 652C-1377.5 653.5 -1262.5 624.5 -1236 626.5C-1209.5 628.5 -1012 683.5 -949 695C-886 706.5 -699 709 -663 706.5C-627 704 -347 621 -317 621.5C-287 622 -84 708.5 -21 717.5C42 726.5 565.5 746.5 565.5 746.5L1050 729.501C1050 729.501 1169.5 672.001 1279.5 617.501C1389.5 563.001 1670.5 606.001 1731.5 606C1792.5 606 2186 726.501 2206 726.5C2226 726.5 2265.5 702 2284.5 703.5C2303.5 705.001 2332 738.5 2355 738.5C2378 738.5 2611 632 2611 632C2611 632 2688.5 694 2793.5 678.5C2898.5 663 2996.5 579.5 3032.5 583C3068.5 586.5 3195.5 616 3195.5 616V791H-2564.5V616Z" fill="url(#paint2_linear_2312_720)"/>
<path d="M881.7 713.76L870.277 643.26L866.592 704.76L863.644 669.76L859.959 713.76L854.8 663.26L852.589 716.76L845.22 713.76L841.535 676.76L840.798 712.26L836.376 649.76L831.586 715.26L828.638 686.76L828.638 715.26L825 674.76L820.9 715.26H814.635L811.5 684.26L809.845 716.76L807.5 676.76L803.949 713.76L799 666.26L793.5 720.76H775L773 701.26L771 720.76L769 709.26L768 721.26H760.5L758.5 706.26L757 722.26L893 721.26L887.227 664.76L881.7 713.76Z" fill="url(#paint3_linear_2312_720)"/>
<path d="M1231.7 666.76L1220.28 596.26L1216.59 657.76L1213.64 622.76L1209.96 666.76L1204.8 616.26L1202.59 669.76L1198 675.76L1195.5 673.26L1192 638.26L1190.5 667.76L1186.5 622.76L1182 677.76L1178.64 639.76L1178 679.76L1173 652.76L1167.5 682.26L1164.5 681.26L1161 660.26L1159.5 677.76L1156.5 646.26L1152.5 686.76L1148 650.26L1142.5 686.76L1130 693.76L1127.5 666.26L1126 691.26L1124.5 692.76L1123 675.76L1121 695.26L1123 692.76L1125 696.76L1132 695.26L1243 674.26L1237.23 617.76L1231.7 666.76Z" fill="url(#paint4_linear_2312_720)"/>
<path d="M-656.899 742.927C-724.481 755.968 -873.5 681.26 -873.5 681.26C-873.5 681.26 -925.599 713.497 -951 714.76C-976.401 716.022 -1191.5 691.267 -1289.29 693.59C-1387.08 695.914 -1702.5 791.267 -1840.77 778.808C-1979.03 766.349 -2040 743.767 -2129.66 712.029C-2219.32 680.292 -2278.5 647.742 -2318.78 640.267C-2359.06 632.791 -2563 647.742 -2563 647.742V802.01L3197 801.01V647.26C3197 647.26 3108.5 643.54 3052 647.26C2918.8 656.028 2718.5 722.26 2718.5 722.26C2718.5 722.26 2471.91 806.939 2322 764.76C2213.78 734.311 2112 620.26 2076 615.26C2040 610.26 2003.23 641.81 1959.5 628.26C1924.51 617.415 1883.5 573.26 1883.5 573.26C1883.5 573.26 1742 731.76 1726.5 730.26C1711 728.76 1674 713.26 1654.5 713.26C1635 713.26 1330 652 1280 648C1230 644 1218.5 650 1218.5 650C1218.5 650 1149 685.764 1119.15 687.267C1089.3 688.77 1048.67 672.767 1048.67 672.767C1048.67 672.767 905.259 708.108 811.395 714.267C673.264 723.33 458.469 681.267 458.469 681.267L277.29 728.767C277.29 728.767 -60.4413 775.397 -98.4707 773.767C-136.5 772.136 -145 773.015 -261 722.26C-377 671.505 -540.5 629.76 -540.5 629.76C-540.5 629.76 -642 740.052 -656.899 742.927Z" fill="url(#paint5_linear_2312_720)"/>
<circle cx="991.584" cy="327.842" r="7.5" transform="rotate(48.7815 991.584 327.842)" fill="#CCC3E0"/>
<circle cx="155.671" cy="374.68" r="1.18427" transform="rotate(48.7815 155.671 374.68)" fill="#CCC3E0"/>
<circle cx="846.671" cy="60.68" r="1.18427" transform="rotate(48.7815 846.671 60.68)" fill="#CCC3E0"/>
<circle cx="548.064" cy="77.5273" r="1.37504" transform="rotate(48.7815 548.064 77.5273)" fill="#CCC3E0"/>
<circle cx="217.671" cy="207.68" r="1.18427" transform="rotate(48.7815 217.671 207.68)" fill="#CCC3E0"/>
<circle cx="404.671" cy="255.68" r="1.18427" transform="rotate(48.7815 404.671 255.68)" fill="#CCC3E0"/>
<circle cx="757.059" cy="274.912" r="1.37504" transform="rotate(48.7815 757.059 274.912)" fill="#CCC3E0"/>
<circle cx="296.109" cy="438.625" r="1.37504" transform="rotate(48.7815 296.109 438.625)" fill="#CCC3E0"/>
<circle cx="681.481" cy="380.242" r="3" transform="rotate(48.7815 681.481 380.242)" fill="#CCC3E0"/>
<circle cx="190.671" cy="467.68" r="1.18427" transform="rotate(48.7815 190.671 467.68)" fill="#CCC3E0"/>
<circle cx="122.205" cy="311.846" r="3.5" transform="rotate(48.7815 122.205 311.846)" fill="#CCC3E0"/>
<circle cx="348.369" cy="170.891" r="3.5" transform="rotate(48.7815 348.369 170.891)" fill="#CCC3E0"/>
<circle cx="1213.08" cy="328.387" r="3.5" transform="rotate(7.35263 1213.08 328.387)" fill="#CCC3E0"/>
<circle cx="798.106" cy="404.419" r="3.5" transform="rotate(154.071 798.106 404.419)" fill="#CCC3E0"/>
<circle cx="1022.36" cy="341.618" r="3" transform="rotate(7.35263 1022.36 341.618)" fill="#CCC3E0"/>
<circle cx="1126.4" cy="124.836" r="2.22845" transform="rotate(7.35263 1126.4 124.836)" fill="#CCC3E0"/>
<circle cx="1258.73" cy="336.566" r="2.22845" transform="rotate(7.35263 1258.73 336.566)" fill="#CCC3E0"/>
<circle cx="862.184" cy="173.247" r="2.22845" transform="rotate(154.071 862.184 173.247)" fill="#CCC3E0"/>
<circle cx="1004.96" cy="133.261" r="1.9101" transform="rotate(7.35263 1004.96 133.261)" fill="#CCC3E0"/>
<circle cx="925.427" cy="276.357" r="3" transform="rotate(154.071 925.427 276.357)" fill="#CCC3E0"/>
<circle cx="1006.24" cy="478.251" r="2.29792" transform="rotate(48.7815 1006.24 478.251)" fill="#CCC3E0"/>
</g>
<defs>
<linearGradient id="paint0_linear_2312_720" x1="265" y1="682.26" x2="265" y2="778.26" gradientUnits="userSpaceOnUse">
<stop stop-color="#8680E5" stop-opacity="0.41"/>
<stop offset="0.575" stop-color="#FFBAE3"/>
</linearGradient>
<linearGradient id="paint1_linear_2312_720" x1="54.9231" y1="692.259" x2="54.9231" y2="762.259" gradientUnits="userSpaceOnUse">
<stop stop-color="#2C1973"/>
<stop offset="0.795" stop-color="#6747B2"/>
</linearGradient>
<linearGradient id="paint2_linear_2312_720" x1="317" y1="503.767" x2="317" y2="1148.77" gradientUnits="userSpaceOnUse">
<stop offset="0.24" stop-color="#8680E5"/>
<stop offset="0.605" stop-color="#E3ADE4"/>
<stop offset="0.65" stop-color="#FFA87C"/>
</linearGradient>
<linearGradient id="paint3_linear_2312_720" x1="839.692" y1="660.26" x2="839.692" y2="730.26" gradientUnits="userSpaceOnUse">
<stop stop-color="#2C1973"/>
<stop offset="0.795" stop-color="#6747B2"/>
</linearGradient>
<linearGradient id="paint4_linear_2312_720" x1="1189.69" y1="613.26" x2="1189.69" y2="683.26" gradientUnits="userSpaceOnUse">
<stop stop-color="#2C1973"/>
<stop offset="0.795" stop-color="#6747B2"/>
</linearGradient>
<linearGradient id="paint5_linear_2312_720" x1="470.5" y1="500.76" x2="475.5" y2="1320.76" gradientUnits="userSpaceOnUse">
<stop offset="0.205" stop-color="#4B3EAA"/>
<stop offset="1" stop-color="#FFA87C"/>
</linearGradient>
<clipPath id="clip0_2312_720">
<rect width="1280" height="801" fill="white"/>
</clipPath>
</defs>
</svg>
