<svg width="730" height="4077" viewBox="0 0 730 4077" fill="none" xmlns="http://www.w3.org/2000/svg">
<g clip-path="url(#clip0_114_33)">
<rect width="730" height="4077" fill="white"/>
<path d="M0 3440.56C0 3440.56 49.5 3360.56 129 3363.06C208.5 3365.56 231 3420.06 330 3412.06C429 3404.06 512.961 3532.8 569.145 3635.06C597.744 3687.11 587.628 3727.74 569.145 3783.25C506.368 3971.81 0 3783.25 0 3783.25V3440.56Z" fill="#221737"/>
<path d="M84.4445 4004.95C65.2763 4003.45 41.1866 4000.7 31.0278 3971.19C17.4239 3931.67 44.2235 3892.91 85.6788 3887.61C160.015 3878.11 133.274 3929.83 162.843 3942.13C216.572 3964.47 193.917 4065.96 166.837 4068.35C134.938 4071.17 116.37 4007.44 84.4445 4004.95Z" fill="#221737"/>
<circle cx="269.5" cy="3877.5" r="157.5" fill="url(#paint0_linear_114_33)"/>
<circle cx="269.928" cy="3876.93" r="157.5" transform="rotate(161.156 269.928 3876.93)" fill="url(#paint1_linear_114_33)"/>
<path d="M125.5 3885.96C134.001 3864.5 221.501 3875.5 268.501 3858C338.446 3831.96 363.501 3751.46 363.501 3751.46C389.001 3766.96 402.001 3791.54 409.001 3805C416.001 3818.46 375.501 3885.96 352.501 3890C347.266 3890.92 372.001 3843.5 359.501 3831.96C346.822 3820.26 329.31 3882 298.001 3898.46C249.501 3923.96 239.2 3913.97 197.001 3898.46C163 3885.96 116.716 3908.14 125.5 3885.96Z" fill="url(#paint2_linear_114_33)"/>
<path d="M263.678 3971.66C247.345 3966.74 234.047 3960.86 202.341 3980.05C185.344 3990.34 149.503 3978.31 149.503 3978.31C165.022 4003.07 189.627 3992.84 194.212 4003.07C198.797 4013.3 256.14 4024.92 254.568 4007.73C253.702 3998.27 247.628 4006.37 246.681 3993.83C245.721 3981.12 260.576 3990.63 284.48 3980.05C321.509 3963.66 320.451 3953.11 330.831 3921.55C339.195 3896.12 280.555 3976.75 263.678 3971.66Z" fill="url(#paint3_linear_114_33)"/>
<ellipse cx="7.00473" cy="6.99461" rx="7.00473" ry="6.99461" transform="matrix(0.222272 -0.974292 0.967593 0.25555 214.749 3612.18)" fill="#CCC3E0"/>
<ellipse cx="3.48878" cy="3.26496" rx="3.48878" ry="3.26496" transform="matrix(0.222272 -0.974292 0.967593 0.25555 163.597 3477.37)" fill="#CCC3E0"/>
<ellipse cx="3.00203" cy="2.99769" rx="3.00203" ry="2.99769" transform="matrix(0.222272 -0.974292 0.967593 0.25555 53.5615 3653.33)" fill="#CCC3E0"/>
<ellipse cx="3.48878" cy="3.26496" rx="3.48878" ry="3.26496" transform="matrix(0.222272 -0.974292 0.967593 0.25555 70.001 3926.89)" fill="#CCC3E0"/>
<ellipse cx="0.996795" cy="0.932844" rx="0.996795" ry="0.932844" transform="matrix(0.222272 -0.974292 0.967593 0.25555 76.1426 3901.94)" fill="#CCC3E0"/>
<ellipse cx="3.48878" cy="3.26496" rx="3.48878" ry="3.26496" transform="matrix(0.222272 -0.974292 0.967593 0.25555 480.24 3832.75)" fill="#CCC3E0"/>
<ellipse cx="2.49199" cy="2.33211" rx="2.49199" ry="2.33211" transform="matrix(0.222272 -0.974292 0.967593 0.25555 137.981 3681.81)" fill="#CCC3E0"/>
<ellipse cx="1.26932" cy="1.18788" rx="1.26932" ry="1.18788" transform="matrix(0.222272 -0.974292 0.967593 0.25555 261.345 3497.22)" fill="#CCC3E0"/>
<ellipse cx="1.26932" cy="1.18788" rx="1.26932" ry="1.18788" transform="matrix(0.222272 -0.974292 0.967593 0.25555 492.367 3772.23)" fill="#CCC3E0"/>
<ellipse cx="1.87062" cy="1.81681" rx="1.87062" ry="1.81681" transform="matrix(0.316635 0.962594 -0.92114 0.350775 221.375 3631.07)" fill="#CCC3E0"/>
<ellipse cx="1.87062" cy="1.81681" rx="1.87062" ry="1.81681" transform="matrix(0.316635 0.962594 -0.92114 0.350775 270.132 3505.63)" fill="#CCC3E0"/>
<ellipse cx="1.87062" cy="1.81681" rx="1.87062" ry="1.81681" transform="matrix(0.316635 0.962594 -0.92114 0.350775 478.121 3839.02)" fill="#CCC3E0"/>
<ellipse cx="3.36111" cy="3.39624" rx="3.36111" ry="3.39624" transform="matrix(-0.583274 -0.830963 0.764315 -0.621084 480.609 3660.57)" fill="#CCC3E0"/>
<ellipse cx="2.4008" cy="2.42589" rx="2.4008" ry="2.42589" transform="matrix(-0.583274 -0.830963 0.764315 -0.621084 423.238 3621.97)" fill="#CCC3E0"/>
<ellipse cx="0.960318" cy="0.970355" rx="0.960318" ry="0.970355" transform="matrix(-0.583274 -0.830963 0.764315 -0.621084 416.498 3482)" fill="#CCC3E0"/>
<ellipse cx="1.87062" cy="1.81681" rx="1.87062" ry="1.81681" transform="matrix(0.316635 0.962594 -0.92114 0.350775 41.3467 3425)" fill="#CCC3E0"/>
<path d="M130.442 3521.02C130.442 3521.02 164.066 3518.73 184.182 3521.02C240.215 3527.39 310 3550.31 310 3550.31C310 3550.31 235.121 3532.73 199.973 3530.44C170.5 3528.52 132.225 3533.75 132.225 3533.75L130.442 3521.02Z" fill="url(#paint4_linear_114_33)" fill-opacity="0.21"/>
<path d="M133.017 3523.42C133.017 3523.42 155.337 3522.02 175.5 3523.42C231.663 3527.32 272.5 3540.5 272.5 3540.5C272.5 3540.5 227.231 3529.93 192 3528.5C162.456 3527.3 134.789 3530.99 134.789 3530.99L133.017 3523.42Z" fill="url(#paint5_linear_114_33)" fill-opacity="0.21"/>
<path d="M130.026 3524.51C130.026 3524.51 140.377 3524.49 149.84 3524.49C171 3524.49 188 3527 188 3527C188 3527 170 3526 155 3527C141.223 3527.92 130.848 3530.33 130.848 3530.33L130.026 3524.51Z" fill="url(#paint6_linear_114_33)" fill-opacity="0.21"/>
<circle cx="130" cy="3528" r="7" fill="url(#paint7_radial_114_33)" fill-opacity="0.7"/>
<circle cx="130" cy="3528" r="6" fill="url(#paint8_radial_114_33)" fill-opacity="0.7"/>
<path d="M0 0C0 0 29.5 47.5 71 57C112.5 66.5 153 99.3437 197.5 135.5C242 171.656 298 140 349.5 176.5C401 213 406 290.5 400 323.5C394 356.5 329.5 349.5 337 416C344.5 482.5 410 521.5 400 573.5C390 625.5 213.5 655.5 154.5 546.5C95.5 437.5 0 492 0 492V0Z" fill="#221737"/>
<circle cx="160.941" cy="324.36" r="7.5" transform="rotate(-162.422 160.941 324.36)" fill="#CCC3E0"/>
<path d="M0.346927 124.603C0.346927 120.461 0.240233 117.047 0.240233 117.047C4.38237 117.047 7.74023 120.405 7.74023 124.547C7.74023 128.689 4.38237 132.047 0.240234 132.047C0.240234 132.047 0.346927 128.745 0.346927 124.603Z" fill="#CCC3E0"/>
<circle cx="193.152" cy="505.149" r="3.5" transform="rotate(-162.422 193.152 505.149)" fill="#CCC3E0"/>
<circle cx="300.242" cy="412.148" r="3.5" transform="rotate(-162.422 300.242 412.148)" fill="#CCC3E0"/>
<circle cx="228.216" cy="417.653" r="2.5" transform="rotate(-162.422 228.216 417.653)" fill="#CCC3E0"/>
<circle cx="340.138" cy="593.138" r="2.5" transform="rotate(-162.422 340.138 593.138)" fill="#CCC3E0"/>
<circle cx="160.053" cy="202.748" r="2.22845" transform="rotate(-15.7031 160.053 202.748)" fill="#CCC3E0"/>
<circle cx="53.5984" cy="274.558" r="1.2734" transform="rotate(-162.422 53.5984 274.558)" fill="#CCC3E0"/>
<circle cx="187.498" cy="329.23" r="1.9101" transform="rotate(-15.7031 187.498 329.23)" fill="#CCC3E0"/>
<circle cx="65.8011" cy="268.599" r="1.9101" transform="rotate(-15.7031 65.8011 268.599)" fill="#CCC3E0"/>
<circle cx="254.665" cy="299.665" r="41.665" fill="#CAC2DE"/>
<path d="M238.847 299.095C237.402 291.59 253.802 293.459 253.24 285.838C252.888 281.051 243.292 279.249 246.422 275.611C249.664 271.843 252.552 280.372 256.649 283.186C259.558 285.184 262.591 284.983 264.225 288.11C266.718 292.883 258.708 295.637 259.301 300.988C260.095 308.162 277.454 309.318 272.179 314.246C268.021 318.13 263.366 310.856 257.786 311.973C254.472 312.636 252.955 316.672 249.831 315.382C246.833 314.144 248.105 310.58 246.422 307.806C244.084 303.952 239.699 303.522 238.847 299.095Z" fill="#A98BC1"/>
<path d="M252.539 326.45C256.319 325.761 254.737 319.656 257.441 319.744C259.933 319.825 259.85 324.646 266.859 322.816C277.171 320.123 273.458 310.239 281.866 314.364C284.007 315.414 283.807 321.23 281.7 322.11C274.991 324.912 268.435 334.521 258.485 333.372C255.009 332.97 253.733 331.276 250.306 330.726C245.184 329.904 241.202 333.364 236.633 331.511C233.215 330.126 231.829 323.406 234.642 320.962C237.281 318.669 248.326 327.218 252.539 326.45Z" fill="#A98BC1"/>
<path d="M281.557 286.408C284.477 284.77 285.162 290.194 287.618 292.468C288.925 293.678 290.446 293.814 291.027 295.498C292.178 298.834 286.779 301.595 283.451 300.422C281.163 299.616 281.384 297.209 279.664 295.498C277.481 293.327 271.585 293.558 273.224 290.953C274.495 288.934 277.394 291.649 279.285 290.195C280.652 289.144 280.053 287.252 281.557 286.408Z" fill="#A98BC1"/>
<path d="M255.529 262.709C254.927 261.935 261.594 261.01 265.337 262.179C268.509 263.17 273.725 267.751 270.801 266.913C269.844 266.638 266.24 264.363 263.011 263.593C259.665 262.796 256.336 263.748 255.529 262.709Z" fill="#A98BC1"/>
<path d="M135.155 229.165C135.155 229.165 118.551 213.809 107.078 206.53C75.1211 186.256 29.0058 168.838 29.0058 168.838C29.0058 168.838 75.5297 191.196 94.8584 204.802C111.067 216.212 128.86 235.068 128.86 235.068L135.155 229.165Z" fill="url(#paint9_linear_114_33)" fill-opacity="0.21"/>
<path d="M132.798 229.337C132.798 229.337 121.726 219.205 110.602 211.443C79.6186 189.822 52.73 179.509 52.73 179.509C52.73 179.509 80.8326 193.055 99.8429 207.146C115.784 218.962 128.685 232.544 128.685 232.544L132.798 229.337Z" fill="url(#paint10_linear_114_33)" fill-opacity="0.21"/>
<path d="M133.901 231.165C133.901 231.165 128.504 226.792 123.56 222.807C112.505 213.894 102.564 208.046 102.564 208.046C102.564 208.046 112.39 215.105 119.805 221.946C126.617 228.229 131.023 233.856 131.023 233.856L133.901 231.165Z" fill="url(#paint11_linear_114_33)" fill-opacity="0.21"/>
<circle cx="4.69772" cy="4.69772" r="4.69772" transform="matrix(-0.778517 -0.627623 -0.627623 0.778517 139.023 232.267)" fill="url(#paint12_radial_114_33)" fill-opacity="0.7"/>
<circle cx="4.02661" cy="4.02661" r="4.02661" transform="matrix(-0.778517 -0.627623 -0.627623 0.778517 138.08 232.369)" fill="url(#paint13_radial_114_33)" fill-opacity="0.7"/>
<path d="M0 2463.55C0 2463.55 11.5663 2431.88 49.5789 2431.05C174.666 2428.33 203.641 2588.66 357.575 2510.2C407.783 2484.61 433.177 2437.29 432.307 2395.78C431.013 2334.11 440.659 2320.91 472.538 2233.2C508.621 2133.92 738.284 2003.32 729.538 1899.2C717.038 1750.38 645.854 1644.6 582.538 1602.7C483.406 1537.09 358.63 1577.01 255.038 1517.2C215.782 1494.53 172.539 1422.65 130.038 1409.7C66.0383 1390.2 0 1454.2 0 1454.2L0 2463.55Z" fill="#221737"/>
<circle cx="25.1046" cy="1618.03" r="5.89312" transform="rotate(-88.6594 25.1046 1618.03)" fill="#CCC3E0"/>
<circle cx="448.548" cy="1678.67" r="7.5" transform="rotate(-88.6594 448.548 1678.67)" fill="#CCC3E0"/>
<circle cx="388.159" cy="1878.34" r="3.5" transform="rotate(-88.6594 388.159 1878.34)" fill="#CCC3E0"/>
<circle cx="262.581" cy="2445.28" r="3.5" transform="rotate(-88.6594 262.581 2445.28)" fill="#CCC3E0"/>
<circle cx="213.606" cy="1773.12" r="3.5" transform="rotate(-88.6594 213.606 1773.12)" fill="#CCC3E0"/>
<circle cx="135.936" cy="1970.47" r="3.5" transform="rotate(-88.6594 135.936 1970.47)" fill="#CCC3E0"/>
<circle cx="47.5809" cy="2311.58" r="3.5" transform="rotate(-88.6594 47.5809 2311.58)" fill="#CCC3E0"/>
<circle cx="255.171" cy="2047.28" r="3.5" transform="rotate(-88.6594 255.171 2047.28)" fill="#CCC3E0"/>
<circle cx="543.581" cy="2068.58" r="3.5" transform="rotate(-88.6594 543.581 2068.58)" fill="#CCC3E0"/>
<circle cx="229.747" cy="1979.66" r="2.5" transform="rotate(-88.6594 229.747 1979.66)" fill="#CCC3E0"/>
<circle cx="92.5578" cy="2136.19" r="2.5" transform="rotate(-88.6594 92.5578 2136.19)" fill="#CCC3E0"/>
<circle cx="417.018" cy="1854.13" r="2.22845" transform="rotate(58.0591 417.018 1854.13)" fill="#CCC3E0"/>
<circle cx="331.014" cy="2311.43" r="2.22845" transform="rotate(58.0591 331.014 2311.43)" fill="#CCC3E0"/>
<circle cx="291.44" cy="2421.07" r="2.22845" transform="rotate(58.0591 291.44 2421.07)" fill="#CCC3E0"/>
<circle cx="318.307" cy="1772" r="1.2734" transform="rotate(-88.6594 318.307 1772)" fill="#CCC3E0"/>
<circle cx="232.303" cy="2229.3" r="1.2734" transform="rotate(-88.6594 232.303 2229.3)" fill="#CCC3E0"/>
<circle cx="386.303" cy="2259.3" r="1.2734" transform="rotate(-88.6594 386.303 2259.3)" fill="#CCC3E0"/>
<circle cx="327.438" cy="1782.05" r="1.9101" transform="rotate(58.0591 327.438 1782.05)" fill="#CCC3E0"/>
<circle cx="241.435" cy="2239.35" r="1.9101" transform="rotate(58.0591 241.435 2239.35)" fill="#CCC3E0"/>
<circle cx="535.144" cy="1667.16" r="3.5" transform="rotate(-139.512 535.144 1667.16)" fill="#CCC3E0"/>
<circle cx="582.202" cy="1876.95" r="3.5" transform="rotate(-139.512 582.202 1876.95)" fill="#CCC3E0"/>
<circle cx="70.8726" cy="1518.9" r="3.5" transform="rotate(-43.4034 70.8726 1518.9)" fill="#CCC3E0"/>
<circle cx="108.387" cy="1522.35" r="2.22845" transform="rotate(103.315 108.387 1522.35)" fill="#CCC3E0"/>
<circle cx="176.563" cy="1590.93" r="2.5" transform="rotate(-94.2564 176.563 1590.93)" fill="#CCC3E0"/>
<circle cx="422.134" cy="1653.46" r="1.9101" transform="rotate(7.2061 422.134 1653.46)" fill="#CCC3E0"/>
<path d="M206.303 1308.5C237.803 1314 271.803 1296 299.303 1303C326.803 1310 330.303 1333 330.303 1333C330.303 1333 351.803 1390 289.803 1399C227.803 1408 161.303 1365 158.303 1342.5C155.303 1320 174.803 1303 206.303 1308.5Z" fill="#221737"/>
<circle cx="226" cy="1318" r="47" fill="url(#paint14_linear_114_33)"/>
<path d="M90 1664.93C90 1664.93 107.099 1652.88 119.74 1653C128.221 1653.08 130.985 1653.32 137.248 1658.65C143.746 1664.19 145.32 1672.37 143.705 1680.44C141.832 1689.8 134.627 1695.64 122.084 1696.58C103.241 1698 100.526 1686.9 100.526 1686.9C100.526 1686.9 100.594 1695.7 104.562 1699.41C115.206 1709.36 144.828 1696.84 144.828 1696.84C144.828 1696.84 131.294 1707.14 120.3 1708.29C108.213 1709.55 99.7196 1704.65 96.0878 1699.41C89.749 1690.25 91.2453 1676.41 96.8946 1670.35C101.571 1665.34 109.001 1661.88 117.072 1661.88C134.346 1661.88 135.634 1674.39 135.634 1674.39C135.634 1674.39 135.465 1663.87 129.249 1659.84C116.548 1651.59 90 1664.93 90 1664.93Z" fill="url(#paint15_radial_114_33)" fill-opacity="0.6"/>
<path d="M106.389 1688.35C102.983 1684.16 104.881 1676.66 104.881 1676.66C104.881 1676.66 105.167 1673.51 113.68 1671.19C105.033 1665.84 99.4002 1677.78 99.4002 1677.78C99.4002 1677.78 103.905 1668.82 111.324 1666.56C119.481 1664.08 125.82 1665.66 129.015 1668.74C134.591 1674.12 133.99 1681.59 130.9 1686.47C128.342 1690.5 127.004 1691.36 121.519 1692.76C110.923 1695.47 106.389 1688.35 106.389 1688.35Z" fill="url(#paint16_radial_114_33)" fill-opacity="0.6"/>
<rect x="482.258" y="1921.21" width="13.4788" height="7.13583" transform="rotate(-35.9361 482.258 1921.21)" fill="white"/>
<rect x="430.141" y="1849.31" width="13.4788" height="7.13583" transform="rotate(-35.9361 430.141 1849.31)" fill="white"/>
<rect x="429.533" y="1828.21" width="61.051" height="129.238" transform="rotate(-35.9361 429.533 1828.21)" fill="white"/>
<rect x="429.533" y="1828.21" width="61.051" height="129.238" transform="rotate(-35.9361 429.533 1828.21)" fill="url(#paint17_linear_114_33)"/>
<rect x="370.438" y="1892.59" width="13.4788" height="7.13583" transform="rotate(-35.9361 370.438 1892.59)" fill="white"/>
<rect x="422.555" y="1964.49" width="13.4788" height="7.13583" transform="rotate(-35.9361 422.555 1964.49)" fill="white"/>
<rect x="312.054" y="1913.37" width="61.051" height="129.238" transform="rotate(-35.9361 312.054 1913.37)" fill="white"/>
<rect x="312.054" y="1913.37" width="61.051" height="129.238" transform="rotate(-35.9361 312.054 1913.37)" fill="url(#paint18_linear_114_33)"/>
<rect x="487.932" y="1981.73" width="3.96435" height="19.8218" transform="rotate(-35.9361 487.932 1981.73)" fill="#48205F"/>
<rect x="374.389" y="1864.27" width="47.5722" height="6.34296" transform="rotate(-35.9361 374.389 1864.27)" fill="url(#paint19_linear_114_33)"/>
<rect x="464.824" y="1959.31" width="13.4788" height="7.13583" transform="rotate(-35.9361 464.824 1959.31)" fill="#D0C2E5"/>
<path d="M374.572 1879.38C372.627 1876.69 373.226 1872.94 375.909 1871L418.834 1839.88C421.517 1837.94 425.268 1838.54 427.213 1841.22L487.114 1923.86C492.948 1931.91 491.153 1943.17 483.104 1949L459.611 1966.03C451.562 1971.86 440.307 1970.07 434.473 1962.02L374.572 1879.38Z" fill="#48205F"/>
<circle cx="503.728" cy="2000.15" r="5.94653" transform="rotate(-35.9361 503.728 2000.15)" fill="#FFE898"/>
<path d="M473.547 1960.82C504.041 1938.72 523.393 1957.99 523.393 1957.99L455.344 2007.31C455.344 2007.31 443.054 1982.93 473.547 1960.82Z" fill="url(#paint20_linear_114_33)"/>
<path d="M384.485 1838.34C405.485 1823.12 418.154 1835.48 418.154 1835.48L371.291 1869.45C371.291 1869.45 363.485 1853.56 384.485 1838.34Z" fill="url(#paint21_linear_114_33)"/>
<rect x="320.271" y="1915.24" width="12.6859" height="12.6859" transform="rotate(-35.9361 320.271 1915.24)" fill="#D0C2E5"/>
<rect x="340.744" y="1943.49" width="12.6859" height="12.6859" transform="rotate(-35.9361 340.744 1943.49)" fill="#D0C2E5"/>
<rect x="361.219" y="1971.74" width="12.6859" height="12.6859" transform="rotate(-35.9361 361.219 1971.74)" fill="#D0C2E5"/>
<rect x="381.693" y="1999.98" width="12.6859" height="12.6859" transform="rotate(-35.9361 381.693 1999.98)" fill="#D0C2E5"/>
<rect x="330.508" y="1929.37" width="12.6859" height="12.6859" transform="rotate(-35.9361 330.508 1929.37)" fill="#D0C2E5"/>
<rect x="350.981" y="1957.61" width="12.6859" height="12.6859" transform="rotate(-35.9361 350.981 1957.61)" fill="#D0C2E5"/>
<rect x="371.455" y="1985.86" width="12.6859" height="12.6859" transform="rotate(-35.9361 371.455 1985.86)" fill="#D0C2E5"/>
<rect x="335.678" y="1904.08" width="12.6859" height="12.6859" transform="rotate(-35.9361 335.678 1904.08)" fill="#D0C2E5"/>
<rect x="356.151" y="1932.32" width="12.6859" height="12.6859" transform="rotate(-35.9361 356.151 1932.32)" fill="#D0C2E5"/>
<rect x="376.625" y="1960.57" width="12.6859" height="12.6859" transform="rotate(-35.9361 376.625 1960.57)" fill="#D0C2E5"/>
<rect x="397.1" y="1988.82" width="12.6859" height="12.6859" transform="rotate(-35.9361 397.1 1988.82)" fill="#D0C2E5"/>
<rect x="345.915" y="1918.2" width="12.6859" height="12.6859" transform="rotate(-35.9361 345.915 1918.2)" fill="#D0C2E5"/>
<rect x="366.389" y="1946.45" width="12.6859" height="12.6859" transform="rotate(-35.9361 366.389 1946.45)" fill="#D0C2E5"/>
<rect x="386.863" y="1974.69" width="12.6859" height="12.6859" transform="rotate(-35.9361 386.863 1974.69)" fill="#D0C2E5"/>
<rect x="351.085" y="1892.91" width="12.6859" height="12.6859" transform="rotate(-35.9361 351.085 1892.91)" fill="#D0C2E5"/>
<rect x="371.559" y="1921.16" width="12.6859" height="12.6859" transform="rotate(-35.9361 371.559 1921.16)" fill="#D0C2E5"/>
<rect x="392.033" y="1949.4" width="12.6859" height="12.6859" transform="rotate(-35.9361 392.033 1949.4)" fill="#D0C2E5"/>
<rect x="412.506" y="1977.65" width="12.6859" height="12.6859" transform="rotate(-35.9361 412.506 1977.65)" fill="#D0C2E5"/>
<rect x="361.321" y="1907.03" width="12.6859" height="12.6859" transform="rotate(-35.9361 361.321 1907.03)" fill="#D0C2E5"/>
<rect x="381.795" y="1935.28" width="12.6859" height="12.6859" transform="rotate(-35.9361 381.795 1935.28)" fill="#D0C2E5"/>
<rect x="402.27" y="1963.52" width="12.6859" height="12.6859" transform="rotate(-35.9361 402.27 1963.52)" fill="#D0C2E5"/>
<rect x="437.285" y="1829.45" width="12.6859" height="12.6859" transform="rotate(-35.9361 437.285 1829.45)" fill="#D0C2E5"/>
<rect x="457.758" y="1857.69" width="12.6859" height="12.6859" transform="rotate(-35.9361 457.758 1857.69)" fill="#D0C2E5"/>
<rect x="478.232" y="1885.94" width="12.6859" height="12.6859" transform="rotate(-35.9361 478.232 1885.94)" fill="#D0C2E5"/>
<rect x="498.707" y="1914.19" width="12.6859" height="12.6859" transform="rotate(-35.9361 498.707 1914.19)" fill="#D0C2E5"/>
<rect x="447.521" y="1843.57" width="12.6859" height="12.6859" transform="rotate(-35.9361 447.521 1843.57)" fill="#D0C2E5"/>
<rect x="467.996" y="1871.82" width="12.6859" height="12.6859" transform="rotate(-35.9361 467.996 1871.82)" fill="#D0C2E5"/>
<rect x="488.471" y="1900.06" width="12.6859" height="12.6859" transform="rotate(-35.9361 488.471 1900.06)" fill="#D0C2E5"/>
<rect x="452.691" y="1818.28" width="12.6859" height="12.6859" transform="rotate(-35.9361 452.691 1818.28)" fill="#D0C2E5"/>
<rect x="473.166" y="1846.53" width="12.6859" height="12.6859" transform="rotate(-35.9361 473.166 1846.53)" fill="#D0C2E5"/>
<rect x="493.641" y="1874.77" width="12.6859" height="12.6859" transform="rotate(-35.9361 493.641 1874.77)" fill="#D0C2E5"/>
<rect x="514.113" y="1903.02" width="12.6859" height="12.6859" transform="rotate(-35.9361 514.113 1903.02)" fill="#D0C2E5"/>
<rect x="462.928" y="1832.4" width="12.6859" height="12.6859" transform="rotate(-35.9361 462.928 1832.4)" fill="#D0C2E5"/>
<rect x="483.402" y="1860.65" width="12.6859" height="12.6859" transform="rotate(-35.9361 483.402 1860.65)" fill="#D0C2E5"/>
<rect x="503.877" y="1888.9" width="12.6859" height="12.6859" transform="rotate(-35.9361 503.877 1888.9)" fill="#D0C2E5"/>
<rect x="468.098" y="1807.11" width="12.6859" height="12.6859" transform="rotate(-35.9361 468.098 1807.11)" fill="#D0C2E5"/>
<rect x="488.572" y="1835.36" width="12.6859" height="12.6859" transform="rotate(-35.9361 488.572 1835.36)" fill="#D0C2E5"/>
<rect x="509.047" y="1863.61" width="12.6859" height="12.6859" transform="rotate(-35.9361 509.047 1863.61)" fill="#D0C2E5"/>
<rect x="529.521" y="1891.85" width="12.6859" height="12.6859" transform="rotate(-35.9361 529.521 1891.85)" fill="#D0C2E5"/>
<rect x="478.336" y="1821.24" width="12.6859" height="12.6859" transform="rotate(-35.9361 478.336 1821.24)" fill="#D0C2E5"/>
<rect x="498.811" y="1849.48" width="12.6859" height="12.6859" transform="rotate(-35.9361 498.811 1849.48)" fill="#D0C2E5"/>
<rect x="519.283" y="1877.73" width="12.6859" height="12.6859" transform="rotate(-35.9361 519.283 1877.73)" fill="#D0C2E5"/>
<rect x="384.545" y="1893.14" width="65.0154" height="17.4431" transform="rotate(-35.9361 384.545 1893.14)" fill="#6E2C8D"/>
<rect x="397.109" y="1910.47" width="65.0154" height="8.72157" transform="rotate(-35.9361 397.109 1910.47)" fill="#6E2C8D"/>
<rect x="417.654" y="1856.41" width="4.75722" height="72.1512" transform="rotate(-35.9361 417.654 1856.41)" fill="#D0C2E5"/>
<rect x="462.791" y="1918.68" width="4.75722" height="19.0289" transform="rotate(-35.9361 462.791 1918.68)" fill="#D0C2E5"/>
<rect x="413.934" y="1851.27" width="4.75722" height="4.75722" transform="rotate(-35.9361 413.934 1851.27)" fill="#D0C2E5"/>
<path d="M374.572 1879.38C372.627 1876.69 373.226 1872.94 375.909 1871L418.834 1839.88C421.517 1837.94 425.268 1838.54 427.213 1841.22L487.114 1923.86C492.948 1931.91 491.153 1943.17 483.104 1949L459.611 1966.03C451.562 1971.86 440.307 1970.07 434.473 1962.02L374.572 1879.38Z" fill="url(#paint22_linear_114_33)"/>
<path d="M507.779 2019.05C507.779 2019.05 513.033 2019.33 517.054 2016.17C521.076 2013 521.92 2008.4 521.92 2008.4" stroke="#D0C2E5" stroke-linecap="round"/>
<path d="M508.646 2029.81C508.646 2029.81 517.182 2030.28 523.715 2025.13C530.248 2019.99 531.62 2012.51 531.62 2012.51" stroke="#D0C2E5" stroke-linecap="round"/>
<ellipse cx="198.5" cy="2315.24" rx="161.29" ry="7.13076" transform="rotate(15.2271 198.5 2315.24)" fill="#FFBB7C" fill-opacity="0.4"/>
<circle cx="229.609" cy="2320.98" r="28.8983" transform="rotate(-15 229.609 2320.98)" fill="url(#paint23_linear_114_33)"/>
<path d="M320.385 2045.4C322.187 2054.54 330.681 2060.52 339.317 2058.82C347.952 2057.12 353.542 2048.36 351.741 2039.22C349.939 2030.08 341.445 2024.1 332.809 2025.81C324.174 2027.51 318.584 2036.26 320.385 2045.4Z" stroke="white"/>
<path d="M356.102 2064.61C356.102 2064.61 367.663 2067.16 374.428 2064.83C381.603 2062.35 389.285 2052.32 389.285 2052.32L385.053 2045.5L373.538 2055.43C373.538 2055.43 361.151 2051.17 356.338 2051.16C351.525 2051.15 345.853 2051.63 339.483 2053.52C331.765 2055.82 323.172 2058.65 321.12 2062.89C319.068 2067.12 319.576 2079.47 319.576 2079.47L319.922 2086.1C319.922 2086.1 312.557 2094.96 309.496 2101.56C306.869 2107.23 304.811 2116.84 304.811 2116.84C304.811 2116.84 294.44 2117.93 290.171 2120.69C285.903 2123.44 281.435 2130.07 281.435 2130.07L282.707 2136.52C282.707 2136.52 308.643 2131.4 312.167 2129.75C315.691 2128.1 329.294 2104.36 329.294 2104.36C329.294 2104.36 331.822 2112.66 333.871 2117.82C335.679 2122.36 339.012 2129.25 339.012 2129.25C339.012 2129.25 334.251 2129.98 331.783 2131.63C328.32 2133.95 325.826 2140.46 325.826 2140.46L327.279 2147.84C327.279 2147.84 350.273 2137.56 353.433 2134.06C356.594 2130.57 352.797 2121.39 351.29 2113.43C349.647 2104.75 345.078 2091.67 345.078 2091.67C347.311 2088.36 349.364 2084.13 349.364 2084.13L356.03 2083.77L356.429 2076.03L353.105 2073.82C354.594 2071.61 356.102 2064.61 356.102 2064.61Z" fill="url(#paint24_linear_114_33)"/>
<path d="M319.867 2144.85C319.867 2144.85 314.722 2142.99 313.247 2145.2C311.771 2147.41 307.516 2159.75 307.698 2160.68C307.88 2161.6 311.741 2161.8 313.399 2160.51C315.057 2159.23 327.216 2148.2 327.216 2148.2L325.76 2140.81L319.867 2144.85Z" fill="url(#paint25_linear_114_33)"/>
<path d="M273.006 2130.11C272.086 2130.29 265.799 2146.88 265.981 2147.8C266.163 2148.72 268.185 2149.28 270.025 2148.92C271.864 2148.56 282.922 2136.79 282.922 2136.79L281.648 2130.32C281.648 2130.32 273.926 2129.93 273.006 2130.11Z" fill="url(#paint26_linear_114_33)"/>
<path d="M355.978 2083.24C355.978 2083.24 342.848 2084.41 337.798 2082.82C332.747 2081.24 322.064 2069.62 322.064 2069.62" stroke="#9F99A4"/>
<path d="M353.235 2074.3L341.939 2074.32C341.939 2074.32 337.398 2069.11 333.923 2066.42C330.412 2063.7 324.161 2060.59 324.161 2060.59" stroke="#9F99A4"/>
<path d="M380.213 2061.35L373.339 2055.56" stroke="#9F99A4"/>
<path d="M373.76 2055.52C373.76 2055.52 372.8 2058.29 372.724 2060.07C372.648 2061.87 373.198 2064.67 373.198 2064.67" stroke="#9F99A4"/>
<path d="M348.443 2052.4C348.443 2052.4 351.613 2055.37 353.01 2057.72C354.626 2060.45 355.837 2064.95 355.837 2064.95" stroke="#9F99A4"/>
<line x1="332.638" y1="2060.11" x2="330.346" y2="2064.22" stroke="#9F99A4"/>
<path d="M341.688 2075.23C341.688 2075.23 342.599 2077.66 342.92 2079.29C343.241 2080.92 343.323 2083.52 343.323 2083.52" stroke="#9F99A4"/>
<path d="M341.83 2074.82C341.83 2074.82 339.809 2076.14 338.617 2077.12C337.177 2078.31 335.185 2080.44 335.185 2080.44" stroke="#9F99A4"/>
<path d="M345.235 2090.48C345.235 2090.48 337.681 2093.14 332.691 2092.95C327.122 2092.74 319.054 2088.75 319.054 2088.75" stroke="#9F99A4"/>
<path d="M346.581 2088.49C346.581 2088.49 338.146 2089.61 332.784 2089.04C327.764 2088.51 320.236 2085.93 320.236 2085.93" stroke="#9F99A4"/>
<path d="M344.626 2093.2C344.626 2093.2 339.881 2095.71 337.069 2097.67C333.924 2099.86 329.514 2103.94 329.514 2103.94" stroke="#9F99A4"/>
<path d="M346.54 2097.96C346.54 2097.96 341.42 2098.56 338.306 2099.58C334.709 2100.76 329.618 2103.88 329.618 2103.88" stroke="#9F99A4"/>
<path d="M316.402 2090.79C316.402 2090.79 321.654 2093.31 324.228 2095.9C326.802 2098.48 329.294 2103.75 329.294 2103.75" stroke="#9F99A4"/>
<path d="M314.646 2094.65C314.646 2094.65 319.011 2096.23 321.573 2097.71C324.922 2099.64 329.372 2103.81 329.372 2103.81" stroke="#9F99A4"/>
<path d="M338.701 2129.49C338.701 2129.49 342.13 2131.32 344.015 2132.91C345.741 2134.37 347.961 2137.14 347.961 2137.14" stroke="#9F99A4"/>
<path d="M338.79 2128.76C338.79 2128.76 346.186 2126.45 348.422 2126.87C350.659 2127.29 353.539 2129.3 353.539 2129.3" stroke="#9F99A4"/>
<path d="M316.316 2122.1C316.316 2122.1 313.78 2120.36 312.065 2119.4C309.683 2118.06 305.725 2116.44 305.725 2116.44" stroke="#9F99A4"/>
<path d="M303.622 2118.07C303.622 2118.07 305.439 2121.59 306.085 2124.02C306.726 2126.43 306.903 2130.35 306.903 2130.35" stroke="#9F99A4"/>
<path d="M373.417 2078.88L366.3 2075.54L356.023 2075.85L355.836 2083.64L362.136 2082.82L366.439 2084.99L366.1 2087.64L369.417 2086.99L371.992 2084.76L373.417 2078.88Z" fill="#6E2C8D"/>
<path d="M391.579 2044.29L384.946 2045.6L389.319 2052.49L391.479 2050.34L401.511 2048.79L404.01 2043.99L400.466 2036.94L398.136 2040.41L395.479 2042.23L394.744 2038.5L391.579 2044.29Z" fill="#6E2C8D"/>
<path d="M340.609 2037.73C340.609 2037.73 336.317 2035.56 334.16 2036.52C331.899 2037.53 330.724 2041.45 330.724 2041.45L334.319 2049.65C334.319 2049.65 332.473 2047.67 331.176 2047.35C328.169 2046.6 326.486 2043.6 325.992 2040.54C325.501 2037.5 325.923 2036.66 328.067 2034.45C330.375 2032.07 332.771 2032.27 336.008 2032.99C339.101 2033.69 342.165 2035.91 342.197 2036.33C342.229 2036.75 340.609 2037.73 340.609 2037.73Z" fill="#FFE485"/>
<path d="M329.619 2040.86C329.619 2040.86 331.567 2035.88 334.516 2035.65C337.465 2035.42 342.25 2037.01 343.803 2041.76C345.356 2046.51 340.575 2048.79 340.575 2048.79L341.364 2051.28L346.252 2052.58C346.252 2052.58 344.696 2054.66 341.739 2056.17C338.12 2058.01 334.004 2056.18 334.004 2056.18C334.004 2056.18 336.272 2055.15 334.15 2050.23C332.029 2045.31 332.278 2046.57 332.278 2046.57C332.278 2046.57 330.623 2047.77 329.038 2043.63C328.702 2042.76 330.423 2042.04 330.423 2042.04L329.619 2040.86Z" fill="#FF8C8C"/>
<path d="M336.522 2047.4C336.522 2047.4 337.642 2048.04 338.405 2048.33C339.168 2048.62 340.443 2048.67 340.443 2048.67" stroke="#D15B5B"/>
<path d="M339.268 2038.92C339.268 2038.92 339.56 2039.45 340.333 2040.02C341.105 2040.59 342.631 2040.91 342.631 2040.91" stroke="#D15B5B"/>
<path d="M335.269 2043.42C335.269 2043.42 335.854 2043.28 336.607 2042.68C337.36 2042.09 338.071 2040.7 338.071 2040.7" stroke="#D15B5B"/>
<path d="M340.096 2038.33C340.096 2038.33 340.078 2038.49 339.934 2038.71C339.789 2038.94 339.409 2039.19 339.409 2039.19" stroke="#D15B5B"/>
<path d="M322.524 2045.05C322.524 2045.05 322.205 2042.78 322.233 2041.3C322.262 2039.72 322.784 2037.4 322.784 2037.4" stroke="white"/>
</g>
<defs>
<linearGradient id="paint0_linear_114_33" x1="215.5" y1="3720" x2="361.5" y2="4018" gradientUnits="userSpaceOnUse">
<stop stop-color="#FF4242"/>
<stop offset="0.9999" stop-color="#992828"/>
<stop offset="1" stop-color="#FF4242"/>
</linearGradient>
<linearGradient id="paint1_linear_114_33" x1="269.928" y1="3719.43" x2="269.928" y2="4034.43" gradientUnits="userSpaceOnUse">
<stop stop-color="#FF4242" stop-opacity="0"/>
<stop offset="1" stop-color="#FF8244"/>
</linearGradient>
<linearGradient id="paint2_linear_114_33" x1="267.108" y1="3751.46" x2="492" y2="3857" gradientUnits="userSpaceOnUse">
<stop stop-color="#FF8244"/>
<stop offset="1" stop-color="#FF4242"/>
</linearGradient>
<linearGradient id="paint3_linear_114_33" x1="179.999" y1="3898.5" x2="212.499" y2="4042.5" gradientUnits="userSpaceOnUse">
<stop stop-color="#FF8244"/>
<stop offset="1" stop-color="#FF4242"/>
</linearGradient>
<linearGradient id="paint4_linear_114_33" x1="130.442" y1="3535.16" x2="310" y2="3535.16" gradientUnits="userSpaceOnUse">
<stop stop-color="#84FFDA"/>
<stop offset="0.555" stop-color="#7CC8FF" stop-opacity="0.77"/>
</linearGradient>
<linearGradient id="paint5_linear_114_33" x1="133" y1="3531.82" x2="313" y2="3532.18" gradientUnits="userSpaceOnUse">
<stop stop-color="#7CC8FF" stop-opacity="0.77"/>
<stop offset="0.26896" stop-color="#7ED7F5" stop-opacity="0.831861"/>
<stop offset="1" stop-color="#84FFDA"/>
</linearGradient>
<linearGradient id="paint6_linear_114_33" x1="130.013" y1="3530.96" x2="213.963" y2="3531.13" gradientUnits="userSpaceOnUse">
<stop offset="1" stop-color="white"/>
</linearGradient>
<radialGradient id="paint7_radial_114_33" cx="0" cy="0" r="1" gradientUnits="userSpaceOnUse" gradientTransform="translate(130 3528) rotate(90) scale(26.1471)">
<stop stop-color="white"/>
<stop offset="0.62" stop-color="#7CC8FF" stop-opacity="0.1"/>
</radialGradient>
<radialGradient id="paint8_radial_114_33" cx="0" cy="0" r="1" gradientUnits="userSpaceOnUse" gradientTransform="translate(130 3528) rotate(90) scale(22.4118)">
<stop stop-color="white"/>
<stop offset="0.62" stop-color="#7CC8FF" stop-opacity="0.1"/>
</radialGradient>
<linearGradient id="paint9_linear_114_33" x1="129.201" y1="236.551" x2="35.3881" y2="160.922" gradientUnits="userSpaceOnUse">
<stop stop-color="#84FFDA"/>
<stop offset="0.555" stop-color="#7CC8FF" stop-opacity="0.77"/>
</linearGradient>
<linearGradient id="paint10_linear_114_33" x1="129.27" y1="233.731" x2="35.0742" y2="158.104" gradientUnits="userSpaceOnUse">
<stop stop-color="#7CC8FF" stop-opacity="0.77"/>
<stop offset="0.26896" stop-color="#7ED7F5" stop-opacity="0.831861"/>
<stop offset="1" stop-color="#84FFDA"/>
</linearGradient>
<linearGradient id="paint11_linear_114_33" x1="131.191" y1="234.541" x2="87.2593" y2="199.27" gradientUnits="userSpaceOnUse">
<stop offset="1" stop-color="white"/>
</linearGradient>
<radialGradient id="paint12_radial_114_33" cx="0" cy="0" r="1" gradientUnits="userSpaceOnUse" gradientTransform="translate(4.69772 4.69772) rotate(90) scale(17.5474)">
<stop stop-color="white"/>
<stop offset="0.62" stop-color="#7CC8FF" stop-opacity="0.1"/>
</radialGradient>
<radialGradient id="paint13_radial_114_33" cx="0" cy="0" r="1" gradientUnits="userSpaceOnUse" gradientTransform="translate(4.02661 4.02661) rotate(90) scale(15.0406)">
<stop stop-color="white"/>
<stop offset="0.62" stop-color="#7CC8FF" stop-opacity="0.1"/>
</radialGradient>
<linearGradient id="paint14_linear_114_33" x1="226" y1="1271" x2="265.523" y2="1344.7" gradientUnits="userSpaceOnUse">
<stop offset="0.415" stop-color="#FFE485"/>
<stop offset="1" stop-color="#E99649"/>
</linearGradient>
<radialGradient id="paint15_radial_114_33" cx="0" cy="0" r="1" gradientUnits="userSpaceOnUse" gradientTransform="translate(118.282 1681.25) rotate(90) scale(28.2478 28.6513)">
<stop offset="0.145" stop-color="#BFE4FF"/>
<stop offset="1" stop-color="#66BFFF"/>
</radialGradient>
<radialGradient id="paint16_radial_114_33" cx="0" cy="0" r="1" gradientUnits="userSpaceOnUse" gradientTransform="translate(118.326 1681.12) rotate(-101) scale(19.5812 20.1)">
<stop offset="0.145" stop-color="#BFE4FF"/>
<stop offset="1" stop-color="#66BFFF"/>
</radialGradient>
<linearGradient id="paint17_linear_114_33" x1="429.533" y1="1828.21" x2="490.584" y2="1957.45" gradientUnits="userSpaceOnUse">
<stop stop-color="#FF8244" stop-opacity="0.2"/>
<stop offset="1" stop-color="#737373" stop-opacity="0"/>
</linearGradient>
<linearGradient id="paint18_linear_114_33" x1="312.054" y1="1913.37" x2="373.105" y2="2042.6" gradientUnits="userSpaceOnUse">
<stop stop-color="#FF8244" stop-opacity="0.2"/>
<stop offset="1" stop-color="#737373" stop-opacity="0"/>
</linearGradient>
<linearGradient id="paint19_linear_114_33" x1="374.389" y1="1867.44" x2="479.84" y2="1867.44" gradientUnits="userSpaceOnUse">
<stop stop-color="#6E2C8D"/>
<stop offset="1" stop-color="#B398CB"/>
</linearGradient>
<linearGradient id="paint20_linear_114_33" x1="479.624" y1="2019.58" x2="481.067" y2="1955.37" gradientUnits="userSpaceOnUse">
<stop stop-color="#6E2C8D"/>
<stop offset="1" stop-color="#48205F"/>
</linearGradient>
<linearGradient id="paint21_linear_114_33" x1="366.172" y1="1862.39" x2="351.644" y2="1834.24" gradientUnits="userSpaceOnUse">
<stop stop-color="#D0C2E5"/>
<stop offset="0.425" stop-color="#A782BE"/>
<stop offset="1" stop-color="#702C89"/>
</linearGradient>
<linearGradient id="paint22_linear_114_33" x1="413.365" y1="1915.33" x2="460.452" y2="1887.08" gradientUnits="userSpaceOnUse">
<stop stop-opacity="0"/>
<stop offset="1" stop-color="#9542C5" stop-opacity="0.4"/>
</linearGradient>
<linearGradient id="paint23_linear_114_33" x1="229.609" y1="2292.09" x2="229.609" y2="2349.88" gradientUnits="userSpaceOnUse">
<stop offset="0.5" stop-color="#FFA87C"/>
<stop offset="1" stop-color="#FF8244"/>
</linearGradient>
<linearGradient id="paint24_linear_114_33" x1="329.801" y1="2128.82" x2="187.203" y2="2142.73" gradientUnits="userSpaceOnUse">
<stop stop-color="white"/>
<stop offset="1" stop-color="#8680E5"/>
</linearGradient>
<linearGradient id="paint25_linear_114_33" x1="329.383" y1="2112.33" x2="295.376" y2="2171.72" gradientUnits="userSpaceOnUse">
<stop stop-color="#1E0C27"/>
<stop offset="1" stop-color="#6E2C8D"/>
</linearGradient>
<linearGradient id="paint26_linear_114_33" x1="329.383" y1="2112.33" x2="295.376" y2="2171.72" gradientUnits="userSpaceOnUse">
<stop stop-color="#1E0C27"/>
<stop offset="1" stop-color="#6E2C8D"/>
</linearGradient>
<clipPath id="clip0_114_33">
<rect width="730" height="4077" fill="white"/>
</clipPath>
</defs>
</svg>
