<svg width="587" height="3464" viewBox="0 0 587 3464" fill="none" xmlns="http://www.w3.org/2000/svg">
<g clip-path="url(#clip0_116_307)">
<rect width="587" height="3464" fill="white"/>
<path d="M586.516 53.1342C586.516 53.1342 569.016 36.6342 539.516 50.6342C510.016 64.6342 428.544 155.398 410.037 157.5C397.022 158.978 384.059 153 373.537 160.5C354.939 173.757 346.68 197.543 342.516 220C340.273 232.095 350.537 252.029 331.537 266C314.537 278.5 296.999 280 269.516 328.5C252.516 358.5 256.399 423.634 297.516 449C330.812 469.541 375.016 475.5 397.516 443C420.016 410.5 456.037 424 471.537 416.5C487.037 409 540.246 402.491 526.016 421.634C515.004 436.448 496.775 424.765 480.016 432.5C467.016 438.5 463.161 446.355 465.016 457.634C469.516 485 557.037 471.5 586.516 421.634V53.1342Z" fill="#221737"/>
<circle cx="503.516" cy="417" r="33" fill="url(#paint0_linear_116_307)"/>
<path d="M403.788 2266.44C415.994 2233.9 517.069 2236.81 531.269 2268.54C551.698 2314.17 572.73 2319.55 570.046 2340.48C565.624 2374.95 507.815 2382.57 488.814 2376.84C455.913 2366.91 391.718 2298.62 403.788 2266.44Z" fill="#221737"/>
<circle cx="524.615" cy="2323.29" r="1.2734" transform="rotate(-105.793 524.615 2323.29)" fill="#CCC3E0"/>
<circle cx="536.303" cy="2330.21" r="1.9101" transform="rotate(40.9258 536.303 2330.21)" fill="#CCC3E0"/>
<circle cx="465.266" cy="2325.51" r="3.5" transform="rotate(-156.646 465.266 2325.51)" fill="#CCC3E0"/>
<circle cx="465.859" cy="2274.63" r="2.22845" transform="rotate(-9.92718 465.859 2274.63)" fill="#CCC3E0"/>
<path d="M587.033 2839C587.033 2839 513.452 2781.98 458.035 2763.88C376.177 2737.15 310.535 2779 259.035 2742.5C207.535 2706 204.035 2666.5 210.035 2633.5C216.035 2600.5 257.533 2590.88 250.033 2524.38C242.533 2457.88 177.033 2418.88 187.033 2366.88C197.033 2314.88 373.533 2284.88 432.533 2393.88C491.533 2502.88 587.033 2448.38 587.033 2448.38V2839Z" fill="#221737"/>
<circle cx="376.449" cy="2418.41" r="7.5" transform="rotate(17.5784 376.449 2418.41)" fill="#CCC3E0"/>
<path d="M586.428 2674.44C586.428 2678.59 586.535 2682 586.535 2682C582.393 2682 579.035 2678.64 579.035 2674.5C579.035 2670.36 582.393 2667 586.535 2667C586.535 2667 586.428 2670.3 586.428 2674.44Z" fill="#CCC3E0"/>
<circle cx="393.881" cy="2435.23" r="3.5" transform="rotate(17.5784 393.881 2435.23)" fill="#CCC3E0"/>
<circle cx="286.791" cy="2528.23" r="3.5" transform="rotate(17.5784 286.791 2528.23)" fill="#CCC3E0"/>
<circle cx="358.818" cy="2522.73" r="2.5" transform="rotate(17.5784 358.818 2522.73)" fill="#CCC3E0"/>
<circle cx="246.894" cy="2347.24" r="2.5" transform="rotate(17.5784 246.894 2347.24)" fill="#CCC3E0"/>
<circle cx="426.98" cy="2737.63" r="2.22845" transform="rotate(164.297 426.98 2737.63)" fill="#CCC3E0"/>
<circle cx="533.435" cy="2665.82" r="1.2734" transform="rotate(17.5784 533.435 2665.82)" fill="#CCC3E0"/>
<circle cx="399.535" cy="2611.15" r="1.9101" transform="rotate(164.297 399.535 2611.15)" fill="#CCC3E0"/>
<circle cx="521.232" cy="2671.78" r="1.9101" transform="rotate(164.297 521.232 2671.78)" fill="#CCC3E0"/>
<path d="M509.903 2518.77C509.903 2518.77 489.645 2508.72 476.586 2504.96C440.211 2494.52 391.057 2490.8 391.057 2490.8C391.057 2490.8 441.995 2499.14 464.374 2506.75C483.141 2513.13 505.526 2526.21 505.526 2526.21L509.903 2518.77Z" fill="url(#paint1_linear_116_307)" fill-opacity="0.21"/>
<path d="M507.689 2519.6C507.689 2519.6 494.211 2513 481.35 2508.69C445.531 2496.67 416.825 2494.35 416.825 2494.35C416.825 2494.35 447.606 2499.43 469.817 2507.59C488.441 2514.44 504.646 2523.84 504.646 2523.84L507.689 2519.6Z" fill="url(#paint2_linear_116_307)" fill-opacity="0.21"/>
<path d="M509.264 2521.04C509.264 2521.04 502.854 2518.37 496.987 2515.94C483.868 2510.5 472.683 2507.69 472.683 2507.69C472.683 2507.69 484.1 2511.7 493.142 2516.17C501.448 2520.28 507.262 2524.44 507.262 2524.44L509.264 2521.04Z" fill="url(#paint3_linear_116_307)" fill-opacity="0.21"/>
<circle cx="4.69772" cy="4.69772" r="4.69772" transform="matrix(-0.923816 -0.382837 -0.382837 0.923816 514.463 2520.65)" fill="url(#paint4_radial_116_307)" fill-opacity="0.7"/>
<circle cx="4.02661" cy="4.02661" r="4.02661" transform="matrix(-0.923816 -0.382837 -0.382837 0.923816 513.586 2521.01)" fill="url(#paint5_radial_116_307)" fill-opacity="0.7"/>
<circle cx="550.846" cy="238.536" r="3.5" transform="rotate(84.289 550.846 238.536)" fill="#CCC3E0"/>
<circle cx="423.082" cy="176.943" r="3.5" transform="rotate(84.289 423.082 176.943)" fill="#CCC3E0"/>
<circle cx="456.615" cy="240.923" r="2.5" transform="rotate(84.289 456.615 240.923)" fill="#CCC3E0"/>
<circle cx="574.511" cy="135.736" r="2.5" transform="rotate(84.289 574.511 135.736)" fill="#CCC3E0"/>
<circle cx="286.172" cy="388.501" r="2.22845" transform="rotate(-128.993 286.172 388.501)" fill="#CCC3E0"/>
<circle cx="542.432" cy="377.394" r="1.2734" transform="rotate(84.289 542.432 377.394)" fill="#CCC3E0"/>
<circle cx="396.432" cy="197.394" r="1.2734" transform="rotate(84.289 396.432 197.394)" fill="#CCC3E0"/>
<circle cx="400.724" cy="381.687" r="1.9101" transform="rotate(-128.993 400.724 381.687)" fill="#CCC3E0"/>
<circle cx="384.724" cy="402.687" r="1.9101" transform="rotate(-128.993 384.724 402.687)" fill="#CCC3E0"/>
<path d="M526 102.511C526 102.511 533.897 96.9436 539.736 97.0004C543.652 97.0385 544.929 97.1456 547.822 99.6097C550.823 102.166 551.549 105.947 550.804 109.674C549.939 113.997 546.611 116.693 540.818 117.129C532.116 117.783 530.862 112.656 530.862 112.656C530.862 112.656 530.893 116.719 532.726 118.434C537.642 123.032 551.322 117.245 551.322 117.245C551.322 117.245 545.072 122.002 539.994 122.534C534.412 123.119 530.489 120.857 528.812 118.434C525.884 114.205 526.575 107.81 529.184 105.015C531.344 102.7 534.776 101.101 538.503 101.101C546.481 101.101 547.076 106.878 547.076 106.878C547.076 106.878 546.998 102.022 544.127 100.157C538.261 96.3466 526 102.511 526 102.511Z" fill="url(#paint6_radial_116_307)" fill-opacity="0.6"/>
<path d="M533.568 113.327C531.996 111.392 532.872 107.928 532.872 107.928C532.872 107.928 533.004 106.472 536.936 105.4C532.942 102.929 530.341 108.445 530.341 108.445C530.341 108.445 532.421 104.306 535.848 103.264C539.615 102.119 542.543 102.846 544.018 104.27C546.594 106.756 546.316 110.205 544.889 112.456C543.708 114.32 543.09 114.716 540.556 115.363C535.663 116.613 533.568 113.327 533.568 113.327Z" fill="url(#paint7_radial_116_307)" fill-opacity="0.6"/>
<rect x="347.576" y="2652.69" width="1.50554" height="23.3359" transform="rotate(-20.1983 347.576 2652.69)" fill="#6A5E73"/>
<rect x="355.896" y="2651.32" width="1.50554" height="23.3359" transform="rotate(-53.9943 355.896 2651.32)" fill="#6A5E73"/>
<rect width="1.50554" height="23.3359" transform="matrix(-0.97197 -0.235105 -0.235105 0.97197 343.82 2655.77)" fill="#6A5E73"/>
<path d="M336.983 2648.97C339.988 2641.84 348.903 2637.77 354.962 2641.15C361.021 2644.54 366.851 2647.2 372.993 2650.56C373.748 2650.97 373.514 2651.97 373.514 2651.97L330.108 2667.94C330.108 2667.94 329.367 2667.05 329.593 2666.52C331.845 2661.28 333.978 2656.1 336.983 2648.97Z" fill="url(#paint8_linear_116_307)"/>
<ellipse cx="342.857" cy="2648.8" rx="2.25832" ry="3.01109" transform="rotate(21.6249 342.857 2648.8)" fill="#D9D9D9" fill-opacity="0.39"/>
<path d="M337.998 1804.27C372.377 1760.59 453.026 1755.82 508.499 1752.27C551.271 1749.54 587 1768.27 587 1768.27V2072.27C587 2072.27 549.998 2083.27 498.5 2044.27C474.496 2026.09 472.559 2001.48 445.5 1988.27C426.332 1978.92 411.615 1985.65 392 1977.27C352.235 1960.28 325.362 1938.6 316.5 1896.27C308.459 1857.87 313.729 1835.11 337.998 1804.27Z" fill="#221737"/>
<path d="M318.486 1987.77C322.478 1974.27 361.846 1995.82 388.492 1994.77C426.485 1993.27 437.8 1995.34 452.992 2017.27C463.723 2032.76 473.065 2049.9 461.492 2064.77C447.73 2082.45 415.485 2064.77 403.985 2052.77C386.018 2034.03 369.011 2029.27 350.998 2023.27C332.569 2017.13 312.977 2006.4 318.486 1987.77Z" fill="#221737"/>
<circle cx="383.998" cy="2036.27" r="32" fill="#CAC2DE"/>
<circle cx="429.498" cy="1878.77" r="81.5" fill="url(#paint9_linear_116_307)"/>
<path d="M283 1920C285.529 1906.98 349.501 1894 349.501 1894L351.671 1903.25C351.671 1903.25 295.501 1911 296.397 1921.11C296.848 1926.2 309.902 1929.34 315.001 1929C357.171 1926.21 397.825 1921.17 453.501 1903.25C487.597 1892.27 509.82 1892.46 538.501 1871C546.008 1865.38 552.501 1862 557.117 1856.07C568.743 1841.15 509.5 1863 509.5 1863L506.5 1852C506.5 1852 573.92 1835.5 571.002 1851.5C569.534 1859.55 565.937 1861.23 560.507 1867.34C535.5 1895.5 477.501 1916 446.501 1921.11C386.452 1931.02 330 1948.5 297.502 1939C287.583 1936.1 281.03 1930.14 283 1920Z" fill="url(#paint10_linear_116_307)"/>
<path d="M492.303 3306.5C523.803 3312 587 3298 587 3298V3397C525 3406 447.303 3363 444.303 3340.5C441.303 3318 460.803 3301 492.303 3306.5Z" fill="#221737"/>
<circle cx="512" cy="3316" r="47" fill="url(#paint11_linear_116_307)"/>
<path d="M360 1835C360 1835 368.858 1839.99 375 1842C386.003 1845.61 392.953 1845.87 404.5 1845C421.867 1843.69 430.306 1836.41 446.5 1830C456.346 1826.1 464.142 1827.11 471.5 1819.5C474.024 1816.89 477 1812 477 1812L482.5 1816.5C482.5 1816.5 478.823 1824.21 475.5 1828.5C463.672 1843.77 449.184 1844.12 430.5 1849C413.788 1853.37 403.601 1855.93 386.5 1853.5C374.09 1851.74 356 1843.5 356 1843.5L360 1835Z" fill="#FF8244" fill-opacity="0.42"/>
<path d="M375 1940C375 1940 389.609 1943.1 399.069 1944.5C410.799 1946.23 417.458 1948.38 429.282 1947.5C447.024 1946.18 456.156 1939.98 472.298 1932.5C484.338 1926.92 502 1916 502 1916L495.343 1926C495.343 1926 472.13 1941.27 455.5 1947C438.624 1952.81 428.182 1957.44 410.5 1955C398.187 1953.3 380.633 1944 380.633 1944L375 1940Z" fill="#FF8244" fill-opacity="0.42"/>
<path d="M353 1907C353 1907 370.482 1917.5 383 1918.69C390.207 1919.37 401.5 1917.5 401.5 1917.5L380 1922L358.5 1918.69L353 1907Z" fill="#FF8244" fill-opacity="0.42"/>
<path d="M349.999 1859.5C349.999 1859.5 361.691 1868.25 370.052 1872.3C383.371 1878.76 391.943 1880.42 406.635 1882.21C428.301 1884.85 440.622 1879.73 462.292 1877.14C475.373 1875.57 483.532 1877.57 495.713 1872.55C501.635 1870.12 510 1864.5 510 1864.5L511 1874C511 1874 504.002 1879.56 499.081 1882.45C478.448 1894.55 462.54 1891.72 438.627 1892.29C416.556 1892.81 403.404 1893.24 382.398 1886.44C368.399 1881.92 348.5 1870 348.5 1870L349.999 1859.5Z" fill="#FF8244" fill-opacity="0.42"/>
<circle cx="465.251" cy="1787.58" r="3.5" transform="rotate(-88.6594 465.251 1787.58)" fill="#CCC3E0"/>
<circle cx="555.581" cy="1952.58" r="3.5" transform="rotate(-88.6594 555.581 1952.58)" fill="#CCC3E0"/>
<circle cx="481.392" cy="1994.13" r="2.5" transform="rotate(-88.6594 481.392 1994.13)" fill="#CCC3E0"/>
<circle cx="569.951" cy="1786.47" r="1.2734" transform="rotate(-88.6594 569.951 1786.47)" fill="#CCC3E0"/>
<circle cx="548.303" cy="1945.3" r="1.2734" transform="rotate(-88.6594 548.303 1945.3)" fill="#CCC3E0"/>
<circle cx="429.303" cy="2011.3" r="1.2734" transform="rotate(-88.6594 429.303 2011.3)" fill="#CCC3E0"/>
<circle cx="579.083" cy="1796.52" r="1.9101" transform="rotate(58.0591 579.083 1796.52)" fill="#CCC3E0"/>
<circle cx="558.632" cy="2052.63" r="1.9101" transform="rotate(58.0591 558.632 2052.63)" fill="#CCC3E0"/>
<circle cx="439.632" cy="2052.63" r="1.9101" transform="rotate(58.0591 439.632 2052.63)" fill="#CCC3E0"/>
<path d="M587 1322.08C587 1322.08 537.5 1402.08 458 1399.58C378.5 1397.09 356 1342.58 257 1350.58C158 1358.58 74.0393 1229.84 17.8555 1127.58C-10.7443 1075.53 -0.62793 1034.91 17.8555 979.39C80.6323 790.831 587 979.39 587 979.39V1322.08Z" fill="#221737"/>
<path d="M502.555 757.697C521.724 759.195 545.813 761.946 555.972 791.455C569.576 830.972 542.776 869.73 501.321 875.028C426.985 884.529 453.726 832.809 424.157 820.515C370.428 798.176 393.083 696.683 420.163 694.289C452.062 691.469 470.63 755.203 502.555 757.697Z" fill="#221737"/>
<circle cx="316.609" cy="886.257" r="157.5" transform="rotate(3.48517 316.609 886.257)" fill="url(#paint12_linear_116_307)"/>
<circle cx="317.072" cy="885.713" r="157.5" transform="rotate(164.641 317.072 885.713)" fill="url(#paint13_linear_116_307)"/>
<path d="M172.361 885.95C182.151 865.044 268.82 881.343 316.797 866.733C388.195 844.99 418.098 766.166 418.098 766.166C442.608 783.188 454.091 808.51 460.259 822.372C466.428 836.233 421.9 901.147 398.697 903.78C393.415 904.379 420.987 858.551 409.212 846.274C397.267 833.82 376.035 894.384 343.783 908.912C293.822 931.417 284.148 920.821 242.97 902.772C209.791 888.229 162.245 907.552 172.361 885.95Z" fill="url(#paint14_linear_116_307)"/>
<path d="M305.074 979.892C289.071 973.983 276.154 967.304 243.341 984.534C225.75 993.77 190.705 979.59 190.705 979.59C204.691 1005.24 229.873 996.527 233.827 1007.02C237.781 1017.51 294.313 1032.59 293.788 1015.34C293.499 1005.84 286.944 1013.56 286.761 1000.99C286.575 988.237 300.825 998.635 325.328 989.527C363.284 975.419 362.869 964.823 375.15 933.951C385.044 909.076 321.61 985.998 305.074 979.892Z" fill="url(#paint15_linear_116_307)"/>
<ellipse cx="7.00473" cy="6.99461" rx="7.00473" ry="6.99461" transform="matrix(-0.222272 0.974292 -0.967593 -0.25555 372.25 1150.46)" fill="#CCC3E0"/>
<ellipse cx="3.48878" cy="3.26496" rx="3.48878" ry="3.26496" transform="matrix(-0.222272 0.974292 -0.967593 -0.25555 423.402 1285.27)" fill="#CCC3E0"/>
<ellipse cx="3.00203" cy="2.99769" rx="3.00203" ry="2.99769" transform="matrix(-0.222272 0.974292 -0.967593 -0.25555 533.438 1109.31)" fill="#CCC3E0"/>
<ellipse cx="3.48878" cy="3.26496" rx="3.48878" ry="3.26496" transform="matrix(-0.222272 0.974292 -0.967593 -0.25555 517 835.756)" fill="#CCC3E0"/>
<ellipse cx="0.996795" cy="0.932844" rx="0.996795" ry="0.932844" transform="matrix(-0.222272 0.974292 -0.967593 -0.25555 510.857 860.7)" fill="#CCC3E0"/>
<ellipse cx="3.48878" cy="3.26496" rx="3.48878" ry="3.26496" transform="matrix(-0.222272 0.974292 -0.967593 -0.25555 106.76 929.893)" fill="#CCC3E0"/>
<ellipse cx="2.49199" cy="2.33211" rx="2.49199" ry="2.33211" transform="matrix(-0.222272 0.974292 -0.967593 -0.25555 449.02 1080.83)" fill="#CCC3E0"/>
<ellipse cx="1.26932" cy="1.18788" rx="1.26932" ry="1.18788" transform="matrix(-0.222272 0.974292 -0.967593 -0.25555 325.656 1265.42)" fill="#CCC3E0"/>
<ellipse cx="1.26932" cy="1.18788" rx="1.26932" ry="1.18788" transform="matrix(-0.222272 0.974292 -0.967593 -0.25555 94.6328 990.414)" fill="#CCC3E0"/>
<ellipse cx="1.87062" cy="1.81681" rx="1.87062" ry="1.81681" transform="matrix(-0.316635 -0.962594 0.92114 -0.350775 365.625 1131.57)" fill="#CCC3E0"/>
<ellipse cx="1.87062" cy="1.81681" rx="1.87062" ry="1.81681" transform="matrix(-0.316635 -0.962594 0.92114 -0.350775 316.869 1257.01)" fill="#CCC3E0"/>
<ellipse cx="1.87062" cy="1.81681" rx="1.87062" ry="1.81681" transform="matrix(-0.316635 -0.962594 0.92114 -0.350775 108.879 923.627)" fill="#CCC3E0"/>
<ellipse cx="3.36111" cy="3.39624" rx="3.36111" ry="3.39624" transform="matrix(0.583274 0.830963 -0.764315 0.621084 106.391 1102.08)" fill="#CCC3E0"/>
<ellipse cx="2.4008" cy="2.42589" rx="2.4008" ry="2.42589" transform="matrix(0.583274 0.830963 -0.764315 0.621084 163.762 1140.67)" fill="#CCC3E0"/>
<ellipse cx="0.960318" cy="0.970355" rx="0.960318" ry="0.970355" transform="matrix(0.583274 0.830963 -0.764315 0.621084 170.502 1280.64)" fill="#CCC3E0"/>
<ellipse cx="1.87062" cy="1.81681" rx="1.87062" ry="1.81681" transform="matrix(-0.316635 -0.962594 0.92114 -0.350775 545.652 1337.64)" fill="#CCC3E0"/>
<path d="M283.578 1234.56C283.578 1234.56 315.652 1224.22 335.725 1221.58C391.636 1214.22 464.892 1219.6 464.892 1219.6C464.892 1219.6 387.985 1220.64 353.325 1226.91C324.261 1232.16 288.384 1246.49 288.384 1246.49L283.578 1234.56Z" fill="url(#paint16_linear_116_307)" fill-opacity="0.21"/>
<path d="M286.656 1236.27C286.656 1236.27 307.976 1229.52 327.88 1226.01C383.32 1216.22 426.132 1219.14 426.132 1219.14C426.132 1219.14 379.651 1219.83 345.118 1226.95C316.159 1232.92 290.204 1243.19 290.204 1243.19L286.656 1236.27Z" fill="url(#paint17_linear_116_307)" fill-opacity="0.21"/>
<path d="M284.018 1238.05C284.018 1238.05 294.055 1235.53 303.238 1233.24C323.771 1228.13 340.875 1226.46 340.875 1226.46C340.875 1226.46 323.167 1229.84 308.853 1234.43C295.706 1238.65 286.22 1243.49 286.22 1243.49L284.018 1238.05Z" fill="url(#paint18_linear_116_307)" fill-opacity="0.21"/>
<circle cx="284.834" cy="1241.44" r="7" transform="rotate(-13.9821 284.834 1241.44)" fill="url(#paint19_radial_116_307)" fill-opacity="0.7"/>
<circle cx="284.834" cy="1241.44" r="6" transform="rotate(-13.9821 284.834 1241.44)" fill="url(#paint20_radial_116_307)" fill-opacity="0.7"/>
<circle cx="140" cy="1020.56" r="32" fill="url(#paint21_linear_116_307)"/>
</g>
<defs>
<linearGradient id="paint0_linear_116_307" x1="503.516" y1="384" x2="548.5" y2="474.5" gradientUnits="userSpaceOnUse">
<stop stop-color="#FF4242"/>
<stop offset="1" stop-color="#FF8244"/>
</linearGradient>
<linearGradient id="paint1_linear_116_307" x1="506.271" y1="2527.54" x2="394.95" y2="2481.4" gradientUnits="userSpaceOnUse">
<stop stop-color="#84FFDA"/>
<stop offset="0.555" stop-color="#7CC8FF" stop-opacity="0.77"/>
</linearGradient>
<linearGradient id="paint2_linear_116_307" x1="505.542" y1="2524.81" x2="393.854" y2="2478.79" gradientUnits="userSpaceOnUse">
<stop stop-color="#7CC8FF" stop-opacity="0.77"/>
<stop offset="0.26896" stop-color="#7ED7F5" stop-opacity="0.831861"/>
<stop offset="1" stop-color="#84FFDA"/>
</linearGradient>
<linearGradient id="paint3_linear_116_307" x1="507.615" y1="2525.05" x2="455.525" y2="2503.58" gradientUnits="userSpaceOnUse">
<stop offset="1" stop-color="white"/>
</linearGradient>
<radialGradient id="paint4_radial_116_307" cx="0" cy="0" r="1" gradientUnits="userSpaceOnUse" gradientTransform="translate(4.69772 4.69772) rotate(90) scale(17.5474)">
<stop stop-color="white"/>
<stop offset="0.62" stop-color="#7CC8FF" stop-opacity="0.1"/>
</radialGradient>
<radialGradient id="paint5_radial_116_307" cx="0" cy="0" r="1" gradientUnits="userSpaceOnUse" gradientTransform="translate(4.02661 4.02661) rotate(90) scale(15.0406)">
<stop stop-color="white"/>
<stop offset="0.62" stop-color="#7CC8FF" stop-opacity="0.1"/>
</radialGradient>
<radialGradient id="paint6_radial_116_307" cx="0" cy="0" r="1" gradientUnits="userSpaceOnUse" gradientTransform="translate(539.062 110.047) rotate(90) scale(13.0463 13.2327)">
<stop offset="0.145" stop-color="#FFD8C5"/>
<stop offset="1" stop-color="#FF8244"/>
</radialGradient>
<radialGradient id="paint7_radial_116_307" cx="0" cy="0" r="1" gradientUnits="userSpaceOnUse" gradientTransform="translate(539.082 109.985) rotate(-101) scale(9.04362 9.28324)">
<stop offset="0.145" stop-color="#FFD1BA"/>
<stop offset="1" stop-color="#FF8244"/>
</radialGradient>
<linearGradient id="paint8_linear_116_307" x1="334.639" y1="2640.48" x2="363.639" y2="2643.98" gradientUnits="userSpaceOnUse">
<stop stop-color="#9F99A4"/>
<stop offset="1" stop-color="#524260"/>
</linearGradient>
<linearGradient id="paint9_linear_116_307" x1="429.498" y1="1797.27" x2="654" y2="2051" gradientUnits="userSpaceOnUse">
<stop stop-color="#79339D"/>
<stop offset="1" stop-color="#FF4242"/>
</linearGradient>
<linearGradient id="paint10_linear_116_307" x1="447.5" y1="1924.5" x2="410" y2="1776" gradientUnits="userSpaceOnUse">
<stop stop-color="#FF8244"/>
<stop offset="1" stop-color="#FFE487"/>
</linearGradient>
<linearGradient id="paint11_linear_116_307" x1="580.5" y1="3370" x2="490.5" y2="3197" gradientUnits="userSpaceOnUse">
<stop stop-color="#FFE485"/>
<stop offset="1" stop-color="#FF4242"/>
</linearGradient>
<linearGradient id="paint12_linear_116_307" x1="262.609" y1="728.757" x2="408.609" y2="1026.76" gradientUnits="userSpaceOnUse">
<stop stop-color="#0057FF"/>
<stop offset="0.9999" stop-color="#284099"/>
<stop offset="1" stop-color="#00FF57"/>
</linearGradient>
<linearGradient id="paint13_linear_116_307" x1="317.072" y1="728.213" x2="317.072" y2="1043.21" gradientUnits="userSpaceOnUse">
<stop stop-color="#FF4242" stop-opacity="0"/>
<stop offset="1" stop-color="#93E5FF"/>
</linearGradient>
<linearGradient id="paint14_linear_116_307" x1="321.883" y1="760.306" x2="539.943" y2="879.321" gradientUnits="userSpaceOnUse">
<stop stop-color="#00FFF0"/>
<stop offset="0.794416" stop-color="#4642FF"/>
</linearGradient>
<linearGradient id="paint15_linear_116_307" x1="225.997" y1="901.777" x2="249.683" y2="1047.49" gradientUnits="userSpaceOnUse">
<stop offset="0.304417" stop-color="#00FFF0"/>
<stop offset="1" stop-color="#446DFF"/>
</linearGradient>
<linearGradient id="paint16_linear_116_307" x1="286.993" y1="1248.28" x2="461.231" y2="1204.9" gradientUnits="userSpaceOnUse">
<stop stop-color="#84FFDA"/>
<stop offset="0.555" stop-color="#7CC8FF" stop-opacity="0.77"/>
</linearGradient>
<linearGradient id="paint17_linear_116_307" x1="288.669" y1="1244.42" x2="463.422" y2="1201.28" gradientUnits="userSpaceOnUse">
<stop stop-color="#7CC8FF" stop-opacity="0.77"/>
<stop offset="0.26896" stop-color="#7ED7F5" stop-opacity="0.831861"/>
<stop offset="1" stop-color="#84FFDA"/>
</linearGradient>
<linearGradient id="paint18_linear_116_307" x1="285.564" y1="1244.32" x2="367.067" y2="1224.2" gradientUnits="userSpaceOnUse">
<stop offset="1" stop-color="white"/>
</linearGradient>
<radialGradient id="paint19_radial_116_307" cx="0" cy="0" r="1" gradientUnits="userSpaceOnUse" gradientTransform="translate(284.834 1241.44) rotate(90) scale(26.1471)">
<stop stop-color="white"/>
<stop offset="0.62" stop-color="#7CC8FF" stop-opacity="0.1"/>
</radialGradient>
<radialGradient id="paint20_radial_116_307" cx="0" cy="0" r="1" gradientUnits="userSpaceOnUse" gradientTransform="translate(284.834 1241.44) rotate(90) scale(22.4118)">
<stop stop-color="white"/>
<stop offset="0.62" stop-color="#7CC8FF" stop-opacity="0.1"/>
</radialGradient>
<linearGradient id="paint21_linear_116_307" x1="140" y1="988.563" x2="120.5" y2="1052.56" gradientUnits="userSpaceOnUse">
<stop stop-color="#32C1FF"/>
<stop offset="1" stop-color="#50329B"/>
</linearGradient>
<clipPath id="clip0_116_307">
<rect width="587" height="3464" fill="white"/>
</clipPath>
</defs>
</svg>
